<svg xmlns="http://www.w3.org/2000/svg" xmlns:xlink="http://www.w3.org/1999/xlink" width="2381.526" height="3620.125" viewBox="0 0 2381.526 3620.125">
  <defs>
    <linearGradient id="linear-gradient" y1="0.5" x2="1" y2="0.5" gradientUnits="objectBoundingBox">
      <stop offset="0" stop-color="#17e8f7"/>
      <stop offset="0.219" stop-color="#5ab0d7"/>
      <stop offset="0.671" stop-color="#e24098"/>
    </linearGradient>
  </defs>
  <g id="Grupo_431" data-name="Grupo 431" transform="translate(-1769 -7658.421)">
    <g id="Grupo_429" data-name="Grupo 429" transform="translate(2532.948 8978.193) rotate(-120)">
      <g id="Grupo_428" data-name="Grupo 428" transform="translate(0 0)">
        <g id="Grupo_426" data-name="Grupo 426">
          <path id="Trazado_940" data-name="Trazado 940" d="M60.61,34.99C46.747,43,24.268,43,10.4,34.99S-3.467,14.006,10.4,6,46.747-2,60.61,6,74.475,26.986,60.61,34.99Z" transform="translate(404.222 831.036)" fill="#fff"/>
          <g id="Grupo_425" data-name="Grupo 425">
            <g id="Grupo_424" data-name="Grupo 424" transform="translate(123.118 0)">
              <path id="Trazado_941" data-name="Trazado 941" d="M613.638,104.332C556.366,70.719,496.126,46.109,443.867,8.567V5.013a29.984,29.984,0,0,0-5.824-.757c-1.9-1.417-3.808-2.8-5.679-4.256.007,1.513.018,2.882.025,4.141-4.856-.03-9.717-.278-14.579-3.184V130.915c0,188.539-114.648,408.118-255.571,489.486l-39.1,22.57C79.243,668.32,36.761,677.462,0,670.063v26.5a155.584,155.584,0,0,0,25.458,2.131,178.377,178.377,0,0,0,32.826-3.143l6.242,18.387s61.426,62.618,66.39,60.184,63.9,16.752,67,15.511,65.149-9.305,73.213-11.17S325.109,749.3,325.109,749.3l67.874-47.15,64.9-48.391L536.678,539.6l60.8-153.243,17.993-81.471S613.869,130.83,613.638,104.332Z" transform="translate(145.463 282.858)" fill="#161616"/>
              <path id="Trazado_942" data-name="Trazado 942" d="M6.811,677.9c36.761,7.392,79.243-1.75,123.142-27.092l39.1-22.576c140.922-81.362,255.571-300.947,255.571-489.486V8.785c4.861,2.912,9.723,3.154,14.578,3.191-.006-1.26-.018-2.634-.025-4.141,1.872,1.453,3.778,2.84,5.673,4.25a32.62,32.62,0,0,1,5.158.636c-2.035-1.4-4.129-2.712-6.139-4.153V5.013a29.984,29.984,0,0,0-5.824-.757c-1.9-1.417-3.808-2.8-5.679-4.256.007,1.513.018,2.882.025,4.147-4.856-.036-9.717-.284-14.579-3.19V130.915c0,188.539-114.648,408.118-255.571,489.486l-39.1,22.57C79.243,668.314,36.761,677.462,0,670.063v26.493c2.246.375,4.541.581,6.811.86Z" transform="translate(145.463 282.858)" fill="#fff"/>
              <path id="Trazado_943" data-name="Trazado 943" d="M447.723,1.03,445.938,0c-22.916,170.528-126.6,349.531-250.782,421.225l-39.1,22.576C98.307,477.141,43.039,482.4,0,458.888q2.487,1.6,5.043,3.082C48.409,487,104.689,482.1,163.5,448.142l39.1-22.576c124.177-71.693,227.867-250.7,250.776-421.224l1.786,1.035c4.249,2.452,9.747,3.766,15.6,4.081.225-1.507.484-3.021.7-4.522C462.7,5.812,453.905,4.6,447.723,1.03Z" transform="translate(288.596 583.726)" fill="#fff"/>
              <path id="Trazado_944" data-name="Trazado 944" d="M262.878,293.506l-.018-182.219L206.386,87.38,0,0V181.535l.018.006c.067,3.935,2.47,7.683,7.338,10.492L209.971,309.017c10.9,6.29,29.925,5.5,42.506-1.761,6.823-3.941,10.316-8.972,10.377-13.761Z" transform="translate(533.79 280.086)" fill="#2d2d2d"/>
              <path id="Trazado_945" data-name="Trazado 945" d="M262.86,111.287,202.666,87.379,0,0Z" transform="translate(530.065 276.362)" fill="#2c2660"/>
              <path id="Trazado_946" data-name="Trazado 946" d="M0,0V217.357c8.984.394,18.732-1.58,26.215-5.9,6.823-3.941,10.316-8.972,10.377-13.761l.024.012L36.6,15.493Z" transform="translate(760.052 375.881)" fill="#2d2d2d"/>
              <path id="Trazado_947" data-name="Trazado 947" d="M209.973,147.529,7.352,30.544C-3.54,24.254-2.172,13.272,10.409,6.007h0c12.574-7.259,31.609-8.052,42.5-1.762L255.53,121.23c10.892,6.29,9.53,17.278-3.051,24.537h0C239.9,153.033,220.87,153.819,209.973,147.529Z" transform="translate(533.788 260.094)" fill="#2d2d2d"/>
              <path id="Trazado_948" data-name="Trazado 948" d="M493.009,19.763c-.266-.157-.521-.327-.787-.478-.181-.109-.369-.194-.551-.3l-1.7-.975L489.8,18C438.407-10.375,373.881-5.1,307.7,33.106l-39.1,22.576C120.5,141.191,0,370.892,0,567.732V738.98C0,845.224,35.4,926.592,97.109,962.221c3.227,1.865,6.521,3.56,9.85,5.146l-.078.006,169.832,98.556-48.422-59.512-19.543-86.551-3.723-99.579-.932-61.426V622.055l12.1-68.866,13.029-55.844,26.989-71.324L281.8,371.71l23.732-33.97,32.105-53.973,21.874-26.524,33.038-25.6,24.2-21.4,61.414-46.066L533.857,137.5l48.391-13.028,44.05,1.241,44.952-2.864Z" fill="#161616"/>
              <path id="Trazado_949" data-name="Trazado 949" d="M218.6,261.128l-2.094-3.681.617.037-5.51-40.309c-.532-16.213-1-30.422-1-30.422S190.143,88.724,188.9,86.865s-29.163-49.638-29.163-49.638L67.916,0s-57.7,3.723-57.7,5.588a13.1,13.1,0,0,0,.333,1.538C7,7.895,3.469,8.748,0,9.747,11.279,41.641,17.3,79.7,17.3,122.4v39.3c-.569,2.567.793,5.249,4.207,7.223L201.489,273.237c5.842,3.378,11.11-.666,16.958-4.044S224.452,264.5,218.6,261.128Z" transform="translate(545.977 120.123)" fill="#161616"/>
              <g id="Grupo_422" data-name="Grupo 422" transform="translate(206.623 986.238)">
                <path id="Trazado_950" data-name="Trazado 950" d="M3.929,0C2.615.248,1.313.43,0,.648l3.366,9.91s2.428,2.47,6.321,6.381Z" fill="#2c2660"/>
              </g>
              <path id="Trazado_951" data-name="Trazado 951" d="M24.108,169.529v-39.3c0-42.694-6.018-80.756-17.3-112.65,3.469-1,7-1.852,10.547-2.627a12.854,12.854,0,0,1-.333-1.538c0-1.859,57.7-5.582,57.7-5.582l88.9,36.04-3.886-6.648L67.916,0s-57.7,3.723-57.7,5.588a13.1,13.1,0,0,0,.333,1.538C7,7.895,3.469,8.748,0,9.747,11.279,41.641,17.3,79.7,17.3,122.4v39.3c-.569,2.567.793,5.249,4.207,7.223l2.573,1.489A5.326,5.326,0,0,1,24.108,169.529Z" transform="translate(545.977 120.123)" fill="#fff"/>
              <path id="Trazado_952" data-name="Trazado 952" d="M589.378,280.8l-.048-38.232c0-106.238-35.4-187.606-97.115-223.235C440.446-10.564,374.91-5.654,307.7,33.153l-39.1,22.57C120.49,141.238,0,370.945,0,567.778V739.026C0,845.271,35.392,926.639,97.108,962.268c22.365,12.913,47.284,19.331,73.807,19.331,34.878,0,72.529-11.109,110.712-33.152l39.1-22.576C450.763,850.792,559.4,664.56,584,487.01c-8.754.878-17.551-.333-23.739-3.9l-1.786-1.035C535.564,652.6,431.873,831.607,307.7,903.3l-39.1,22.576c-58.816,33.958-115.1,38.862-158.462,13.828C56.7,908.852,26.057,835.712,26.057,739.026V567.778c0-188.539,114.648-408.124,255.57-489.485l39.1-22.576c34.067-19.67,67.286-29.593,97.642-29.593,22.043,0,42.573,5.237,60.821,15.771,53.434,30.846,84.08,103.992,84.08,200.671v44.4l.7.4c5.842,3.378,15.329,3.378,21.177,0,3.124-1.8,4.462-4.2,4.238-6.569Z" transform="translate(183.502 105.992)" fill="url(#linear-gradient)"/>
              <path id="Trazado_953" data-name="Trazado 953" d="M589.378,280.8l-.048-38.232c0-106.238-35.4-187.606-97.115-223.235C440.446-10.564,374.91-5.654,307.7,33.153l-39.1,22.57C120.49,141.238,0,370.945,0,567.778V739.026C0,845.271,35.392,926.639,97.108,962.268c22.365,12.913,47.284,19.331,73.807,19.331,34.878,0,72.529-11.109,110.712-33.152l39.1-22.576C450.763,850.792,559.4,664.56,584,487.01c-8.754.878-17.551-.333-23.739-3.9l-1.786-1.035C535.564,652.6,431.873,831.607,307.7,903.3l-39.1,22.576c-58.816,33.958-115.1,38.862-158.462,13.828C56.7,908.852,26.057,835.712,26.057,739.026V567.778c0-188.539,114.648-408.124,255.57-489.485l39.1-22.576c34.067-19.67,67.286-29.593,97.642-29.593,22.043,0,42.573,5.237,60.821,15.771,53.434,30.846,84.08,103.992,84.08,200.671v44.4l.7.4c5.842,3.378,15.329,3.378,21.177,0,3.124-1.8,4.462-4.2,4.238-6.569Z" transform="translate(183.502 105.992)" fill="#adadad"/>
              <path id="Trazado_954" data-name="Trazado 954" d="M479.394,19.328C427.618-10.561,362.088-5.657,294.869,33.15l-39.1,22.576C136.237,124.744,34.727,287.686,0,451.469A37.766,37.766,0,0,1,7.538,455.4C42.349,291.754,143.78,129.024,263.217,60.067l39.1-22.57C368.554-.747,433.128-6,484.546,22.465,482.844,21.387,481.131,20.333,479.394,19.328Z" transform="translate(188.884 101.648)" fill="#fff"/>
              <path id="Trazado_955" data-name="Trazado 955" d="M5.037,0C3.36.757,1.683,1.362,0,1.931,16.577,43.124,41.8,74.66,74.357,93.452c.823.479,1.671.878,2.5,1.338C45.1,74.72,20.724,42.094,5.037,0Z" transform="translate(198.807 970.461)" fill="#17e8f7"/>
              <g id="Grupo_423" data-name="Grupo 423" transform="translate(660.11 146.513)">
                <path id="Trazado_956" data-name="Trazado 956" d="M2.579,1.374C1.731.884.859.466,0,0,50.424,32.4,79.218,104,79.218,197.705v44.4l.69.4a1.71,1.71,0,0,1,.176.133l6.574,3.808v-44.4C86.659,105.367,56.013,32.22,2.579,1.374Z" fill="#fff"/>
              </g>
            </g>
            <path id="Trazado_957" data-name="Trazado 957" d="M394.9,193.49,66.692,4C58.471-.757,50.951-1.115,45.133,2.1V2.064L0,28.194,33.3,41.041V424.578c0,24.592,14.954,53.156,33.395,63.805L380.571,669.6l-7.816,35.483,43.766-25.319-.043-.012c7.222-4,11.818-13.513,11.818-27.128V257.29C428.3,232.7,413.348,204.134,394.9,193.49Z" transform="translate(11.43 368.913)" fill="#161616"/>
            <path id="Trazado_958" data-name="Trazado 958" d="M379.736,455.28l-.043-.018c7.222-4,11.818-13.513,11.818-27.128V32.8c0-10.8-3-22.316-7.8-32.8L0,221.54c5.425,17.933,16.721,34.733,29.907,42.343L343.786,445.109l-7.817,35.483Z" transform="translate(48.215 593.407)" fill="#161616"/>
            <path id="Trazado_959" data-name="Trazado 959" d="M361.608,677.889,33.394,488.393C14.953,477.75,0,449.18,0,424.595V29.251C0,4.659,14.953-6.638,33.394,4.005L361.608,193.5C380.05,204.15,395,232.714,395,257.306V652.643C395,677.235,380.05,688.538,361.608,677.889Z" transform="translate(0 394.796)" fill="#d4ecff"/>
            <path id="Trazado_960" data-name="Trazado 960" d="M353.206,193.417,25,3.927C14.99-1.849,6.115-.989,0,4.775c4.71-.678,10.032.285,15.771,3.6l328.214,189.5c18.441,10.65,33.389,39.213,33.389,63.8V657.009c0,11.249-3.228,19.537-8.391,24.4,10.443-1.5,17.617-11.908,17.617-28.842V257.221C386.6,232.63,371.653,204.066,353.206,193.417Z" transform="translate(17.623 390.431)" fill="#fff"/>
            <path id="Trazado_961" data-name="Trazado 961" d="M342.4,641.884,31.621,462.457C14.155,452.37,0,425.326,0,402.042V27.7C0,4.417,14.155-6.287,31.621,3.793L342.4,183.226c17.46,10.081,31.621,37.13,31.621,60.415V617.976C374.021,641.26,359.86,651.964,342.4,641.884Z" transform="translate(10.492 412.905)" fill="#2d2d2d"/>
            <path id="Trazado_962" data-name="Trazado 962" d="M27.752,9.906c0,8.846-6.212,19.6-13.876,24.029S0,34.777,0,25.925,6.211,6.316,13.876,1.9,27.752,1.055,27.752,9.906Z" transform="translate(404.194 815.703)" fill="#adadad"/>
          </g>
        </g>
        <g id="Grupo_427" data-name="Grupo 427" transform="translate(117.457 607.728)">
          <path id="Trazado_963" data-name="Trazado 963" d="M58.277,106.557l-50.231-29C3.6,74.99,0,68.1,0,62.174V7.051C0,1.124,3.6-1.6,8.046.966l50.231,29c4.45,2.567,8.052,9.451,8.052,15.384v55.123C66.329,106.4,62.727,109.124,58.277,106.557Z" fill="#adadad"/>
          <path id="Trazado_964" data-name="Trazado 964" d="M58.284,106.557l-50.232-29C3.6,74.991,0,68.107,0,62.18V7.057C0,1.123,3.6-1.6,8.052.966L58.284,29.972c4.443,2.567,8.045,9.451,8.045,15.378v55.123C66.329,106.4,62.727,109.124,58.284,106.557Z" transform="translate(87.616 50.583)" fill="#161616"/>
          <path id="Trazado_965" data-name="Trazado 965" d="M58.277,106.557l-50.231-29C3.6,74.99,0,68.1,0,62.174V7.05C0,1.123,3.6-1.6,8.046.966l50.231,29c4.45,2.567,8.052,9.45,8.052,15.383v55.124C66.329,106.4,62.727,109.124,58.277,106.557Z" transform="translate(0 97.926)" fill="#fff"/>
          <path id="Trazado_966" data-name="Trazado 966" d="M58.284,106.557l-50.232-29C3.6,74.99,0,68.107,0,62.179V7.056C0,1.124,3.6-1.6,8.052.966L58.284,29.971c4.443,2.567,8.045,9.451,8.045,15.378v55.123C66.329,106.4,62.727,109.124,58.284,106.557Z" transform="translate(87.616 148.509)" fill="#606060"/>
        </g>
      </g>
    </g>
    <g id="Grupo_430" data-name="Grupo 430" transform="translate(3058.017 9282.435) rotate(11)">
      <g id="Grupo_419" data-name="Grupo 419" transform="translate(0 0)">
        <g id="Grupo_415" data-name="Grupo 415">
          <path id="Trazado_914" data-name="Trazado 914" d="M773.692,965.559l324.05-286.271A44.631,44.631,0,0,0,1113,644.007l.07.035-.131-71.73-18.023,32.2c-1.168-1.178-2.341-2.351-3.62-3.475L428.382,19.053c-26.317-23.1-66.1-25.537-88.857-5.428L20.023,295.871C13.561,285.07,0,262.262,0,262.262l.152,70.164.01,0c-.479,15.817,6.9,32.667,21.76,45.715L684.836,960.126C711.152,983.23,750.935,985.662,773.692,965.559Z" transform="translate(0.006 72.122)" opacity="0.2"/>
          <path id="Trazado_915" data-name="Trazado 915" d="M23.15,19.078,4.487,35.515C2.01,37.7,0,35.384,0,30.343H0C0,25.3,2.01,19.44,4.487,17.26L23.15.823c2.483-2.186,4.492.131,4.492,5.172h0C27.641,11.041,25.632,16.9,23.15,19.078Z" transform="translate(925.775 842.98)" fill="#2d2d2d"/>
          <path id="Trazado_916" data-name="Trazado 916" d="M428.382,19.054c-26.317-23.1-66.1-25.537-88.857-5.434L20.023,295.872C13.561,285.07,0,262.263,0,262.263l.152,70.164.01,0c-.479,15.817,6.9,32.667,21.76,45.71L684.836,960.126a76.9,76.9,0,0,0,47.845,18.959l-.629-693.431Z" transform="translate(0.006 72.122)" fill="#161616"/>
          <path id="Trazado_917" data-name="Trazado 917" d="M15.346,299.894,339.395,13.624c22.757-20.108,62.54-17.676,88.857,5.433l662.909,581.989c26.322,23.1,29.208,58.139,6.451,78.241L773.562,965.559c-22.756,20.108-62.539,17.675-88.857-5.428L21.8,378.136C-4.526,355.032-7.411,320,15.346,299.894Z" fill="#fff"/>
          <path id="Trazado_918" data-name="Trazado 918" d="M773.517,633.989l324.05-286.271c11.739-10.368,16.6-24.71,15-39.334a44.517,44.517,0,0,1-15.243,31.68L773.271,626.329c-22.757,20.108-62.54,17.676-88.857-5.428L21.5,38.906C8.753,27.717,1.557,13.733.056,0c-.78,16.065,6.562,33.282,21.689,46.566L684.66,628.555C710.978,651.665,750.761,654.092,773.517,633.989Z" transform="translate(0.292 339.229)" fill="#fff"/>
          <path id="Trazado_919" data-name="Trazado 919" d="M11.4,285.2,322.784,10.124c16.915-14.941,46.48-13.138,66.044,4.039l653.492,573.725c19.564,17.172,21.709,43.212,4.8,58.153L735.741,921.113c-16.915,14.947-46.485,13.139-66.045-4.033L16.2,343.354C-3.36,326.177-5.511,300.142,11.4,285.2Z" transform="translate(28.898 25.979)" fill="#2d2d2d"/>
        </g>
        <g id="Grupo_417" data-name="Grupo 417" transform="translate(672.178 598.354)">
          <path id="Trazado_920" data-name="Trazado 920" d="M14.025,205.875,233.749,12.352,219.725,0,0,193.524Z" fill="#8e8e8e"/>
          <path id="Trazado_921" data-name="Trazado 921" d="M14.024,110.341,125.28,12.352,111.255,0,0,97.989Z" transform="translate(152.88 39.115)" fill="#8e8e8e"/>
          <path id="Trazado_922" data-name="Trazado 922" d="M14.025,44.132l36.084-31.78L36.084,0,0,31.78Z" transform="translate(98.889 152.876)" fill="#fff" opacity="0.85"/>
          <path id="Trazado_923" data-name="Trazado 923" d="M14.025,44.132l36.083-31.78L36.084,0,0,31.78Z" transform="translate(44.411 200.858)" fill="#fff"/>
          <path id="Trazado_924" data-name="Trazado 924" d="M14.025,91.879l90.294-79.527L90.294,0,0,79.527Z" transform="translate(151.636 19.557)" fill="#fff"/>
          <path id="Trazado_925" data-name="Trazado 925" d="M14.025,91.88l90.293-79.527L90.293,0,0,79.527Z" transform="translate(41.416 116.634)" fill="#8e8e8e"/>
          <g id="Grupo_416" data-name="Grupo 416" transform="translate(21.105 21.118)">
            <path id="Trazado_926" data-name="Trazado 926" d="M3.388,17.4a12.707,12.707,0,0,0,16.361,0,9.358,9.358,0,0,0,0-14.413,12.694,12.694,0,0,0-16.361,0A9.358,9.358,0,0,0,3.388,17.4Z" transform="translate(97.795)" fill="#fff" opacity="0.85"/>
            <path id="Trazado_927" data-name="Trazado 927" d="M3.388,17.4a12.707,12.707,0,0,0,16.362,0,9.358,9.358,0,0,0,0-14.412,12.694,12.694,0,0,0-16.362,0A9.358,9.358,0,0,0,3.388,17.4Z" transform="translate(73.347 21.533)" fill="#fff"/>
            <path id="Trazado_928" data-name="Trazado 928" d="M3.388,17.4A12.7,12.7,0,0,0,19.749,17.4a9.346,9.346,0,0,0,0-14.408,12.694,12.694,0,0,0-16.361,0A9.358,9.358,0,0,0,3.388,17.4Z" transform="translate(48.898 43.066)" fill="#d4ecff"/>
            <path id="Trazado_929" data-name="Trazado 929" d="M3.388,17.4A12.7,12.7,0,0,0,19.749,17.4a9.346,9.346,0,0,0,0-14.407,12.694,12.694,0,0,0-16.362,0A9.358,9.358,0,0,0,3.388,17.4Z" transform="translate(24.449 64.599)" fill="#fff" opacity="0.85"/>
            <path id="Trazado_930" data-name="Trazado 930" d="M3.388,17.4a12.7,12.7,0,0,0,16.361-.005,9.349,9.349,0,0,0,.005-14.407,12.713,12.713,0,0,0-16.366,0A9.358,9.358,0,0,0,3.388,17.4Z" transform="translate(0 86.137)" fill="#fff"/>
          </g>
        </g>
        <g id="Grupo_418" data-name="Grupo 418" transform="translate(139.357 121.144)">
          <path id="Trazado_931" data-name="Trazado 931" d="M14.379,45.248l37-32.584L37,0,0,32.583Z" transform="translate(51.515 146.906)" fill="#fff" opacity="0.85"/>
          <path id="Trazado_932" data-name="Trazado 932" d="M14.378,45.247l37-32.583L37,0,0,32.584Z" transform="translate(0 192.277)" fill="#fff"/>
          <path id="Trazado_933" data-name="Trazado 933" d="M14.378,45.248l37-32.584L36.995,0,0,32.584Z" transform="translate(216.76)" fill="#fff"/>
          <path id="Trazado_934" data-name="Trazado 934" d="M14.379,58.036,65.894,12.664,51.515,0,0,45.371Z" transform="translate(59.761 166.958)" fill="#fff"/>
          <path id="Trazado_935" data-name="Trazado 935" d="M14.38,32.573l22.6-19.909L22.6,0,0,19.909Z" transform="translate(22.766 225.004)" fill="#8e8e8e"/>
        </g>
      </g>
    </g>
    <g id="Grupo_413" data-name="Grupo 413" transform="translate(1769 9501.982)">
      <g id="Server" transform="translate(196.078 821.144)">
        <g id="Grupo_364" data-name="Grupo 364" transform="translate(0 522.998)">
          <path id="Trazado_679" data-name="Trazado 679" d="M852.62,1270.222,539.183,1445.939,225.749,1270.223l313.437-175.716Z" transform="translate(-225.734 -1094.507)" fill="#515151"/>
          <path id="Trazado_680" data-name="Trazado 680" d="M539.215,1336.256l-.022-21.941L245.352,1149.579l-19.608,10.977Z" transform="translate(-225.744 -984.847)" opacity="0.1"/>
          <path id="Trazado_681" data-name="Trazado 681" d="M330.542,1328.949v81.013c7.523,0,15.088-1.594,20.872-4.828l.009,0L487.227,1329l144.2-80.873c6.945-3.886,12.539-13.3,12.539-21.073v-73.8Z" transform="translate(-17.07 -977.54)" fill="#00dfbf"/>
          <path id="Trazado_682" data-name="Trazado 682" d="M330.542,1328.949v81.013c7.523,0,15.088-1.594,20.872-4.828l.009,0L487.227,1329l144.2-80.873c6.945-3.886,12.539-13.3,12.539-21.073v-73.8Z" transform="translate(-17.07 -977.54)" fill="#adadad"/>
          <g id="Grupo_353" data-name="Grupo 353" transform="translate(430.984 213.168)">
            <path id="Trazado_683" data-name="Trazado 683" d="M535.693,1167.157,380.27,1254.291c-5.767,3.234-10.439,11.1-10.439,17.561l0,20.514c0,6.466,4.675,9.087,10.442,5.854L535.7,1211.086c5.767-3.231,10.442-11.094,10.439-17.558v-20.517C546.135,1166.544,541.46,1163.924,535.693,1167.157Z" transform="translate(-369.828 -1165.772)" fill="#2d2d2d"/>
            <g id="Grupo_352" data-name="Grupo 352" transform="translate(11.017 17.311)">
              <path id="Trazado_684" data-name="Trazado 684" d="M429.433,1173.006v9.952a4.467,4.467,0,0,1-2.088,3.515l-2.351,1.316c-1.152.646-2.088.123-2.088-1.172v-9.952a4.467,4.467,0,0,1,2.088-3.512l2.351-1.316C428.5,1171.19,429.433,1171.713,429.433,1173.006Z" transform="translate(-275.156 -1171.559)" fill="#fafafa"/>
              <path id="Trazado_685" data-name="Trazado 685" d="M425.9,1174.981v9.952a4.458,4.458,0,0,1-2.088,3.512l-2.351,1.319c-1.151.646-2.088.123-2.088-1.172v-9.952a4.463,4.463,0,0,1,2.088-3.512l2.351-1.317C424.969,1173.166,425.9,1173.689,425.9,1174.981Z" transform="translate(-282.181 -1167.627)" fill="#fafafa"/>
              <path id="Trazado_686" data-name="Trazado 686" d="M422.374,1176.956v9.951a4.449,4.449,0,0,1-2.088,3.511l-2.348,1.32c-1.155.646-2.088.123-2.088-1.173v-9.952a4.455,4.455,0,0,1,2.088-3.511l2.348-1.316C421.44,1175.14,422.374,1175.663,422.374,1176.956Z" transform="translate(-289.206 -1163.694)" fill="#fafafa"/>
              <path id="Trazado_687" data-name="Trazado 687" d="M418.848,1178.931v9.952a4.448,4.448,0,0,1-2.088,3.511l-2.348,1.32c-1.155.645-2.091.122-2.091-1.173v-9.951a4.458,4.458,0,0,1,2.091-3.511l2.348-1.316C417.914,1177.115,418.848,1177.639,418.848,1178.931Z" transform="translate(-296.233 -1159.761)" fill="#adadad"/>
              <path id="Trazado_688" data-name="Trazado 688" d="M415.32,1180.905v9.953a4.461,4.461,0,0,1-2.088,3.511l-2.351,1.32c-1.152.646-2.088.123-2.088-1.173v-9.952a4.462,4.462,0,0,1,2.088-3.512l2.351-1.316C414.383,1179.09,415.32,1179.614,415.32,1180.905Z" transform="translate(-303.258 -1155.829)" fill="#adadad"/>
              <path id="Trazado_689" data-name="Trazado 689" d="M411.792,1182.88v9.952a4.457,4.457,0,0,1-2.091,3.512l-2.348,1.319c-1.155.646-2.088.123-2.088-1.173v-9.952a4.461,4.461,0,0,1,2.088-3.511l2.351-1.316C410.856,1181.065,411.792,1181.588,411.792,1182.88Z" transform="translate(-310.283 -1151.897)" fill="#fafafa"/>
              <path id="Trazado_690" data-name="Trazado 690" d="M408.261,1184.856v9.952a4.455,4.455,0,0,1-2.088,3.512l-2.348,1.319c-1.154.646-2.088.12-2.088-1.172v-9.952a4.455,4.455,0,0,1,2.088-3.512l2.348-1.317C407.328,1183.041,408.261,1183.564,408.261,1184.856Z" transform="translate(-317.307 -1147.964)" fill="#fafafa"/>
              <path id="Trazado_691" data-name="Trazado 691" d="M404.733,1186.831v9.951a4.456,4.456,0,0,1-2.088,3.512l-2.348,1.319c-1.155.646-2.088.123-2.088-1.172v-9.952a4.454,4.454,0,0,1,2.088-3.511l2.348-1.316C403.8,1185.015,404.733,1185.539,404.733,1186.831Z" transform="translate(-324.332 -1144.031)" fill="#fafafa"/>
              <path id="Trazado_692" data-name="Trazado 692" d="M401.207,1188.806v9.952a4.463,4.463,0,0,1-2.088,3.512l-2.351,1.316c-1.152.649-2.088.123-2.088-1.17v-9.952a4.46,4.46,0,0,1,2.088-3.511l2.351-1.317C400.271,1186.99,401.207,1187.513,401.207,1188.806Z" transform="translate(-331.359 -1140.098)" fill="#fafafa"/>
              <path id="Trazado_693" data-name="Trazado 693" d="M397.679,1190.781v9.952a4.461,4.461,0,0,1-2.088,3.511l-2.351,1.319c-1.152.646-2.088.12-2.088-1.172v-9.951a4.463,4.463,0,0,1,2.088-3.512l2.351-1.316C396.743,1188.963,397.679,1189.489,397.679,1190.781Z" transform="translate(-338.384 -1136.167)" fill="#fafafa"/>
              <path id="Trazado_694" data-name="Trazado 694" d="M394.151,1192.756l0,9.951a4.455,4.455,0,0,1-2.088,3.512l-2.348,1.316c-1.154.65-2.088.123-2.088-1.169v-9.951a4.454,4.454,0,0,1,2.088-3.511l2.348-1.316C393.215,1190.938,394.151,1191.465,394.151,1192.756Z" transform="translate(-345.409 -1132.234)" fill="#fafafa"/>
              <path id="Trazado_695" data-name="Trazado 695" d="M390.62,1194.731v9.953a4.454,4.454,0,0,1-2.088,3.512l-2.348,1.316c-1.155.649-2.088.122-2.088-1.17v-9.952a4.453,4.453,0,0,1,2.088-3.511l2.348-1.317C389.687,1192.913,390.62,1193.439,390.62,1194.731Z" transform="translate(-352.434 -1128.302)" fill="#fafafa"/>
              <path id="Trazado_696" data-name="Trazado 696" d="M387.094,1196.706v9.952a4.462,4.462,0,0,1-2.088,3.511l-2.351,1.316c-1.152.646-2.088.123-2.088-1.169v-9.952a4.461,4.461,0,0,1,2.088-3.511l2.351-1.316C386.158,1194.888,387.094,1195.414,387.094,1196.706Z" transform="translate(-359.461 -1124.369)" fill="#adadad"/>
              <path id="Trazado_697" data-name="Trazado 697" d="M383.566,1198.681v9.952a4.461,4.461,0,0,1-2.088,3.511l-2.351,1.317c-1.152.648-2.088.122-2.088-1.171v-9.951a4.464,4.464,0,0,1,2.088-3.512l2.351-1.316C382.629,1196.863,383.566,1197.39,383.566,1198.681Z" transform="translate(-366.486 -1120.436)" fill="#fafafa"/>
              <path id="Trazado_698" data-name="Trazado 698" d="M380.038,1200.657v9.952a4.457,4.457,0,0,1-2.091,3.512l-2.348,1.316c-1.155.649-2.088.122-2.088-1.17v-9.951a4.455,4.455,0,0,1,2.088-3.512l2.348-1.319C379.1,1198.838,380.038,1199.365,380.038,1200.657Z" transform="translate(-373.511 -1116.505)" fill="#fafafa"/>
            </g>
          </g>
          <path id="Trazado_699" data-name="Trazado 699" d="M225.744,1153.249v73.8c0,7.774,5.641,17.187,12.539,21.073L362.9,1317.992l155.432,87.145c5.788,3.234,13.311,4.825,20.884,4.825v-81.013Z" transform="translate(-225.743 -977.54)" fill="#bfbfbf"/>
          <g id="Grupo_357" data-name="Grupo 357" transform="translate(39.162 224.232)">
            <path id="Trazado_700" data-name="Trazado 700" d="M249.278,1170.856l77.065,43.205c5.767,3.233,10.442,11.1,10.442,17.561v20.517c0,6.464-4.675,9.084-10.442,5.853l-77.065-43.208c-5.767-3.234-10.442-11.094-10.442-17.561V1176.71C238.836,1170.243,243.511,1167.623,249.278,1170.856Z" transform="translate(-238.836 -1169.471)" fill="#fff" opacity="0.75"/>
            <g id="Grupo_356" data-name="Grupo 356" transform="translate(17.899 21.252)">
              <g id="Grupo_354" data-name="Grupo 354">
                <path id="Trazado_701" data-name="Trazado 701" d="M245.646,1179.843l4.789-2.683,0,0,.036-.019,0,.006c1.639-.9,3.889-.763,6.377.632,5.013,2.811,9.075,9.644,9.075,15.264,0,2.805-1.014,4.777-2.65,5.7v0l-.006,0h0l-4.454,2.479-.8-1.3a9.36,9.36,0,0,1-2.605-.984c-5.01-2.812-9.072-9.644-9.075-15.264a9.234,9.234,0,0,1,.284-2.249Z" transform="translate(-243.175 -1176.576)" fill="#00dfbf"/>
                <path id="Trazado_702" data-name="Trazado 702" d="M245.646,1179.843l4.789-2.683,0,0,.036-.019,0,.006c1.639-.9,3.889-.763,6.377.632,5.013,2.811,9.075,9.644,9.075,15.264,0,2.805-1.014,4.777-2.65,5.7v0l-.006,0h0l-4.454,2.479-.8-1.3a9.36,9.36,0,0,1-2.605-.984c-5.01-2.812-9.072-9.644-9.075-15.264a9.234,9.234,0,0,1,.284-2.249Z" transform="translate(-243.175 -1176.576)" opacity="0.2"/>
                <path id="Trazado_703" data-name="Trazado 703" d="M253.9,1178.638c5.013,2.808,9.075,9.644,9.075,15.264s-4.062,7.9-9.075,5.088-9.075-9.643-9.075-15.264S248.882,1175.826,253.9,1178.638Z" transform="translate(-244.82 -1174.868)" fill="#00dfbf"/>
              </g>
              <g id="Grupo_355" data-name="Grupo 355" transform="translate(39.397 22.078)">
                <path id="Trazado_704" data-name="Trazado 704" d="M258.817,1187.224l4.789-2.684,0,0,.036-.018,0,.005c1.639-.9,3.889-.762,6.377.631,5.013,2.809,9.075,9.644,9.075,15.264,0,2.806-1.014,4.777-2.65,5.7h0l-.006.006h0l-4.454,2.476-.8-1.3a9.459,9.459,0,0,1-2.605-.98c-5.01-2.812-9.075-9.644-9.075-15.264a9.3,9.3,0,0,1,.284-2.253Z" transform="translate(-256.346 -1183.957)" fill="#00dfbf"/>
                <path id="Trazado_705" data-name="Trazado 705" d="M258.817,1187.224l4.789-2.684,0,0,.036-.018,0,.005c1.639-.9,3.889-.762,6.377.631,5.013,2.809,9.075,9.644,9.075,15.264,0,2.806-1.014,4.777-2.65,5.7h0l-.006.006h0l-4.454,2.476-.8-1.3a9.459,9.459,0,0,1-2.605-.98c-5.01-2.812-9.075-9.644-9.075-15.264a9.3,9.3,0,0,1,.284-2.253Z" transform="translate(-256.346 -1183.957)" opacity="0.2"/>
                <path id="Trazado_706" data-name="Trazado 706" d="M267.066,1186.019c5.013,2.809,9.075,9.644,9.075,15.264s-4.062,7.9-9.075,5.085-9.075-9.644-9.075-15.261S262.053,1183.207,267.066,1186.019Z" transform="translate(-257.991 -1182.249)" fill="#00dfbf"/>
              </g>
            </g>
          </g>
          <g id="Grupo_361" data-name="Grupo 361" transform="translate(39.162 224.232)">
            <path id="Trazado_707" data-name="Trazado 707" d="M249.278,1170.856l77.065,43.205c5.767,3.233,10.442,11.1,10.442,17.561v20.517c0,6.464-4.675,9.084-10.442,5.853l-77.065-43.208c-5.767-3.234-10.442-11.094-10.442-17.561V1176.71C238.836,1170.243,243.511,1167.623,249.278,1170.856Z" transform="translate(-238.836 -1169.471)" fill="#515151"/>
            <g id="Grupo_360" data-name="Grupo 360" transform="translate(17.899 21.252)">
              <g id="Grupo_358" data-name="Grupo 358">
                <path id="Trazado_708" data-name="Trazado 708" d="M245.646,1179.843l4.789-2.683,0,0,.036-.019,0,.006c1.639-.9,3.889-.763,6.377.632,5.013,2.811,9.075,9.644,9.075,15.264,0,2.805-1.014,4.777-2.65,5.7v0l-.006,0h0l-4.454,2.479-.8-1.3a9.36,9.36,0,0,1-2.605-.984c-5.01-2.812-9.072-9.644-9.075-15.264a9.234,9.234,0,0,1,.284-2.249Z" transform="translate(-243.175 -1176.576)" fill="#686868"/>
                <path id="Trazado_709" data-name="Trazado 709" d="M253.9,1178.638c5.013,2.808,9.075,9.644,9.075,15.264s-4.062,7.9-9.075,5.088-9.075-9.643-9.075-15.264S248.882,1175.826,253.9,1178.638Z" transform="translate(-244.82 -1174.868)" fill="#2d2d2d"/>
              </g>
              <g id="Grupo_359" data-name="Grupo 359" transform="translate(39.397 22.078)">
                <path id="Trazado_710" data-name="Trazado 710" d="M258.817,1187.224l4.789-2.684,0,0,.036-.018,0,.005c1.639-.9,3.889-.762,6.377.631,5.013,2.809,9.075,9.644,9.075,15.264,0,2.806-1.014,4.777-2.65,5.7h0l-.006.006h0l-4.454,2.476-.8-1.3a9.459,9.459,0,0,1-2.605-.98c-5.01-2.812-9.075-9.644-9.075-15.264a9.3,9.3,0,0,1,.284-2.253Z" transform="translate(-256.346 -1183.957)" fill="#686868"/>
                <path id="Trazado_711" data-name="Trazado 711" d="M267.066,1186.019c5.013,2.809,9.075,9.644,9.075,15.264s-4.062,7.9-9.075,5.085-9.075-9.644-9.075-15.261S262.053,1183.207,267.066,1186.019Z" transform="translate(-257.991 -1182.249)" fill="#2d2d2d"/>
              </g>
            </g>
          </g>
          <g id="Grupo_362" data-name="Grupo 362" transform="translate(382.907 335.958)">
            <path id="Trazado_712" data-name="Trazado 712" d="M374.038,1210.09l-4.789-2.683,0,0-.033-.018,0,.006c-1.642-.9-3.892-.762-6.38.631-5.01,2.809-9.075,9.644-9.075,15.264,0,2.806,1.014,4.777,2.65,5.7v0l.009,0h0l4.454,2.477.8-1.3a9.293,9.293,0,0,0,2.6-.981c5.01-2.811,9.075-9.644,9.075-15.264a9.142,9.142,0,0,0-.284-2.252Z" transform="translate(-353.755 -1206.823)" fill="#686868"/>
            <path id="Trazado_713" data-name="Trazado 713" d="M364.369,1208.885c-5.01,2.808-9.075,9.644-9.075,15.264s4.062,7.9,9.075,5.088,9.075-9.644,9.075-15.264S369.383,1206.073,364.369,1208.885Z" transform="translate(-350.691 -1205.115)" fill="#00dfbf"/>
            <path id="Trazado_714" data-name="Trazado 714" d="M364.369,1208.885c-5.01,2.808-9.075,9.644-9.075,15.264s4.062,7.9,9.075,5.088,9.075-9.644,9.075-15.264S369.383,1206.073,364.369,1208.885Z" transform="translate(-350.691 -1205.115)" fill="#2d2d2d"/>
          </g>
          <g id="Grupo_363" data-name="Grupo 363" transform="translate(343.51 358.036)">
            <path id="Trazado_715" data-name="Trazado 715" d="M360.867,1217.471l-4.789-2.683,0,0-.033-.018,0,.006c-1.642-.9-3.892-.763-6.38.631-5.01,2.808-9.075,9.644-9.075,15.264,0,2.8,1.014,4.773,2.65,5.7h0l.009.006h0l4.454,2.477.8-1.3a9.459,9.459,0,0,0,2.6-.981c5.01-2.812,9.075-9.643,9.075-15.263a9.155,9.155,0,0,0-.284-2.253Z" transform="translate(-340.584 -1214.204)" fill="#686868"/>
            <path id="Trazado_716" data-name="Trazado 716" d="M351.2,1216.266c-5.01,2.808-9.076,9.643-9.076,15.261s4.062,7.9,9.076,5.088,9.075-9.644,9.075-15.26S356.212,1213.454,351.2,1216.266Z" transform="translate(-337.52 -1212.496)" fill="#00dfbf"/>
            <path id="Trazado_717" data-name="Trazado 717" d="M351.2,1216.266c-5.01,2.808-9.076,9.643-9.076,15.261s4.062,7.9,9.076,5.088,9.075-9.644,9.075-15.26S356.212,1213.454,351.2,1216.266Z" transform="translate(-337.52 -1212.496)" fill="#2d2d2d"/>
          </g>
        </g>
        <g id="Grupo_374" data-name="Grupo 374" transform="translate(0.014 391.212)">
          <path id="Trazado_718" data-name="Trazado 718" d="M852.62,1226.164,539.183,1401.881,225.749,1226.166l313.437-175.717Z" transform="translate(-225.748 -1050.449)" fill="#515151"/>
          <path id="Trazado_719" data-name="Trazado 719" d="M539.183,1292.222v-21.966L245.342,1105.521l-19.593,10.986Z" transform="translate(-225.748 -940.79)" opacity="0.1"/>
          <path id="Trazado_720" data-name="Trazado 720" d="M643.971,1197.052,330.534,1372.769V1284.91l313.437-175.717Z" transform="translate(-17.099 -933.478)" fill="#00dfbf"/>
          <path id="Trazado_721" data-name="Trazado 721" d="M643.971,1197.052,330.534,1372.769V1284.91l313.437-175.717Z" transform="translate(-17.099 -933.478)" fill="#adadad"/>
          <g id="Grupo_366" data-name="Grupo 366" transform="translate(430.97 213.193)">
            <path id="Trazado_722" data-name="Trazado 722" d="M535.693,1123.108,380.27,1210.242c-5.767,3.233-10.439,11.094-10.439,17.561l0,20.513c0,6.467,4.675,9.088,10.442,5.854L535.7,1167.037c5.767-3.233,10.442-11.094,10.439-17.562v-20.516C546.135,1122.495,541.46,1119.874,535.693,1123.108Z" transform="translate(-369.828 -1121.723)" fill="#2d2d2d"/>
            <g id="Grupo_365" data-name="Grupo 365" transform="translate(11.017 17.312)">
              <path id="Trazado_723" data-name="Trazado 723" d="M429.433,1128.957v9.952a4.461,4.461,0,0,1-2.088,3.512l-2.351,1.316c-1.152.649-2.088.123-2.088-1.17v-9.952a4.461,4.461,0,0,1,2.088-3.511l2.351-1.317C428.5,1127.141,429.433,1127.665,429.433,1128.957Z" transform="translate(-275.156 -1127.51)" fill="#fafafa"/>
              <path id="Trazado_724" data-name="Trazado 724" d="M425.9,1130.932v9.952a4.462,4.462,0,0,1-2.088,3.511l-2.351,1.316c-1.151.649-2.088.123-2.088-1.169v-9.952a4.463,4.463,0,0,1,2.088-3.511l2.351-1.316C424.969,1129.116,425.9,1129.639,425.9,1130.932Z" transform="translate(-282.181 -1123.578)" fill="#adadad"/>
              <path id="Trazado_725" data-name="Trazado 725" d="M422.374,1132.907v9.952a4.455,4.455,0,0,1-2.088,3.512l-2.348,1.316c-1.155.649-2.088.122-2.088-1.17v-9.951a4.456,4.456,0,0,1,2.088-3.512l2.348-1.316C421.44,1131.089,422.374,1131.616,422.374,1132.907Z" transform="translate(-289.206 -1119.646)" fill="#fafafa"/>
              <path id="Trazado_726" data-name="Trazado 726" d="M418.848,1134.882v9.951a4.455,4.455,0,0,1-2.088,3.512l-2.348,1.316c-1.155.649-2.091.123-2.091-1.17v-9.952a4.458,4.458,0,0,1,2.091-3.511l2.348-1.316C417.914,1133.064,418.848,1133.591,418.848,1134.882Z" transform="translate(-296.233 -1115.714)" fill="#adadad"/>
              <path id="Trazado_727" data-name="Trazado 727" d="M415.32,1136.858v9.952a4.462,4.462,0,0,1-2.088,3.511l-2.351,1.316c-1.152.649-2.088.123-2.088-1.17v-9.951a4.463,4.463,0,0,1,2.088-3.512l2.351-1.32C414.383,1135.04,415.32,1135.567,415.32,1136.858Z" transform="translate(-303.258 -1111.781)" fill="#adadad"/>
              <path id="Trazado_728" data-name="Trazado 728" d="M411.792,1138.832v9.953a4.458,4.458,0,0,1-2.091,3.511l-2.348,1.317c-1.155.645-2.088.122-2.088-1.171v-9.951a4.462,4.462,0,0,1,2.088-3.512l2.351-1.316C410.856,1137.014,411.792,1137.541,411.792,1138.832Z" transform="translate(-310.283 -1107.849)" fill="#fafafa"/>
              <path id="Trazado_729" data-name="Trazado 729" d="M408.261,1140.809v9.951a4.453,4.453,0,0,1-2.088,3.511l-2.348,1.317c-1.154.646-2.088.123-2.088-1.169v-9.952a4.455,4.455,0,0,1,2.088-3.512l2.348-1.318C407.328,1138.99,408.261,1139.516,408.261,1140.809Z" transform="translate(-317.307 -1103.917)" fill="#fafafa"/>
              <path id="Trazado_730" data-name="Trazado 730" d="M404.733,1142.783v9.952a4.454,4.454,0,0,1-2.088,3.511l-2.348,1.316c-1.155.646-2.088.123-2.088-1.169v-9.951a4.455,4.455,0,0,1,2.088-3.512l2.348-1.319C403.8,1140.965,404.733,1141.491,404.733,1142.783Z" transform="translate(-324.332 -1099.984)" fill="#fafafa"/>
              <path id="Trazado_731" data-name="Trazado 731" d="M401.207,1144.758v9.952a4.462,4.462,0,0,1-2.088,3.512l-2.351,1.316c-1.152.646-2.088.123-2.088-1.17v-9.951a4.461,4.461,0,0,1,2.088-3.512l2.351-1.319C400.271,1142.94,401.207,1143.463,401.207,1144.758Z" transform="translate(-331.359 -1096.052)" fill="#adadad"/>
              <path id="Trazado_732" data-name="Trazado 732" d="M397.679,1146.734v9.951a4.462,4.462,0,0,1-2.088,3.511l-2.351,1.316c-1.152.646-2.088.123-2.088-1.169v-9.952a4.462,4.462,0,0,1,2.088-3.511l2.351-1.319C396.743,1144.915,397.679,1145.439,397.679,1146.734Z" transform="translate(-338.384 -1092.119)" fill="#fafafa"/>
              <path id="Trazado_733" data-name="Trazado 733" d="M394.151,1148.708l0,9.952a4.454,4.454,0,0,1-2.088,3.512l-2.348,1.316c-1.154.646-2.088.123-2.088-1.17v-9.951a4.451,4.451,0,0,1,2.088-3.512l2.348-1.319C393.215,1146.89,394.151,1147.414,394.151,1148.708Z" transform="translate(-345.409 -1088.186)" fill="#adadad"/>
              <path id="Trazado_734" data-name="Trazado 734" d="M390.62,1150.684v9.951a4.453,4.453,0,0,1-2.088,3.511l-2.348,1.316c-1.155.646-2.088.123-2.088-1.169v-9.952a4.456,4.456,0,0,1,2.088-3.512l2.348-1.319C389.687,1148.865,390.62,1149.389,390.62,1150.684Z" transform="translate(-352.434 -1084.253)" fill="#fafafa"/>
              <path id="Trazado_735" data-name="Trazado 735" d="M387.094,1152.658v9.952a4.462,4.462,0,0,1-2.088,3.512l-2.351,1.316c-1.152.646-2.088.123-2.088-1.169v-9.952a4.457,4.457,0,0,1,2.088-3.511l2.351-1.319C386.158,1150.84,387.094,1151.364,387.094,1152.658Z" transform="translate(-359.461 -1080.321)" fill="#adadad"/>
              <path id="Trazado_736" data-name="Trazado 736" d="M383.566,1154.633v9.952a4.464,4.464,0,0,1-2.088,3.512l-2.351,1.315c-1.152.646-2.088.123-2.088-1.169v-9.952a4.458,4.458,0,0,1,2.088-3.512l2.351-1.32C382.629,1152.815,383.566,1153.339,383.566,1154.633Z" transform="translate(-366.486 -1076.388)" fill="#fafafa"/>
              <path id="Trazado_737" data-name="Trazado 737" d="M380.038,1156.609v9.948a4.458,4.458,0,0,1-2.091,3.515l-2.348,1.316c-1.155.646-2.088.123-2.088-1.169v-9.952a4.451,4.451,0,0,1,2.088-3.511l2.348-1.319C379.1,1154.79,380.038,1155.313,380.038,1156.609Z" transform="translate(-373.511 -1072.456)" fill="#fafafa"/>
            </g>
          </g>
          <path id="Trazado_738" data-name="Trazado 738" d="M539.183,1372.767,225.748,1197.052v-87.858l313.435,175.715Z" transform="translate(-225.748 -933.477)" fill="#bfbfbf"/>
          <g id="Grupo_370" data-name="Grupo 370" transform="translate(39.148 224.132)">
            <path id="Trazado_739" data-name="Trazado 739" d="M249.278,1126.765l77.065,43.205c5.767,3.234,10.442,11.1,10.442,17.561v20.517c0,6.464-4.675,9.084-10.442,5.854l-77.065-43.208c-5.767-3.234-10.442-11.095-10.442-17.562v-20.513C238.836,1126.152,243.511,1123.532,249.278,1126.765Z" transform="translate(-238.836 -1125.38)" fill="#515151"/>
            <g id="Grupo_369" data-name="Grupo 369" transform="translate(17.899 21.253)">
              <g id="Grupo_367" data-name="Grupo 367">
                <path id="Trazado_740" data-name="Trazado 740" d="M245.646,1135.751l4.789-2.683h0l.036-.021,0,.006c1.639-.9,3.889-.763,6.377.631,5.013,2.809,9.075,9.644,9.075,15.264,0,2.806-1.014,4.777-2.65,5.7v0l-.006,0h0l-4.454,2.477-.8-1.305a9.253,9.253,0,0,1-2.605-.981c-5.01-2.808-9.072-9.643-9.075-15.264a9.243,9.243,0,0,1,.284-2.25Z" transform="translate(-243.175 -1132.485)" fill="#686868"/>
                <path id="Trazado_741" data-name="Trazado 741" d="M253.9,1134.546c5.013,2.809,9.075,9.644,9.075,15.265s-4.062,7.9-9.075,5.087-9.075-9.643-9.075-15.264S248.882,1131.737,253.9,1134.546Z" transform="translate(-244.82 -1130.778)" fill="#2d2d2d"/>
              </g>
              <g id="Grupo_368" data-name="Grupo 368" transform="translate(39.397 22.076)">
                <path id="Trazado_742" data-name="Trazado 742" d="M258.817,1143.133l4.789-2.683,0,0,.036-.018,0,.006c1.639-.9,3.889-.766,6.377.631,5.013,2.809,9.075,9.643,9.075,15.264,0,2.8-1.014,4.777-2.65,5.7h0l-.006.007h0l-4.454,2.476-.8-1.3a9.446,9.446,0,0,1-2.605-.981c-5.01-2.812-9.075-9.644-9.075-15.264a9.3,9.3,0,0,1,.284-2.252Z" transform="translate(-256.346 -1139.865)" fill="#686868"/>
                <path id="Trazado_743" data-name="Trazado 743" d="M267.066,1141.927c5.013,2.809,9.075,9.643,9.075,15.261s-4.062,7.9-9.075,5.087-9.075-9.643-9.075-15.26S262.053,1139.116,267.066,1141.927Z" transform="translate(-257.991 -1138.157)" fill="#2d2d2d"/>
              </g>
            </g>
          </g>
          <path id="Trazado_744" data-name="Trazado 744" d="M604.792,1167.873l0-21.965L330.534,1299.663v21.962Z" transform="translate(-17.099 -860.372)" fill="#2d2d2d"/>
          <g id="Grupo_371" data-name="Grupo 371" transform="translate(19.584 274.554)">
            <path id="Trazado_745" data-name="Trazado 745" d="M232.3,1142.237l.01,21.965,293.841,164.735v-21.963Z" transform="translate(-232.296 -1142.237)" fill="#00dfbf"/>
            <path id="Trazado_746" data-name="Trazado 746" d="M232.3,1142.237l.01,21.965,293.841,164.735v-21.963Z" transform="translate(-232.296 -1142.237)" fill="#2d2d2d"/>
          </g>
          <g id="Grupo_372" data-name="Grupo 372" transform="translate(382.893 335.962)">
            <path id="Trazado_747" data-name="Trazado 747" d="M374.038,1166.032l-4.789-2.684h0l-.033-.021,0,.006c-1.642-.9-3.892-.763-6.38.631-5.01,2.812-9.075,9.643-9.075,15.264,0,2.806,1.014,4.777,2.65,5.7v0l.009,0v0l4.454,2.476.8-1.3a9.4,9.4,0,0,0,2.6-.984c5.01-2.809,9.075-9.644,9.075-15.264a9.1,9.1,0,0,0-.284-2.25Z" transform="translate(-353.755 -1162.766)" fill="#686868"/>
            <path id="Trazado_748" data-name="Trazado 748" d="M364.369,1164.827c-5.01,2.812-9.075,9.644-9.075,15.263s4.062,7.9,9.075,5.088,9.075-9.644,9.075-15.264S369.383,1162.018,364.369,1164.827Z" transform="translate(-350.691 -1161.059)" fill="#00dfbf"/>
            <path id="Trazado_749" data-name="Trazado 749" d="M364.369,1164.827c-5.01,2.812-9.075,9.644-9.075,15.263s4.062,7.9,9.075,5.088,9.075-9.644,9.075-15.264S369.383,1162.018,364.369,1164.827Z" transform="translate(-350.691 -1161.059)" fill="#2d2d2d"/>
          </g>
          <g id="Grupo_373" data-name="Grupo 373" transform="translate(343.496 358.039)">
            <path id="Trazado_750" data-name="Trazado 750" d="M360.867,1173.414l-4.789-2.684,0,0-.033-.019,0,.006c-1.642-.9-3.892-.763-6.38.63-5.01,2.809-9.075,9.644-9.075,15.264,0,2.806,1.014,4.778,2.65,5.7h0l.009.006h0l4.454,2.476.8-1.3a9.368,9.368,0,0,0,2.6-.982c5.01-2.811,9.075-9.643,9.075-15.263a9.142,9.142,0,0,0-.284-2.252Z" transform="translate(-340.584 -1170.147)" fill="#686868"/>
            <path id="Trazado_751" data-name="Trazado 751" d="M351.2,1172.209c-5.01,2.808-9.076,9.643-9.076,15.263s4.062,7.9,9.076,5.088,9.075-9.644,9.075-15.264S356.212,1169.4,351.2,1172.209Z" transform="translate(-337.52 -1168.439)" fill="#00dfbf"/>
            <path id="Trazado_752" data-name="Trazado 752" d="M351.2,1172.209c-5.01,2.808-9.076,9.643-9.076,15.263s4.062,7.9,9.076,5.088,9.075-9.644,9.075-15.264S356.212,1169.4,351.2,1172.209Z" transform="translate(-337.52 -1168.439)" fill="#2d2d2d"/>
          </g>
        </g>
        <g id="Grupo_384" data-name="Grupo 384" transform="translate(0.014 259.425)">
          <path id="Trazado_753" data-name="Trazado 753" d="M852.62,1182.106,539.183,1357.823,225.749,1182.108l313.437-175.717Z" transform="translate(-225.748 -1006.391)" fill="#515151"/>
          <path id="Trazado_754" data-name="Trazado 754" d="M539.183,1248.164V1226.2L245.342,1061.463l-19.593,10.986Z" transform="translate(-225.748 -896.732)" opacity="0.1"/>
          <path id="Trazado_755" data-name="Trazado 755" d="M643.971,1152.993,330.534,1328.709v-87.858l313.437-175.716Z" transform="translate(-17.099 -889.42)" fill="#00dfbf"/>
          <path id="Trazado_756" data-name="Trazado 756" d="M643.971,1152.993,330.534,1328.709v-87.858l313.437-175.716Z" transform="translate(-17.099 -889.42)" fill="#adadad"/>
          <g id="Grupo_376" data-name="Grupo 376" transform="translate(430.97 213.069)">
            <path id="Trazado_757" data-name="Trazado 757" d="M535.693,1079.008,380.27,1166.141c-5.767,3.234-10.439,11.1-10.439,17.562l0,20.513c0,6.468,4.675,9.088,10.442,5.854L535.7,1122.936c5.767-3.232,10.442-11.094,10.439-17.561v-20.517C546.135,1078.395,541.46,1075.774,535.693,1079.008Z" transform="translate(-369.828 -1077.623)" fill="#2d2d2d"/>
            <g id="Grupo_375" data-name="Grupo 375" transform="translate(11.017 17.31)">
              <path id="Trazado_758" data-name="Trazado 758" d="M429.433,1084.858v9.952a4.462,4.462,0,0,1-2.088,3.512l-2.351,1.316c-1.152.649-2.088.123-2.088-1.17v-9.952a4.461,4.461,0,0,1,2.088-3.511l2.351-1.316C428.5,1083.039,429.433,1083.566,429.433,1084.858Z" transform="translate(-275.156 -1083.41)" fill="#fafafa"/>
              <path id="Trazado_759" data-name="Trazado 759" d="M425.9,1086.832v9.952a4.462,4.462,0,0,1-2.088,3.511l-2.351,1.317c-1.151.648-2.088.122-2.088-1.17v-9.952a4.464,4.464,0,0,1,2.088-3.512l2.351-1.316C424.969,1085.014,425.9,1085.54,425.9,1086.832Z" transform="translate(-282.181 -1079.477)" fill="#fafafa"/>
              <path id="Trazado_760" data-name="Trazado 760" d="M422.374,1088.809v9.952a4.454,4.454,0,0,1-2.088,3.511l-2.348,1.316c-1.155.649-2.088.123-2.088-1.169v-9.952a4.455,4.455,0,0,1,2.088-3.512l2.348-1.318C421.44,1086.99,422.374,1087.516,422.374,1088.809Z" transform="translate(-289.206 -1075.546)" fill="#fafafa"/>
              <path id="Trazado_761" data-name="Trazado 761" d="M418.848,1090.783v9.952a4.453,4.453,0,0,1-2.088,3.511l-2.348,1.316c-1.155.646-2.091.123-2.091-1.169v-9.952a4.456,4.456,0,0,1,2.091-3.511l2.348-1.316C417.914,1088.964,418.848,1089.49,418.848,1090.783Z" transform="translate(-296.233 -1071.612)" fill="#fafafa"/>
              <path id="Trazado_762" data-name="Trazado 762" d="M415.32,1092.759v9.951a4.463,4.463,0,0,1-2.088,3.512l-2.351,1.316c-1.152.646-2.088.122-2.088-1.17v-9.952a4.462,4.462,0,0,1,2.088-3.511l2.351-1.319C414.383,1090.94,415.32,1091.464,415.32,1092.759Z" transform="translate(-303.258 -1067.681)" fill="#adadad"/>
              <path id="Trazado_763" data-name="Trazado 763" d="M411.792,1094.734v9.951a4.457,4.457,0,0,1-2.091,3.511l-2.348,1.316c-1.155.647-2.088.123-2.088-1.169v-9.952a4.463,4.463,0,0,1,2.088-3.512l2.351-1.319C410.856,1092.915,411.792,1093.441,411.792,1094.734Z" transform="translate(-310.283 -1063.747)" fill="#adadad"/>
              <path id="Trazado_764" data-name="Trazado 764" d="M408.261,1096.709v9.952a4.453,4.453,0,0,1-2.088,3.511l-2.348,1.317c-1.154.645-2.088.122-2.088-1.17v-9.951a4.457,4.457,0,0,1,2.088-3.512l2.348-1.319C407.328,1094.89,408.261,1095.414,408.261,1096.709Z" transform="translate(-317.307 -1059.816)" fill="#fafafa"/>
              <path id="Trazado_765" data-name="Trazado 765" d="M404.733,1098.684v9.952a4.453,4.453,0,0,1-2.088,3.511l-2.348,1.317c-1.155.646-2.088.123-2.088-1.17v-9.952a4.455,4.455,0,0,1,2.088-3.512l2.348-1.318C403.8,1096.865,404.733,1097.389,404.733,1098.684Z" transform="translate(-324.332 -1055.883)" fill="#fafafa"/>
              <path id="Trazado_766" data-name="Trazado 766" d="M401.207,1100.659v9.952a4.462,4.462,0,0,1-2.088,3.512l-2.351,1.316c-1.152.646-2.088.123-2.088-1.169v-9.952a4.456,4.456,0,0,1,2.088-3.511l2.351-1.32C400.271,1098.84,401.207,1099.364,401.207,1100.659Z" transform="translate(-331.359 -1051.95)" fill="#fafafa"/>
              <path id="Trazado_767" data-name="Trazado 767" d="M397.679,1102.633v9.952a4.463,4.463,0,0,1-2.088,3.512l-2.351,1.316c-1.152.646-2.088.123-2.088-1.169v-9.952a4.457,4.457,0,0,1,2.088-3.511l2.351-1.32C396.743,1100.815,397.679,1101.338,397.679,1102.633Z" transform="translate(-338.384 -1048.017)" fill="#adadad"/>
              <path id="Trazado_768" data-name="Trazado 768" d="M394.151,1104.609l0,9.951a4.454,4.454,0,0,1-2.088,3.512l-2.348,1.316c-1.154.647-2.088.123-2.088-1.17v-9.951a4.449,4.449,0,0,1,2.088-3.512l2.348-1.319C393.215,1102.79,394.151,1103.313,394.151,1104.609Z" transform="translate(-345.409 -1044.085)" fill="#fafafa"/>
              <path id="Trazado_769" data-name="Trazado 769" d="M390.62,1106.584v9.952a4.457,4.457,0,0,1-2.088,3.511l-2.348,1.316c-1.155.646-2.088.123-2.088-1.169v-9.951a4.459,4.459,0,0,1,2.088-3.515l2.348-1.316C389.687,1104.765,390.62,1105.289,390.62,1106.584Z" transform="translate(-352.434 -1040.152)" fill="#fafafa"/>
              <path id="Trazado_770" data-name="Trazado 770" d="M387.094,1108.559v9.948a4.463,4.463,0,0,1-2.088,3.515l-2.351,1.317c-1.152.646-2.088.123-2.088-1.17v-9.952a4.459,4.459,0,0,1,2.088-3.512l2.351-1.319C386.158,1106.74,387.094,1107.264,387.094,1108.559Z" transform="translate(-359.461 -1036.219)" fill="#adadad"/>
              <path id="Trazado_771" data-name="Trazado 771" d="M383.566,1110.531v9.955a4.466,4.466,0,0,1-2.088,3.511l-2.351,1.316c-1.152.646-2.088.123-2.088-1.169v-9.952a4.468,4.468,0,0,1,2.088-3.515l2.351-1.315C382.629,1108.715,383.566,1109.238,383.566,1110.531Z" transform="translate(-366.486 -1032.287)" fill="#fafafa"/>
              <path id="Trazado_772" data-name="Trazado 772" d="M380.038,1112.509v9.948a4.462,4.462,0,0,1-2.091,3.514l-2.348,1.317c-1.155.646-2.088.123-2.088-1.172v-9.949a4.462,4.462,0,0,1,2.088-3.515l2.348-1.316C379.1,1110.69,380.038,1111.214,380.038,1112.509Z" transform="translate(-373.511 -1028.355)" fill="#adadad"/>
            </g>
          </g>
          <path id="Trazado_773" data-name="Trazado 773" d="M539.183,1328.709,225.748,1152.993v-87.857L539.183,1240.85Z" transform="translate(-225.748 -889.419)" fill="#bfbfbf"/>
          <g id="Grupo_380" data-name="Grupo 380" transform="translate(39.148 224.113)">
            <path id="Trazado_774" data-name="Trazado 774" d="M249.278,1082.7l77.065,43.208c5.767,3.231,10.442,11.094,10.442,17.558v20.517c0,6.464-4.675,9.087-10.442,5.854l-77.065-43.208c-5.767-3.23-10.442-11.094-10.442-17.558v-20.517C238.836,1082.089,243.511,1079.467,249.278,1082.7Z" transform="translate(-238.836 -1081.315)" fill="#515151"/>
            <g id="Grupo_379" data-name="Grupo 379" transform="translate(17.899 21.253)">
              <g id="Grupo_377" data-name="Grupo 377">
                <path id="Trazado_775" data-name="Trazado 775" d="M245.646,1091.686l4.789-2.68,0,0,.036-.021,0,.006c1.639-.9,3.889-.763,6.377.632,5.013,2.811,9.075,9.643,9.075,15.263,0,2.806-1.014,4.777-2.65,5.7v0l-.006,0,0,0-4.454,2.477-.8-1.3a9.4,9.4,0,0,1-2.605-.984c-5.01-2.809-9.072-9.644-9.075-15.265a9.257,9.257,0,0,1,.284-2.249Z" transform="translate(-243.175 -1088.42)" fill="#686868"/>
                <path id="Trazado_776" data-name="Trazado 776" d="M253.9,1090.481c5.013,2.812,9.075,9.644,9.075,15.264s-4.062,7.9-9.075,5.088-9.075-9.643-9.075-15.264S248.882,1087.672,253.9,1090.481Z" transform="translate(-244.82 -1086.712)" fill="#2d2d2d"/>
              </g>
              <g id="Grupo_378" data-name="Grupo 378" transform="translate(39.397 22.076)">
                <path id="Trazado_777" data-name="Trazado 777" d="M258.817,1099.068l4.789-2.683,0,0,.036-.017,0,.006c1.639-.9,3.889-.763,6.377.631,5.013,2.809,9.075,9.644,9.075,15.264,0,2.806-1.014,4.777-2.65,5.7v0l-.006,0h0l-4.454,2.476-.8-1.3a9.344,9.344,0,0,1-2.605-.984c-5.01-2.811-9.075-9.644-9.075-15.264a9.231,9.231,0,0,1,.284-2.248Z" transform="translate(-256.346 -1095.801)" fill="#686868"/>
                <path id="Trazado_778" data-name="Trazado 778" d="M267.066,1097.863c5.013,2.809,9.075,9.644,9.075,15.264s-4.062,7.9-9.075,5.088-9.075-9.644-9.075-15.265S262.053,1095.051,267.066,1097.863Z" transform="translate(-257.991 -1094.093)" fill="#2d2d2d"/>
              </g>
            </g>
          </g>
          <path id="Trazado_779" data-name="Trazado 779" d="M604.792,1123.815l0-21.966L330.534,1255.6v21.963Z" transform="translate(-17.099 -816.314)" fill="#2d2d2d"/>
          <g id="Grupo_381" data-name="Grupo 381" transform="translate(19.584 274.554)">
            <path id="Trazado_780" data-name="Trazado 780" d="M232.3,1098.178l.01,21.964,293.841,164.735v-21.963Z" transform="translate(-232.296 -1098.178)" fill="#2d2d2d"/>
          </g>
          <g id="Grupo_382" data-name="Grupo 382" transform="translate(382.893 335.962)">
            <path id="Trazado_781" data-name="Trazado 781" d="M374.038,1121.975l-4.789-2.684,0,0-.033-.019,0,.006c-1.642-.9-3.892-.763-6.38.632-5.01,2.808-9.075,9.643-9.075,15.263,0,2.806,1.014,4.777,2.65,5.7v0l.009,0h0l4.454,2.476.8-1.3a9.48,9.48,0,0,0,2.6-.981c5.01-2.812,9.075-9.644,9.075-15.265a9.141,9.141,0,0,0-.284-2.252Z" transform="translate(-353.755 -1118.708)" fill="#686868"/>
            <path id="Trazado_782" data-name="Trazado 782" d="M364.369,1120.771c-5.01,2.808-9.075,9.643-9.075,15.263s4.062,7.9,9.075,5.085,9.075-9.644,9.075-15.261S369.383,1117.958,364.369,1120.771Z" transform="translate(-350.691 -1117.001)" fill="#00dfbf"/>
            <path id="Trazado_783" data-name="Trazado 783" d="M364.369,1120.771c-5.01,2.808-9.075,9.643-9.075,15.263s4.062,7.9,9.075,5.085,9.075-9.644,9.075-15.261S369.383,1117.958,364.369,1120.771Z" transform="translate(-350.691 -1117.001)" fill="#2d2d2d"/>
          </g>
          <g id="Grupo_383" data-name="Grupo 383" transform="translate(343.496 358.039)">
            <path id="Trazado_784" data-name="Trazado 784" d="M360.867,1129.356l-4.789-2.683,0,0-.033-.018,0,.006c-1.642-.9-3.892-.766-6.38.631-5.01,2.808-9.075,9.644-9.075,15.264,0,2.8,1.014,4.774,2.65,5.7h0l.009.006h0l4.454,2.477.8-1.3a9.408,9.408,0,0,0,2.6-.984c5.01-2.809,9.075-9.641,9.075-15.261a9.155,9.155,0,0,0-.284-2.253Z" transform="translate(-340.584 -1126.089)" fill="#686868"/>
            <path id="Trazado_785" data-name="Trazado 785" d="M351.2,1128.151c-5.01,2.809-9.076,9.641-9.076,15.262s4.062,7.9,9.076,5.087,9.075-9.644,9.075-15.264S356.212,1125.339,351.2,1128.151Z" transform="translate(-337.52 -1124.38)" fill="#00dfbf"/>
            <path id="Trazado_786" data-name="Trazado 786" d="M351.2,1128.151c-5.01,2.809-9.076,9.641-9.076,15.262s4.062,7.9,9.076,5.087,9.075-9.644,9.075-15.264S356.212,1125.339,351.2,1128.151Z" transform="translate(-337.52 -1124.38)" fill="#2d2d2d"/>
          </g>
        </g>
        <g id="Grupo_395" data-name="Grupo 395" transform="translate(0.014 127.638)">
          <path id="Trazado_787" data-name="Trazado 787" d="M852.62,1138.048,539.183,1313.765,225.749,1138.049,539.186,962.332Z" transform="translate(-225.748 -962.332)" fill="#00dfbf"/>
          <path id="Trazado_788" data-name="Trazado 788" d="M852.62,1138.048,539.183,1313.765,225.749,1138.049,539.186,962.332Z" transform="translate(-225.748 -962.332)" fill="#515151"/>
          <path id="Trazado_789" data-name="Trazado 789" d="M539.183,1182.152v21.928L225.749,1028.365l19.593-10.947Z" transform="translate(-225.748 -852.649)" opacity="0.1"/>
          <path id="Trazado_790" data-name="Trazado 790" d="M643.971,1108.934,330.534,1284.651v-87.858l313.437-175.716Z" transform="translate(-17.099 -845.362)" fill="#00dfbf"/>
          <path id="Trazado_791" data-name="Trazado 791" d="M643.971,1108.934,330.534,1284.651v-87.858l313.437-175.716Z" transform="translate(-17.099 -845.362)" fill="#adadad"/>
          <g id="Grupo_386" data-name="Grupo 386" transform="translate(430.97 213.17)">
            <path id="Trazado_792" data-name="Trazado 792" d="M535.693,1034.982,380.27,1122.119c-5.767,3.233-10.439,11.094-10.439,17.561l0,20.514c0,6.464,4.675,9.087,10.442,5.854L535.7,1078.914c5.767-3.234,10.442-11.095,10.439-17.562v-20.516C546.135,1034.372,541.46,1031.751,535.693,1034.982Z" transform="translate(-369.828 -1033.599)" fill="#2d2d2d"/>
            <g id="Grupo_385" data-name="Grupo 385" transform="translate(11.017 17.311)">
              <path id="Trazado_793" data-name="Trazado 793" d="M429.433,1040.834v9.951a4.462,4.462,0,0,1-2.088,3.512l-2.351,1.317c-1.152.645-2.088.122-2.088-1.17v-9.952a4.463,4.463,0,0,1,2.088-3.512l2.351-1.316C428.5,1039.015,429.433,1039.542,429.433,1040.834Z" transform="translate(-275.156 -1039.386)" fill="#fafafa"/>
              <path id="Trazado_794" data-name="Trazado 794" d="M425.9,1042.809v9.952a4.46,4.46,0,0,1-2.088,3.511l-2.351,1.316c-1.151.646-2.088.123-2.088-1.17v-9.952a4.462,4.462,0,0,1,2.088-3.512l2.351-1.319C424.969,1040.991,425.9,1041.517,425.9,1042.809Z" transform="translate(-282.181 -1035.454)" fill="#adadad"/>
              <path id="Trazado_795" data-name="Trazado 795" d="M422.374,1044.784v9.952a4.456,4.456,0,0,1-2.088,3.512l-2.348,1.316c-1.155.646-2.088.123-2.088-1.17v-9.951a4.452,4.452,0,0,1,2.088-3.512l2.348-1.32C421.44,1042.966,422.374,1043.492,422.374,1044.784Z" transform="translate(-289.206 -1031.521)" fill="#fafafa"/>
              <path id="Trazado_796" data-name="Trazado 796" d="M418.848,1046.76v9.951a4.454,4.454,0,0,1-2.088,3.512l-2.348,1.317c-1.155.646-2.091.123-2.091-1.17v-9.952a4.459,4.459,0,0,1,2.091-3.512l2.348-1.319C417.914,1044.941,418.848,1045.465,418.848,1046.76Z" transform="translate(-296.233 -1027.589)" fill="#fafafa"/>
              <path id="Trazado_797" data-name="Trazado 797" d="M415.32,1048.734v9.952a4.459,4.459,0,0,1-2.088,3.511l-2.351,1.316c-1.152.646-2.088.123-2.088-1.17v-9.951a4.462,4.462,0,0,1,2.088-3.512l2.351-1.319C414.383,1046.915,415.32,1047.442,415.32,1048.734Z" transform="translate(-303.258 -1023.656)" fill="#fafafa"/>
              <path id="Trazado_798" data-name="Trazado 798" d="M411.792,1050.71v9.952a4.457,4.457,0,0,1-2.091,3.512l-2.348,1.316c-1.155.646-2.088.122-2.088-1.169v-9.951a4.458,4.458,0,0,1,2.088-3.512l2.351-1.319C410.856,1048.891,411.792,1049.415,411.792,1050.71Z" transform="translate(-310.283 -1019.724)" fill="#adadad"/>
              <path id="Trazado_799" data-name="Trazado 799" d="M408.261,1052.685v9.951a4.454,4.454,0,0,1-2.088,3.511l-2.348,1.317c-1.154.646-2.088.123-2.088-1.169v-9.952a4.454,4.454,0,0,1,2.088-3.512l2.348-1.319C407.328,1050.866,408.261,1051.389,408.261,1052.685Z" transform="translate(-317.307 -1015.792)" fill="#adadad"/>
              <path id="Trazado_800" data-name="Trazado 800" d="M404.733,1054.66v9.952a4.455,4.455,0,0,1-2.088,3.512l-2.348,1.316c-1.155.646-2.088.123-2.088-1.17v-9.951a4.448,4.448,0,0,1,2.088-3.511l2.348-1.32C403.8,1052.841,404.733,1053.364,404.733,1054.66Z" transform="translate(-324.332 -1011.859)" fill="#fafafa"/>
              <path id="Trazado_801" data-name="Trazado 801" d="M401.207,1056.635v9.951a4.461,4.461,0,0,1-2.088,3.512l-2.351,1.316c-1.152.646-2.088.122-2.088-1.169v-9.952a4.456,4.456,0,0,1,2.088-3.511l2.351-1.32C400.271,1054.816,401.207,1055.34,401.207,1056.635Z" transform="translate(-331.359 -1007.925)" fill="#adadad"/>
              <path id="Trazado_802" data-name="Trazado 802" d="M397.679,1058.61v9.948a4.462,4.462,0,0,1-2.088,3.515l-2.351,1.316c-1.152.646-2.088.122-2.088-1.17v-9.951a4.459,4.459,0,0,1,2.088-3.512l2.351-1.318C396.743,1056.791,397.679,1057.315,397.679,1058.61Z" transform="translate(-338.384 -1003.993)" fill="#fafafa"/>
              <path id="Trazado_803" data-name="Trazado 803" d="M394.151,1060.584l0,9.952a4.457,4.457,0,0,1-2.088,3.511l-2.348,1.317c-1.154.645-2.088.122-2.088-1.169v-9.952a4.461,4.461,0,0,1,2.088-3.515l2.348-1.316C393.215,1058.766,394.151,1059.29,394.151,1060.584Z" transform="translate(-345.409 -1000.061)" fill="#fafafa"/>
              <path id="Trazado_804" data-name="Trazado 804" d="M390.62,1062.56v9.948a4.458,4.458,0,0,1-2.088,3.514l-2.348,1.317c-1.155.646-2.088.123-2.088-1.169v-9.952a4.448,4.448,0,0,1,2.088-3.511l2.348-1.32C389.687,1060.741,390.62,1061.264,390.62,1062.56Z" transform="translate(-352.434 -996.128)" fill="#fafafa"/>
              <path id="Trazado_805" data-name="Trazado 805" d="M387.094,1064.531v9.952a4.467,4.467,0,0,1-2.088,3.515l-2.351,1.316c-1.152.646-2.088.123-2.088-1.169v-9.952a4.469,4.469,0,0,1,2.088-3.515l2.351-1.316C386.158,1062.716,387.094,1063.239,387.094,1064.531Z" transform="translate(-359.461 -992.195)" fill="#adadad"/>
              <path id="Trazado_806" data-name="Trazado 806" d="M383.566,1066.507v9.952a4.468,4.468,0,0,1-2.088,3.515l-2.351,1.316c-1.152.646-2.088.122-2.088-1.173v-9.948a4.469,4.469,0,0,1,2.088-3.515l2.351-1.316C382.629,1064.691,383.566,1065.215,383.566,1066.507Z" transform="translate(-366.486 -988.263)" fill="#fafafa"/>
              <path id="Trazado_807" data-name="Trazado 807" d="M380.038,1068.482v9.951a4.461,4.461,0,0,1-2.091,3.515l-2.348,1.317c-1.155.646-2.088.122-2.088-1.173v-9.952a4.456,4.456,0,0,1,2.088-3.512l2.348-1.316C379.1,1066.666,380.038,1067.19,380.038,1068.482Z" transform="translate(-373.511 -984.33)" fill="#fafafa"/>
            </g>
          </g>
          <path id="Trazado_808" data-name="Trazado 808" d="M539.183,1284.651,225.748,1108.935v-87.858l313.435,175.716Z" transform="translate(-225.748 -845.36)" fill="#bfbfbf"/>
          <g id="Grupo_390" data-name="Grupo 390" transform="translate(39.148 224.262)">
            <path id="Trazado_809" data-name="Trazado 809" d="M249.278,1038.69l77.065,43.208c5.767,3.234,10.442,11.094,10.442,17.561v20.514c0,6.466-4.675,9.087-10.442,5.854l-77.065-43.2c-5.767-3.233-10.442-11.1-10.442-17.561v-20.517C238.836,1038.08,243.511,1035.459,249.278,1038.69Z" transform="translate(-238.836 -1037.307)" fill="#515151"/>
            <g id="Grupo_389" data-name="Grupo 389" transform="translate(17.899 21.251)">
              <g id="Grupo_387" data-name="Grupo 387">
                <path id="Trazado_810" data-name="Trazado 810" d="M245.646,1047.68l4.789-2.683,0,0,.036-.018,0,0c1.639-.9,3.889-.763,6.377.631,5.013,2.811,9.075,9.646,9.075,15.264,0,2.806-1.014,4.777-2.65,5.7h0l-.006,0,0,0-4.454,2.477-.8-1.3a9.357,9.357,0,0,1-2.605-.984c-5.01-2.808-9.072-9.644-9.075-15.264a9.261,9.261,0,0,1,.284-2.249Z" transform="translate(-243.175 -1044.411)" fill="#686868"/>
                <path id="Trazado_811" data-name="Trazado 811" d="M253.9,1046.472c5.013,2.811,9.075,9.644,9.075,15.264s-4.062,7.9-9.075,5.087-9.075-9.643-9.075-15.263S248.882,1043.663,253.9,1046.472Z" transform="translate(-244.82 -1042.703)" fill="#2d2d2d"/>
              </g>
              <g id="Grupo_388" data-name="Grupo 388" transform="translate(39.397 22.078)">
                <path id="Trazado_812" data-name="Trazado 812" d="M258.817,1055.058l4.789-2.683h0l.036-.021,0,.006c1.639-.9,3.889-.762,6.377.631,5.013,2.812,9.075,9.644,9.075,15.264,0,2.806-1.014,4.777-2.65,5.7v0l-.006,0h0l-4.454,2.477-.8-1.3a9.373,9.373,0,0,1-2.605-.984c-5.01-2.809-9.075-9.643-9.075-15.264a9.253,9.253,0,0,1,.284-2.25Z" transform="translate(-256.346 -1051.792)" fill="#686868"/>
                <path id="Trazado_813" data-name="Trazado 813" d="M267.066,1053.853c5.013,2.808,9.075,9.643,9.075,15.264s-4.062,7.9-9.075,5.088-9.075-9.644-9.075-15.263S262.053,1051.044,267.066,1053.853Z" transform="translate(-257.991 -1050.085)" fill="#2d2d2d"/>
              </g>
            </g>
          </g>
          <path id="Trazado_814" data-name="Trazado 814" d="M604.792,1079.757l0-21.966L330.534,1211.546v21.963Z" transform="translate(-17.099 -772.255)" fill="#2d2d2d"/>
          <g id="Grupo_392" data-name="Grupo 392" transform="translate(19.584 274.554)">
            <g id="Grupo_391" data-name="Grupo 391">
              <path id="Trazado_815" data-name="Trazado 815" d="M232.3,1054.12l.01,21.964,293.841,164.735v-21.963Z" transform="translate(-232.296 -1054.12)" fill="#2d2d2d"/>
            </g>
          </g>
          <g id="Grupo_393" data-name="Grupo 393" transform="translate(382.893 335.962)">
            <path id="Trazado_816" data-name="Trazado 816" d="M374.038,1077.918l-4.789-2.683,0,0-.033-.018,0,.006c-1.642-.9-3.892-.766-6.38.631-5.01,2.809-9.075,9.644-9.075,15.261,0,2.806,1.014,4.777,2.65,5.7h0l.009.006h0l4.454,2.477.8-1.3a9.378,9.378,0,0,0,2.6-.984c5.01-2.809,9.075-9.644,9.075-15.261a9.135,9.135,0,0,0-.284-2.253Z" transform="translate(-353.755 -1074.649)" fill="#686868"/>
            <path id="Trazado_817" data-name="Trazado 817" d="M364.369,1076.709c-5.01,2.812-9.075,9.647-9.075,15.264s4.062,7.9,9.075,5.089,9.075-9.644,9.075-15.265S369.383,1073.9,364.369,1076.709Z" transform="translate(-350.691 -1072.942)" fill="#00dfbf"/>
            <path id="Trazado_818" data-name="Trazado 818" d="M364.369,1076.709c-5.01,2.812-9.075,9.647-9.075,15.264s4.062,7.9,9.075,5.089,9.075-9.644,9.075-15.265S369.383,1073.9,364.369,1076.709Z" transform="translate(-350.691 -1072.942)" fill="#2d2d2d"/>
          </g>
          <g id="Grupo_394" data-name="Grupo 394" transform="translate(343.496 358.039)">
            <path id="Trazado_819" data-name="Trazado 819" d="M360.867,1085.3l-4.789-2.686h0l-.033-.021,0,.006c-1.642-.9-3.892-.762-6.38.632-5.01,2.811-9.075,9.643-9.075,15.264,0,2.805,1.014,4.776,2.65,5.7h0l.009,0v0l4.454,2.477.8-1.3a9.393,9.393,0,0,0,2.6-.984c5.01-2.808,9.075-9.643,9.075-15.264a9.125,9.125,0,0,0-.284-2.249Z" transform="translate(-340.584 -1082.03)" fill="#686868"/>
            <path id="Trazado_820" data-name="Trazado 820" d="M351.2,1084.091c-5.01,2.811-9.076,9.643-9.076,15.263s4.062,7.9,9.076,5.089,9.075-9.644,9.075-15.265S356.212,1081.282,351.2,1084.091Z" transform="translate(-337.52 -1080.322)" fill="#00dfbf"/>
            <path id="Trazado_821" data-name="Trazado 821" d="M351.2,1084.091c-5.01,2.811-9.076,9.643-9.076,15.263s4.062,7.9,9.076,5.089,9.075-9.644,9.075-15.265S356.212,1081.282,351.2,1084.091Z" transform="translate(-337.52 -1080.322)" fill="#2d2d2d"/>
          </g>
        </g>
        <g id="Grupo_406" data-name="Grupo 406" transform="translate(0.001 0)">
          <path id="Trazado_822" data-name="Trazado 822" d="M238.274,1084.232l288.57-161.668c6.892-3.865,18.169-3.865,25.057,0l288.2,161.668c6.892,3.862,12.53,13.347,12.53,21.073v73.811L539,1354.833h0L225.744,1179.116V1105.3C225.744,1097.579,231.382,1088.1,238.274,1084.232Z" transform="translate(-225.744 -919.654)" fill="#00dfbf"/>
          <path id="Trazado_823" data-name="Trazado 823" d="M238.274,1084.232l288.57-161.668c6.892-3.865,18.169-3.865,25.057,0l288.2,161.668c6.892,3.862,12.53,13.347,12.53,21.073v73.811L539,1354.833h0L225.744,1179.116V1105.3C225.744,1097.579,231.382,1088.1,238.274,1084.232Z" transform="translate(-225.744 -919.654)" fill="#adadad"/>
          <g id="Grupo_399" data-name="Grupo 399" transform="translate(39.161 219.999)">
            <path id="Trazado_824" data-name="Trazado 824" d="M249.278,994.595l77.065,43.208c5.767,3.231,10.442,11.095,10.442,17.559v20.516c0,6.464-4.675,9.088-10.442,5.854l-77.065-43.208c-5.767-3.23-10.442-11.094-10.442-17.558v-20.517C238.836,993.985,243.511,991.362,249.278,994.595Z" transform="translate(-238.836 -993.21)" fill="#515151"/>
            <g id="Grupo_398" data-name="Grupo 398" transform="translate(17.899 21.253)">
              <g id="Grupo_396" data-name="Grupo 396">
                <path id="Trazado_825" data-name="Trazado 825" d="M245.646,1003.581l4.789-2.683h0l.036-.021,0,.006c1.639-.9,3.889-.762,6.377.631,5.013,2.812,9.075,9.644,9.075,15.264,0,2.806-1.014,4.777-2.65,5.7v0l-.006,0,0,0-4.454,2.476-.8-1.3a9.368,9.368,0,0,1-2.605-.984c-5.01-2.809-9.072-9.644-9.075-15.264a9.261,9.261,0,0,1,.284-2.249Z" transform="translate(-243.175 -1000.315)" fill="#686868"/>
                <path id="Trazado_826" data-name="Trazado 826" d="M253.9,1002.376c5.013,2.811,9.075,9.643,9.075,15.264s-4.062,7.9-9.075,5.089-9.075-9.644-9.075-15.265S248.882,999.567,253.9,1002.376Z" transform="translate(-244.82 -998.607)" fill="#2d2d2d"/>
              </g>
              <g id="Grupo_397" data-name="Grupo 397" transform="translate(39.397 22.077)">
                <path id="Trazado_827" data-name="Trazado 827" d="M258.817,1010.963l4.789-2.683,0,0,.036-.018,0,.006c1.639-.9,3.889-.762,6.377.631,5.013,2.812,9.075,9.644,9.075,15.264,0,2.806-1.014,4.777-2.65,5.7v0l-.006,0h0l-4.454,2.477-.8-1.3a9.381,9.381,0,0,1-2.605-.984c-5.01-2.812-9.075-9.644-9.075-15.264a9.238,9.238,0,0,1,.284-2.249Z" transform="translate(-256.346 -1007.696)" fill="#686868"/>
                <path id="Trazado_828" data-name="Trazado 828" d="M267.066,1009.758c5.013,2.809,9.075,9.644,9.075,15.264s-4.062,7.9-9.075,5.088-9.075-9.644-9.075-15.265S262.053,1006.946,267.066,1009.758Z" transform="translate(-257.991 -1005.988)" fill="#2d2d2d"/>
              </g>
            </g>
          </g>
          <path id="Trazado_829" data-name="Trazado 829" d="M330.479,1152.27v91.976l313.6-175.712V994.726c0-6.835-4.436-15.123-10.272-19.526,4.582,3.888,3.811,9.084-2.267,12.5L342.97,1149.365A26.217,26.217,0,0,1,330.479,1152.27Z" transform="translate(-17.196 -809.073)" fill="#00dfbf"/>
          <path id="Trazado_830" data-name="Trazado 830" d="M330.479,1152.27v91.976l313.6-175.712V994.726c0-6.835-4.436-15.123-10.272-19.526,4.582,3.888,3.811,9.084-2.267,12.5L342.97,1149.365A26.217,26.217,0,0,1,330.479,1152.27Z" transform="translate(-17.196 -809.073)" fill="#adadad"/>
          <g id="Grupo_401" data-name="Grupo 401" transform="translate(430.983 209.012)">
            <path id="Trazado_831" data-name="Trazado 831" d="M535.693,990.922,380.27,1078.056c-5.767,3.234-10.439,11.094-10.439,17.561l0,20.514c0,6.467,4.675,9.087,10.442,5.854L535.7,1034.85c5.767-3.233,10.442-11.094,10.439-17.561V996.775C546.135,990.309,541.46,987.689,535.693,990.922Z" transform="translate(-369.828 -989.537)" fill="#2d2d2d"/>
            <g id="Grupo_400" data-name="Grupo 400" transform="translate(11.017 17.312)">
              <path id="Trazado_832" data-name="Trazado 832" d="M429.433,996.771v9.952a4.462,4.462,0,0,1-2.088,3.512l-2.351,1.319c-1.152.646-2.088.12-2.088-1.173v-9.952a4.462,4.462,0,0,1,2.088-3.511l2.351-1.316C428.5,994.955,429.433,995.478,429.433,996.771Z" transform="translate(-275.156 -995.324)" fill="#adadad"/>
              <path id="Trazado_833" data-name="Trazado 833" d="M425.9,998.746v9.951a4.462,4.462,0,0,1-2.088,3.512l-2.351,1.316c-1.151.649-2.088.123-2.088-1.169V1002.4a4.462,4.462,0,0,1,2.088-3.511l2.351-1.316C424.969,996.93,425.9,997.453,425.9,998.746Z" transform="translate(-282.181 -991.392)" fill="#adadad"/>
              <path id="Trazado_834" data-name="Trazado 834" d="M422.374,1000.721v9.952a4.454,4.454,0,0,1-2.088,3.512l-2.348,1.316c-1.155.65-2.088.123-2.088-1.169v-9.952a4.453,4.453,0,0,1,2.088-3.511l2.348-1.317C421.44,998.905,422.374,999.429,422.374,1000.721Z" transform="translate(-289.206 -987.459)" fill="#adadad"/>
              <path id="Trazado_835" data-name="Trazado 835" d="M418.848,1002.7v9.952a4.454,4.454,0,0,1-2.088,3.512l-2.348,1.316c-1.155.649-2.091.122-2.091-1.17v-9.952a4.458,4.458,0,0,1,2.091-3.512l2.348-1.316C417.914,1000.878,418.848,1001.4,418.848,1002.7Z" transform="translate(-296.233 -983.527)" fill="#adadad"/>
              <path id="Trazado_836" data-name="Trazado 836" d="M415.32,1004.672v9.952a4.463,4.463,0,0,1-2.088,3.512l-2.351,1.316c-1.152.649-2.088.122-2.088-1.169v-9.952a4.462,4.462,0,0,1,2.088-3.512l2.351-1.316C414.383,1002.853,415.32,1003.379,415.32,1004.672Z" transform="translate(-303.258 -979.595)" fill="#adadad"/>
              <path id="Trazado_837" data-name="Trazado 837" d="M411.792,1006.647v9.952a4.46,4.46,0,0,1-2.091,3.513l-2.348,1.316c-1.155.649-2.088.122-2.088-1.169v-9.952a4.462,4.462,0,0,1,2.088-3.512l2.351-1.319C410.856,1004.829,411.792,1005.355,411.792,1006.647Z" transform="translate(-310.283 -975.663)" fill="#fafafa"/>
              <path id="Trazado_838" data-name="Trazado 838" d="M408.261,1008.622v9.952a4.454,4.454,0,0,1-2.088,3.511l-2.348,1.317c-1.154.646-2.088.122-2.088-1.17v-9.952a4.454,4.454,0,0,1,2.088-3.512l2.348-1.316C407.328,1006.8,408.261,1007.33,408.261,1008.622Z" transform="translate(-317.307 -971.73)" fill="#fafafa"/>
              <path id="Trazado_839" data-name="Trazado 839" d="M404.733,1010.6v9.952a4.454,4.454,0,0,1-2.088,3.511l-2.348,1.316c-1.155.646-2.088.123-2.088-1.17v-9.951a4.453,4.453,0,0,1,2.088-3.511l2.348-1.32C403.8,1008.779,404.733,1009.306,404.733,1010.6Z" transform="translate(-324.332 -967.798)" fill="#adadad"/>
              <path id="Trazado_840" data-name="Trazado 840" d="M401.207,1012.573v9.951a4.461,4.461,0,0,1-2.088,3.512l-2.351,1.316c-1.152.647-2.088.123-2.088-1.169v-9.952a4.461,4.461,0,0,1,2.088-3.512l2.351-1.319C400.271,1010.754,401.207,1011.28,401.207,1012.573Z" transform="translate(-331.359 -963.865)" fill="#fafafa"/>
              <path id="Trazado_841" data-name="Trazado 841" d="M397.679,1014.548v9.951a4.463,4.463,0,0,1-2.088,3.512l-2.351,1.316c-1.152.646-2.088.123-2.088-1.169v-9.952a4.462,4.462,0,0,1,2.088-3.512l2.351-1.319C396.743,1012.729,397.679,1013.253,397.679,1014.548Z" transform="translate(-338.384 -959.933)" fill="#adadad"/>
              <path id="Trazado_842" data-name="Trazado 842" d="M394.151,1016.523l0,9.952a4.455,4.455,0,0,1-2.088,3.512l-2.348,1.316c-1.154.646-2.088.123-2.088-1.169v-9.952a4.455,4.455,0,0,1,2.088-3.512l2.348-1.319C393.215,1014.7,394.151,1015.227,394.151,1016.523Z" transform="translate(-345.409 -956)" fill="#adadad"/>
              <path id="Trazado_843" data-name="Trazado 843" d="M390.62,1018.5v9.952a4.455,4.455,0,0,1-2.088,3.512l-2.348,1.316c-1.155.646-2.088.122-2.088-1.17v-9.952a4.451,4.451,0,0,1,2.088-3.512l2.348-1.319C389.687,1016.679,390.62,1017.2,390.62,1018.5Z" transform="translate(-352.434 -952.068)" fill="#adadad"/>
              <path id="Trazado_844" data-name="Trazado 844" d="M387.094,1020.473v9.952a4.463,4.463,0,0,1-2.088,3.512l-2.351,1.316c-1.152.646-2.088.123-2.088-1.17v-9.951a4.461,4.461,0,0,1,2.088-3.511l2.351-1.319C386.158,1018.654,387.094,1019.177,387.094,1020.473Z" transform="translate(-359.461 -948.135)" fill="#fafafa"/>
              <path id="Trazado_845" data-name="Trazado 845" d="M383.566,1022.448v9.951a4.464,4.464,0,0,1-2.088,3.512l-2.351,1.316c-1.152.646-2.088.122-2.088-1.17v-9.952a4.457,4.457,0,0,1,2.088-3.511l2.351-1.319C382.629,1020.629,383.566,1021.152,383.566,1022.448Z" transform="translate(-366.486 -944.202)" fill="#adadad"/>
              <path id="Trazado_846" data-name="Trazado 846" d="M380.038,1024.423v9.952a4.457,4.457,0,0,1-2.091,3.512L375.6,1039.2c-1.155.646-2.088.123-2.088-1.169v-9.951a4.451,4.451,0,0,1,2.088-3.512l2.348-1.319C379.1,1022.6,380.038,1023.127,380.038,1024.423Z" transform="translate(-373.511 -940.27)" fill="#adadad"/>
            </g>
          </g>
          <path id="Trazado_847" data-name="Trazado 847" d="M835.22,1098.286,546.645,1259.96c-6.919,3.88-18.139,3.88-25.057,0l-288.2-161.671c-6.922-3.88-6.922-10.17,0-14.05l288.57-161.668c6.919-3.88,18.138-3.88,25.057,0l288.2,161.668C842.139,1088.118,842.139,1094.409,835.22,1098.286Z" transform="translate(-220.859 -919.661)" fill="#00dfbf"/>
          <path id="Trazado_848" data-name="Trazado 848" d="M835.22,1098.286,546.645,1259.96c-6.919,3.88-18.139,3.88-25.057,0l-288.2-161.671c-6.922-3.88-6.922-10.17,0-14.05l288.57-161.668c6.919-3.88,18.138-3.88,25.057,0l288.2,161.668C842.139,1088.118,842.139,1094.409,835.22,1098.286Z" transform="translate(-220.859 -919.661)" fill="#2d2d2d"/>
          <path id="Trazado_849" data-name="Trazado 849" d="M604.792,1035.711l0-21.966L330.534,1167.5v21.963Z" transform="translate(-17.086 -732.321)" fill="#2d2d2d"/>
          <g id="Grupo_403" data-name="Grupo 403" transform="translate(19.597 270.443)">
            <g id="Grupo_402" data-name="Grupo 402">
              <path id="Trazado_850" data-name="Trazado 850" d="M232.3,1010.074l.01,21.964,293.841,164.735V1174.81Z" transform="translate(-232.296 -1010.074)" fill="#2d2d2d"/>
            </g>
          </g>
          <g id="Grupo_404" data-name="Grupo 404" transform="translate(382.906 331.851)">
            <path id="Trazado_851" data-name="Trazado 851" d="M374.038,1033.871l-4.789-2.683,0,0-.033-.018,0,.006c-1.642-.9-3.892-.763-6.38.631-5.01,2.809-9.075,9.644-9.075,15.264,0,2.806,1.014,4.777,2.65,5.7v0l.009,0h0l4.454,2.477.8-1.3a9.353,9.353,0,0,0,2.6-.981c5.01-2.812,9.075-9.644,9.075-15.264a9.133,9.133,0,0,0-.284-2.252Z" transform="translate(-353.755 -1030.604)" fill="#686868"/>
            <path id="Trazado_852" data-name="Trazado 852" d="M364.369,1032.666c-5.01,2.809-9.075,9.643-9.075,15.26s4.062,7.9,9.075,5.088,9.075-9.641,9.075-15.261S369.383,1029.854,364.369,1032.666Z" transform="translate(-350.691 -1028.896)" fill="#00dfbf"/>
            <path id="Trazado_853" data-name="Trazado 853" d="M364.369,1032.666c-5.01,2.809-9.075,9.643-9.075,15.26s4.062,7.9,9.075,5.088,9.075-9.641,9.075-15.261S369.383,1029.854,364.369,1032.666Z" transform="translate(-350.691 -1028.896)" fill="#2d2d2d"/>
          </g>
          <g id="Grupo_405" data-name="Grupo 405" transform="translate(343.509 353.928)">
            <path id="Trazado_854" data-name="Trazado 854" d="M360.867,1041.252l-4.789-2.683,0,0-.033-.018,0,.006c-1.642-.9-3.892-.766-6.38.63-5.01,2.809-9.075,9.644-9.075,15.261,0,2.806,1.014,4.777,2.65,5.7h0l.009.006h0l4.454,2.477.8-1.3a9.471,9.471,0,0,0,2.6-.981c5.01-2.812,9.075-9.646,9.075-15.264a9.148,9.148,0,0,0-.284-2.252Z" transform="translate(-340.584 -1037.984)" fill="#686868"/>
            <path id="Trazado_855" data-name="Trazado 855" d="M351.2,1040.044c-5.01,2.811-9.076,9.646-9.076,15.265s4.062,7.9,9.076,5.087,9.075-9.644,9.075-15.264S356.212,1037.236,351.2,1040.044Z" transform="translate(-337.52 -1036.277)" fill="#00dfbf"/>
            <path id="Trazado_856" data-name="Trazado 856" d="M351.2,1040.044c-5.01,2.811-9.076,9.646-9.076,15.265s4.062,7.9,9.076,5.087,9.075-9.644,9.075-15.264S356.212,1037.236,351.2,1040.044Z" transform="translate(-337.52 -1036.277)" fill="#2d2d2d"/>
          </g>
        </g>
      </g>
      <g id="Grupo_412" data-name="Grupo 412" transform="translate(383.845 522.11)">
        <g id="Grupo_407" data-name="Grupo 407" transform="translate(97.974 55.295)">
          <path id="Trazado_857" data-name="Trazado 857" d="M335.032,870.33a1.3,1.3,0,0,0-.79-1.071,4.328,4.328,0,0,0-3.82,0,1.3,1.3,0,0,0-.793,1.071h0v31.432h0a1.3,1.3,0,0,0,.793,1.071,4.328,4.328,0,0,0,3.82,0,1.3,1.3,0,0,0,.79-1.071h0V870.33Z" transform="translate(-304.627 -777.166)" fill="#adadad"/>
          <path id="Trazado_858" data-name="Trazado 858" d="M335.032,884.129a1.3,1.3,0,0,0-.79-1.068,4.33,4.33,0,0,0-3.82,0,1.3,1.3,0,0,0-.793,1.068h0v14.962h0a1.306,1.306,0,0,0,.793,1.071,4.346,4.346,0,0,0,3.82,0,1.308,1.308,0,0,0,.79-1.071h0V884.129Z" transform="translate(-304.627 -749.686)" fill="#adadad"/>
          <path id="Trazado_859" data-name="Trazado 859" d="M335.032,892.425a1.3,1.3,0,0,0-.79-1.071,4.329,4.329,0,0,0-3.82,0,1.3,1.3,0,0,0-.793,1.071h0v14.958h0a1.3,1.3,0,0,0,.793,1.071,4.33,4.33,0,0,0,3.82,0,1.3,1.3,0,0,0,.79-1.071h0V892.425Z" transform="translate(-304.627 -733.173)" fill="#adadad"/>
          <path id="Trazado_860" data-name="Trazado 860" d="M335.032,900.716a1.307,1.307,0,0,0-.79-1.07,4.346,4.346,0,0,0-3.82,0,1.305,1.305,0,0,0-.793,1.07h0v14.959h0a1.3,1.3,0,0,0,.793,1.071,4.329,4.329,0,0,0,3.82,0,1.3,1.3,0,0,0,.79-1.071h0V900.716Z" transform="translate(-304.627 -716.658)" fill="#adadad"/>
          <path id="Trazado_861" data-name="Trazado 861" d="M335.032,909.011a1.3,1.3,0,0,0-.79-1.071,4.329,4.329,0,0,0-3.82,0,1.3,1.3,0,0,0-.793,1.071h0v14.959h0a1.305,1.305,0,0,0,.793,1.071,4.348,4.348,0,0,0,3.82,0,1.307,1.307,0,0,0,.79-1.071h0V909.011Z" transform="translate(-304.627 -700.145)" fill="#adadad"/>
          <path id="Trazado_862" data-name="Trazado 862" d="M335.032,917.3a1.308,1.308,0,0,0-.79-1.071,4.329,4.329,0,0,0-3.82,0,1.306,1.306,0,0,0-.793,1.071h0v14.959h0a1.3,1.3,0,0,0,.793,1.071,4.329,4.329,0,0,0,3.82,0,1.3,1.3,0,0,0,.79-1.071h0V917.3Z" transform="translate(-304.627 -683.632)" fill="#adadad"/>
          <path id="Trazado_863" data-name="Trazado 863" d="M335.032,925.6a1.3,1.3,0,0,0-.79-1.068,4.329,4.329,0,0,0-3.82,0,1.3,1.3,0,0,0-.793,1.068h0v14.962h0a1.3,1.3,0,0,0,.793,1.068,4.326,4.326,0,0,0,3.82,0,1.3,1.3,0,0,0,.79-1.068h0V925.6Z" transform="translate(-304.627 -667.117)" fill="#adadad"/>
          <path id="Trazado_864" data-name="Trazado 864" d="M335.032,933.892a1.3,1.3,0,0,0-.79-1.071,4.323,4.323,0,0,0-3.82,0,1.3,1.3,0,0,0-.793,1.071h0v14.958h0a1.306,1.306,0,0,0,.793,1.071,4.326,4.326,0,0,0,3.82,0,1.308,1.308,0,0,0,.79-1.071h0V933.892Z" transform="translate(-304.627 -650.604)" fill="#adadad"/>
          <path id="Trazado_865" data-name="Trazado 865" d="M335.032,942.184a1.307,1.307,0,0,0-.79-1.071,4.327,4.327,0,0,0-3.82,0,1.305,1.305,0,0,0-.793,1.071h0v14.959h0a1.3,1.3,0,0,0,.793,1.071,4.328,4.328,0,0,0,3.82,0,1.3,1.3,0,0,0,.79-1.071h0V942.184Z" transform="translate(-304.627 -634.091)" fill="#adadad"/>
          <path id="Trazado_866" data-name="Trazado 866" d="M335.032,950.479a1.3,1.3,0,0,0-.79-1.071,4.325,4.325,0,0,0-3.82,0,1.3,1.3,0,0,0-.793,1.071h0v14.959h0a1.306,1.306,0,0,0,.793,1.071,4.346,4.346,0,0,0,3.82,0,1.308,1.308,0,0,0,.79-1.071h0V950.479Z" transform="translate(-304.627 -617.576)" fill="#adadad"/>
          <path id="Trazado_867" data-name="Trazado 867" d="M335.032,958.771a1.3,1.3,0,0,0-.79-1.071,4.327,4.327,0,0,0-3.82,0,1.3,1.3,0,0,0-.793,1.071h0V973.73h0a1.3,1.3,0,0,0,.793,1.071,4.327,4.327,0,0,0,3.82,0,1.3,1.3,0,0,0,.79-1.071h0V958.771Z" transform="translate(-304.627 -601.063)" fill="#adadad"/>
          <path id="Trazado_868" data-name="Trazado 868" d="M335.032,967.063a1.308,1.308,0,0,0-.79-1.071,4.346,4.346,0,0,0-3.82,0,1.306,1.306,0,0,0-.793,1.071h0v14.959h0a1.3,1.3,0,0,0,.793,1.071,4.33,4.33,0,0,0,3.82,0,1.3,1.3,0,0,0,.79-1.071h0V967.063Z" transform="translate(-304.627 -584.548)" fill="#adadad"/>
          <path id="Trazado_869" data-name="Trazado 869" d="M335.032,975.358a1.3,1.3,0,0,0-.79-1.071,4.326,4.326,0,0,0-3.82,0,1.3,1.3,0,0,0-.793,1.071h0v14.959h0a1.306,1.306,0,0,0,.793,1.071,4.349,4.349,0,0,0,3.82,0,1.308,1.308,0,0,0,.79-1.071h0V975.358Z" transform="translate(-304.627 -568.034)" fill="#adadad"/>
          <path id="Trazado_870" data-name="Trazado 870" d="M359.172,864.47c0-2.468-1.678-4.932-5.034-6.814-6.715-3.766-17.6-3.766-24.315,0-3.359,1.882-5.037,4.346-5.037,6.814h0V908.4h0c0,2.468,1.678,4.933,5.037,6.815,6.712,3.765,17.6,3.765,24.315,0,3.356-1.882,5.034-4.347,5.034-6.815h0V864.47Z" transform="translate(-314.274 -805.011)" fill="#2d2d2d"/>
          <path id="Trazado_871" data-name="Trazado 871" d="M376.68,853.707c0-3.975-2.7-7.95-8.115-10.984-10.819-6.063-28.36-6.063-39.179,0-5.408,3.033-8.115,7.008-8.115,10.984h0v43.178h.129c-.365,4.22,2.234,8.51,7.987,11.735,10.819,6.067,28.359,6.067,39.179,0,5.755-3.224,8.351-7.514,7.986-11.735h.129V853.707Z" transform="translate(-321.271 -838.176)" fill="#515151"/>
        </g>
        <g id="Grupo_410" data-name="Grupo 410" transform="translate(195.896)">
          <g id="Grupo_409" data-name="Grupo 409" transform="translate(25.003 91.651)">
            <g id="Grupo_408" data-name="Grupo 408">
              <path id="Trazado_872" data-name="Trazado 872" d="M367.769,851.843a1.307,1.307,0,0,0-.793-1.071,4.349,4.349,0,0,0-3.82,0,1.308,1.308,0,0,0-.79,1.071h0v31.435h0a1.307,1.307,0,0,0,.79,1.071,4.345,4.345,0,0,0,3.82,0,1.305,1.305,0,0,0,.793-1.071h0V851.843Z" transform="translate(-362.367 -850.33)" fill="#adadad"/>
              <path id="Trazado_873" data-name="Trazado 873" d="M367.769,865.645a1.3,1.3,0,0,0-.793-1.071,4.328,4.328,0,0,0-3.82,0,1.3,1.3,0,0,0-.79,1.071h0V880.6h0a1.3,1.3,0,0,0,.79,1.071,4.33,4.33,0,0,0,3.82,0,1.3,1.3,0,0,0,.793-1.071h0V865.645Z" transform="translate(-362.367 -822.851)" fill="#adadad"/>
              <path id="Trazado_874" data-name="Trazado 874" d="M367.769,873.937a1.306,1.306,0,0,0-.793-1.071,4.347,4.347,0,0,0-3.82,0,1.307,1.307,0,0,0-.79,1.071h0V888.9h0a1.3,1.3,0,0,0,.79,1.071,4.327,4.327,0,0,0,3.82,0,1.3,1.3,0,0,0,.793-1.071h0V873.937Z" transform="translate(-362.367 -806.337)" fill="#adadad"/>
              <path id="Trazado_875" data-name="Trazado 875" d="M367.769,882.229a1.3,1.3,0,0,0-.793-1.067,4.326,4.326,0,0,0-3.82,0,1.3,1.3,0,0,0-.79,1.067h0v14.963h0a1.307,1.307,0,0,0,.79,1.071,4.346,4.346,0,0,0,3.82,0,1.305,1.305,0,0,0,.793-1.071h0V882.229Z" transform="translate(-362.367 -789.823)" fill="#adadad"/>
              <path id="Trazado_876" data-name="Trazado 876" d="M367.769,890.526a1.3,1.3,0,0,0-.793-1.071,4.328,4.328,0,0,0-3.82,0,1.3,1.3,0,0,0-.79,1.071h0v14.959h0a1.3,1.3,0,0,0,.79,1.07,4.328,4.328,0,0,0,3.82,0,1.3,1.3,0,0,0,.793-1.07h0V890.526Z" transform="translate(-362.367 -773.31)" fill="#adadad"/>
              <path id="Trazado_877" data-name="Trazado 877" d="M367.769,898.817a1.306,1.306,0,0,0-.793-1.071,4.347,4.347,0,0,0-3.82,0,1.308,1.308,0,0,0-.79,1.071h0v14.959h0a1.3,1.3,0,0,0,.79,1.071,4.328,4.328,0,0,0,3.82,0,1.3,1.3,0,0,0,.793-1.071h0V898.817Z" transform="translate(-362.367 -756.796)" fill="#adadad"/>
              <path id="Trazado_878" data-name="Trazado 878" d="M367.769,907.113a1.3,1.3,0,0,0-.793-1.071,4.328,4.328,0,0,0-3.82,0,1.3,1.3,0,0,0-.79,1.071h0v14.959h0a1.307,1.307,0,0,0,.79,1.071,4.349,4.349,0,0,0,3.82,0,1.305,1.305,0,0,0,.793-1.071h0V907.113Z" transform="translate(-362.367 -740.283)" fill="#adadad"/>
              <path id="Trazado_879" data-name="Trazado 879" d="M367.769,915.405a1.3,1.3,0,0,0-.793-1.07,4.328,4.328,0,0,0-3.82,0,1.3,1.3,0,0,0-.79,1.07h0v14.959h0a1.3,1.3,0,0,0,.79,1.071,4.327,4.327,0,0,0,3.82,0,1.3,1.3,0,0,0,.793-1.071h0V915.405Z" transform="translate(-362.367 -723.769)" fill="#adadad"/>
              <path id="Trazado_880" data-name="Trazado 880" d="M367.769,923.7a1.3,1.3,0,0,0-.793-1.068,4.33,4.33,0,0,0-3.82,0,1.3,1.3,0,0,0-.79,1.068h0v14.962h0a1.3,1.3,0,0,0,.79,1.068,4.326,4.326,0,0,0,3.82,0,1.3,1.3,0,0,0,.793-1.068h0V923.7Z" transform="translate(-362.367 -707.255)" fill="#adadad"/>
              <path id="Trazado_881" data-name="Trazado 881" d="M367.769,931.993a1.3,1.3,0,0,0-.793-1.071,4.328,4.328,0,0,0-3.82,0,1.3,1.3,0,0,0-.79,1.071h0v14.959h0a1.306,1.306,0,0,0,.79,1.071,4.324,4.324,0,0,0,3.82,0,1.3,1.3,0,0,0,.793-1.071h0V931.993Z" transform="translate(-362.367 -690.741)" fill="#adadad"/>
              <path id="Trazado_882" data-name="Trazado 882" d="M367.769,940.284a1.3,1.3,0,0,0-.793-1.07,4.345,4.345,0,0,0-3.82,0,1.306,1.306,0,0,0-.79,1.07h0v14.959h0a1.3,1.3,0,0,0,.79,1.071,4.326,4.326,0,0,0,3.82,0,1.3,1.3,0,0,0,.793-1.071h0V940.284Z" transform="translate(-362.367 -674.227)" fill="#adadad"/>
              <path id="Trazado_883" data-name="Trazado 883" d="M367.769,948.579a1.3,1.3,0,0,0-.793-1.071,4.328,4.328,0,0,0-3.82,0,1.3,1.3,0,0,0-.79,1.071h0v14.959h0a1.307,1.307,0,0,0,.79,1.071,4.346,4.346,0,0,0,3.82,0,1.305,1.305,0,0,0,.793-1.071h0V948.579Z" transform="translate(-362.367 -657.713)" fill="#adadad"/>
              <path id="Trazado_884" data-name="Trazado 884" d="M367.769,956.873a1.3,1.3,0,0,0-.793-1.071,4.326,4.326,0,0,0-3.82,0,1.3,1.3,0,0,0-.79,1.071h0v14.959h0a1.3,1.3,0,0,0,.79,1.07,4.326,4.326,0,0,0,3.82,0,1.3,1.3,0,0,0,.793-1.07h0V956.873Z" transform="translate(-362.367 -641.201)" fill="#adadad"/>
            </g>
          </g>
          <path id="Trazado_885" data-name="Trazado 885" d="M391.909,845.984c0-2.468-1.681-4.932-5.037-6.814-6.712-3.766-17.6-3.766-24.316,0-3.356,1.882-5.034,4.346-5.034,6.814h0v43.928h0c0,2.468,1.678,4.936,5.034,6.817,6.715,3.763,17.6,3.763,24.316,0,3.356-1.881,5.037-4.349,5.037-6.817h0V845.984Z" transform="translate(-347.011 -786.525)" fill="#2d2d2d"/>
          <path id="Trazado_886" data-name="Trazado 886" d="M409.417,835.22c0-3.975-2.707-7.951-8.115-10.981-10.819-6.066-28.359-6.066-39.179,0-5.411,3.03-8.115,7.006-8.115,10.981h0V878.4h.129c-.365,4.224,2.231,8.51,7.986,11.735,10.819,6.066,28.36,6.066,39.179,0,5.752-3.225,8.351-7.511,7.987-11.735h.129V835.22Z" transform="translate(-354.008 -819.69)" fill="#515151"/>
        </g>
        <g id="Grupo_411" data-name="Grupo 411" transform="translate(0 109.355)">
          <path id="Trazado_887" data-name="Trazado 887" d="M302.278,888.4a1.308,1.308,0,0,0-.793-1.071,4.328,4.328,0,0,0-3.82,0,1.3,1.3,0,0,0-.79,1.071h0v31.431h0a1.3,1.3,0,0,0,.79,1.071,4.329,4.329,0,0,0,3.82,0,1.308,1.308,0,0,0,.793-1.071h0V888.4Z" transform="translate(-271.873 -795.238)" fill="#adadad"/>
          <path id="Trazado_888" data-name="Trazado 888" d="M296.876,917.162h0a1.3,1.3,0,0,0,.79,1.071,4.329,4.329,0,0,0,3.82,0,1.308,1.308,0,0,0,.793-1.071h0V902.2h0a1.312,1.312,0,0,0-.793-1.071,4.35,4.35,0,0,0-3.82,0,1.308,1.308,0,0,0-.79,1.071h0" transform="translate(-271.873 -767.758)" fill="#adadad"/>
          <path id="Trazado_889" data-name="Trazado 889" d="M302.278,910.5a1.308,1.308,0,0,0-.793-1.071,4.331,4.331,0,0,0-3.82,0,1.3,1.3,0,0,0-.79,1.071h0v14.959h0a1.307,1.307,0,0,0,.79,1.071,4.348,4.348,0,0,0,3.82,0,1.312,1.312,0,0,0,.793-1.071h0V910.5Z" transform="translate(-271.873 -751.244)" fill="#adadad"/>
          <path id="Trazado_890" data-name="Trazado 890" d="M302.278,918.791h0a1.307,1.307,0,0,0-.793-1.071,4.329,4.329,0,0,0-3.82,0,1.3,1.3,0,0,0-.79,1.071h0v14.959h0a1.3,1.3,0,0,0,.79,1.071,4.329,4.329,0,0,0,3.82,0,1.307,1.307,0,0,0,.793-1.071h0" transform="translate(-271.873 -734.731)" fill="#adadad"/>
          <path id="Trazado_891" data-name="Trazado 891" d="M302.278,927.083a1.311,1.311,0,0,0-.793-1.07,4.349,4.349,0,0,0-3.82,0,1.306,1.306,0,0,0-.79,1.07h0v14.96h0a1.306,1.306,0,0,0,.79,1.074,4.347,4.347,0,0,0,3.82,0,1.311,1.311,0,0,0,.793-1.074h0v-14.96Z" transform="translate(-271.873 -718.217)" fill="#adadad"/>
          <path id="Trazado_892" data-name="Trazado 892" d="M302.278,935.378h0a1.306,1.306,0,0,0-.793-1.071,4.328,4.328,0,0,0-3.82,0,1.3,1.3,0,0,0-.79,1.071h0v14.959h0a1.3,1.3,0,0,0,.79,1.071,4.347,4.347,0,0,0,3.82,0,1.307,1.307,0,0,0,.793-1.071h0" transform="translate(-271.873 -701.704)" fill="#adadad"/>
          <path id="Trazado_893" data-name="Trazado 893" d="M302.278,943.671a1.311,1.311,0,0,0-.793-1.071,4.347,4.347,0,0,0-3.82,0,1.307,1.307,0,0,0-.79,1.071h0v14.958h0a1.3,1.3,0,0,0,.79,1.071,4.326,4.326,0,0,0,3.82,0,1.306,1.306,0,0,0,.793-1.071h0V943.671Z" transform="translate(-271.873 -685.189)" fill="#adadad"/>
          <path id="Trazado_894" data-name="Trazado 894" d="M302.278,951.962h0a1.3,1.3,0,0,0-.793-1.068,4.328,4.328,0,0,0-3.82,0,1.3,1.3,0,0,0-.79,1.068h0v14.962h0a1.307,1.307,0,0,0,.79,1.071,4.345,4.345,0,0,0,3.82,0,1.312,1.312,0,0,0,.793-1.071h0" transform="translate(-271.873 -668.676)" fill="#adadad"/>
          <path id="Trazado_895" data-name="Trazado 895" d="M302.278,960.259a1.307,1.307,0,0,0-.793-1.07,4.325,4.325,0,0,0-3.82,0,1.3,1.3,0,0,0-.79,1.07h0v14.959h0a1.3,1.3,0,0,0,.79,1.071,4.329,4.329,0,0,0,3.82,0,1.308,1.308,0,0,0,.793-1.071h0V960.259Z" transform="translate(-271.873 -652.163)" fill="#adadad"/>
          <path id="Trazado_896" data-name="Trazado 896" d="M302.278,968.551h0a1.311,1.311,0,0,0-.793-1.071,4.346,4.346,0,0,0-3.82,0,1.306,1.306,0,0,0-.79,1.071h0v14.958h0a1.3,1.3,0,0,0,.79,1.071,4.328,4.328,0,0,0,3.82,0,1.3,1.3,0,0,0,.793-1.071h0" transform="translate(-271.873 -635.648)" fill="#adadad"/>
          <path id="Trazado_897" data-name="Trazado 897" d="M302.278,976.846a1.3,1.3,0,0,0-.793-1.071,4.327,4.327,0,0,0-3.82,0,1.3,1.3,0,0,0-.79,1.071h0V991.8h0a1.306,1.306,0,0,0,.79,1.071,4.348,4.348,0,0,0,3.82,0,1.311,1.311,0,0,0,.793-1.071h0V976.846Z" transform="translate(-271.873 -619.134)" fill="#adadad"/>
          <path id="Trazado_898" data-name="Trazado 898" d="M302.278,985.138h0a1.308,1.308,0,0,0-.793-1.071,4.329,4.329,0,0,0-3.82,0,1.3,1.3,0,0,0-.79,1.071h0V1000.1h0a1.3,1.3,0,0,0,.79,1.071,4.328,4.328,0,0,0,3.82,0,1.307,1.307,0,0,0,.793-1.071h0" transform="translate(-271.873 -602.622)" fill="#adadad"/>
          <path id="Trazado_899" data-name="Trazado 899" d="M302.278,993.43a1.311,1.311,0,0,0-.793-1.071,4.345,4.345,0,0,0-3.82,0,1.307,1.307,0,0,0-.79,1.071h0v14.962h0a1.3,1.3,0,0,0,.79,1.068,4.329,4.329,0,0,0,3.82,0,1.3,1.3,0,0,0,.793-1.068h0V993.43Z" transform="translate(-271.873 -586.107)" fill="#adadad"/>
          <path id="Trazado_900" data-name="Trazado 900" d="M326.418,882.544c0-2.468-1.681-4.935-5.037-6.817-6.715-3.763-17.6-3.763-24.315,0-3.356,1.882-5.034,4.349-5.034,6.817h0v43.929h0c0,2.468,1.678,4.932,5.034,6.813,6.715,3.766,17.6,3.766,24.315,0,3.356-1.881,5.034-4.346,5.037-6.813h0V882.544Z" transform="translate(-281.52 -823.083)" fill="#2d2d2d"/>
          <path id="Trazado_901" data-name="Trazado 901" d="M343.926,871.779c0-3.973-2.707-7.948-8.115-10.981-10.819-6.066-28.363-6.066-39.182,0-5.408,3.033-8.112,7.008-8.112,10.981h0V914.96h.129c-.365,4.221,2.231,8.507,7.984,11.731,10.819,6.066,28.362,6.066,39.182,0,5.752-3.225,8.348-7.511,7.986-11.731h.129V871.779Z" transform="translate(-288.517 -856.249)" fill="#515151"/>
        </g>
      </g>
      <g id="Cloud">
        <path id="Trazado_902" data-name="Trazado 902" d="M1047.3,883.444l.048-.093-2.2-1.235c-.449-.245-.879-.524-1.337-.751l-48.55-27.223c.015-1.1.063-2.211.063-3.308,0-57.9-20.074-98.458-51.679-115.514l.078-.018-93.364-52.364.045.1c-25.667-14.346-59.1-13.024-95.7,7.493-16.141,9.051-31.665,21.157-46.184,35.547a98.1,98.1,0,0,0-20.176-15.548l.012-.006-90.245-50.407.027.1c-33.017-21.255-77.239-20.828-125.893,6.449C370.069,723.938,287.237,877.611,287.237,1009.9a272.271,272.271,0,0,0,3.407,43.8l-12.749,7.146c-65.008,36.445-117.7,134.212-117.7,218.369v0c0,46.471,16.09,79.6,41.425,93.846l-.057.018,94.471,52.968.006-.033c20.514,11.417,47.046,10.511,76.042-5.746L543.268,1324.3l455.978-255.628c39-21.863,70.619-80.526,70.619-131.02h0C1069.865,911.226,1061.152,892.372,1047.3,883.444Z" transform="translate(-160.192 -645.141)" fill="#2d2d2d"/>
        <path id="Trazado_903" data-name="Trazado 903" d="M580.093,716.41h-.1c-25.509-13.814-58.643-12.222-94.764,8.055-16.975,9.551-33.277,22.431-48.419,37.791l-85.6-48.281-8.393-4.729c.676-.7,1.4-1.406,2.076-2.061,14.516-14.376,30.044-26.457,46.151-35.542,36.606-20.514,70.074-21.823,95.73-7.493l-.048-.1Z" transform="translate(203.448 -626.264)" fill="#353535"/>
        <path id="Trazado_904" data-name="Trazado 904" d="M344.892,672.194c2.22,2.154,4.292,4.4,6.318,6.79l-8.393-4.729C343.492,673.552,344.216,672.849,344.892,672.194Z" transform="translate(203.448 -591.273)" fill="#fff" opacity="0.8"/>
        <path id="Trazado_905" data-name="Trazado 905" d="M558.989,709.248l-.051.045c-32.212-17.418-73.978-15.4-119.6,10.164-46.345,25.988-88.737,71.834-121.191,126.528l-94.139-52.774c32.457-54.7,74.8-100.54,121.144-126.579,48.661-27.253,92.886-27.675,125.92-6.413l-.048-.1Z" transform="translate(-33.122 -645.138)" fill="#353535"/>
        <path id="Trazado_906" data-name="Trazado 906" d="M374.783,834.559,362,841.675c-44.03,24.68-82.464,77.594-102.574,135.334l-94.187-52.822c16.06-46.031,43.74-88.928,76.631-116.977L280.6,781.734Z" transform="translate(-150.138 -373.157)" fill="#353535"/>
        <path id="Trazado_907" data-name="Trazado 907" d="M936.548,850.68l-6.754,3.787a277.623,277.623,0,0,0,2.833-38.769c0-104.7-65.561-152.829-146.434-107.492-37.516,21.031-71.72,58.493-97.63,103.052-3.655-126.067-84.98-182.9-184.832-126.922C401.554,741.618,318.725,895.294,318.725,1027.58a272.256,272.256,0,0,0,3.4,43.8l-12.748,7.149c-65,36.442-117.7,134.209-117.7,218.366v0c0,84.157,52.7,124.682,117.7,88.237l171.189-95.969h0l455.978-255.628c39-21.862,70.619-80.523,70.619-131.02h0C1007.167,852.024,975.55,828.815,936.548,850.68Z" transform="translate(-97.493 -610.006)" fill="#00dfbf"/>
        <path id="Trazado_908" data-name="Trazado 908" d="M936.548,850.68l-6.754,3.787a277.623,277.623,0,0,0,2.833-38.769c0-104.7-65.561-152.829-146.434-107.492-37.516,21.031-71.72,58.493-97.63,103.052-3.655-126.067-84.98-182.9-184.832-126.922C401.554,741.618,318.725,895.294,318.725,1027.58a272.256,272.256,0,0,0,3.4,43.8l-12.748,7.149c-65,36.442-117.7,134.209-117.7,218.366v0c0,84.157,52.7,124.682,117.7,88.237l171.189-95.969h0l455.978-255.628c39-21.862,70.619-80.523,70.619-131.02h0C1007.167,852.024,975.55,828.815,936.548,850.68Z" transform="translate(-97.493 -610.006)" fill="#161616"/>
        <path id="Trazado_909" data-name="Trazado 909" d="M247.464,1359.561c-28.988-.006-47.722-30.717-47.722-78.25,0-75.273,48.38-165.987,105.646-198.092l12.751-7.149a23.19,23.19,0,0,0,11.755-23.938h0a250.486,250.486,0,0,1-3.108-40.139c0-124.619,77.583-269.5,172.945-322.965,21.8-12.222,42.445-18.414,61.368-18.414,51.6,0,85.061,48.173,87.307,125.719h0c.685,23.714,33.086,31.512,45.1,10.852h0c24.8-42.639,56.3-76.129,88.692-94.288,16.482-9.237,31.982-13.924,46.079-13.924,38.99,0,64.182,39.7,64.182,101.141a255.6,255.6,0,0,1-2.606,35.583h0c-2.728,19.29,18.579,33.2,35.945,23.46l6.751-3.787c5.944-3.329,11.468-5.091,15.982-5.091,12.757,0,18.471,18.408,18.471,36.654,0,42.233-26.822,92.949-58.565,110.746l-627.164,351.6c-12.174,6.823-23.547,10.284-33.807,10.284Z" transform="translate(-81.44 -594.419)" fill="#fff" opacity="0.7"/>
      </g>
    </g>
    <g id="wifi" transform="matrix(-0.966, 0.259, -0.259, -0.966, 3190.804, 9157.655)">
      <path id="Trazado_970" data-name="Trazado 970" d="M194.295,39.873a10.418,10.418,0,0,1,1.792,12.312c-7.6,13.822-26.648,19.947-41.029,9.293a94.929,94.929,0,0,0-112.77,0C27.925,72.117,8.868,66.018,1.258,52.186A10.418,10.418,0,0,1,3.049,39.873,134.6,134.6,0,0,1,194.295,39.873Z" transform="translate(80.65 121.57)"/>
      <path id="Trazado_971" data-name="Trazado 971" d="M248.986,85.068a155.4,155.4,0,0,0-218.522,0,10.538,10.538,0,0,1-9.972,2.741A27.233,27.233,0,0,1,.044,64.06,10.492,10.492,0,0,1,3.179,55.6a195.473,195.473,0,0,1,273.091,0,10.491,10.491,0,0,1,3.135,8.461,27.237,27.237,0,0,1-20.444,23.749,10.536,10.536,0,0,1-9.975-2.739Z" transform="translate(39.598 60.585)"/>
      <path id="Trazado_972" data-name="Trazado 972" d="M350.579,102.2a31.645,31.645,0,0,1-2.822,2.479,10.435,10.435,0,0,1-13.8-.974c-85.066-86.22-224.124-86.259-309.31.043a10.483,10.483,0,0,1-14.076.755q-1.02-.833-1.974-1.776C-3.918,90.373-2.02,72.267,9.453,62.474c97.571-83.282,242.126-83.317,339.739,0a26.964,26.964,0,0,1,1.387,39.721Z" transform="translate(0 0)"/>
      <circle id="Elipse_146" data-name="Elipse 146" cx="28.017" cy="28.017" r="28.017" transform="translate(151.305 212.955)"/>
    </g>
    <g id="wifi-2" data-name="wifi" transform="translate(2868.635 10087.248) rotate(45)">
      <path id="Trazado_970-2" data-name="Trazado 970" d="M194.295,39.873a10.418,10.418,0,0,1,1.792,12.312c-7.6,13.822-26.648,19.947-41.029,9.293a94.929,94.929,0,0,0-112.77,0C27.925,72.117,8.868,66.018,1.258,52.186A10.418,10.418,0,0,1,3.049,39.873,134.6,134.6,0,0,1,194.295,39.873Z" transform="translate(80.65 121.57)"/>
      <path id="Trazado_971-2" data-name="Trazado 971" d="M248.986,85.068a155.4,155.4,0,0,0-218.522,0,10.538,10.538,0,0,1-9.972,2.741A27.233,27.233,0,0,1,.044,64.06,10.492,10.492,0,0,1,3.179,55.6a195.473,195.473,0,0,1,273.091,0,10.491,10.491,0,0,1,3.135,8.461,27.237,27.237,0,0,1-20.444,23.749,10.536,10.536,0,0,1-9.975-2.739Z" transform="translate(39.598 60.585)"/>
      <path id="Trazado_972-2" data-name="Trazado 972" d="M350.579,102.2a31.645,31.645,0,0,1-2.822,2.479,10.435,10.435,0,0,1-13.8-.974c-85.066-86.22-224.124-86.259-309.31.043a10.483,10.483,0,0,1-14.076.755q-1.02-.833-1.974-1.776C-3.918,90.373-2.02,72.267,9.453,62.474c97.571-83.282,242.126-83.317,339.739,0a26.964,26.964,0,0,1,1.387,39.721Z" transform="translate(0 0)"/>
      <circle id="Elipse_146-2" data-name="Elipse 146" cx="28.017" cy="28.017" r="28.017" transform="translate(151.305 212.955)"/>
    </g>
  </g>
</svg>
