<svg xmlns="http://www.w3.org/2000/svg" xmlns:xlink="http://www.w3.org/1999/xlink" width="5293.762" height="2171.348" viewBox="0 0 5293.762 2171.348">
  <defs>
    <linearGradient id="linear-gradient" y1="0.5" x2="1" y2="0.5" gradientUnits="objectBoundingBox">
      <stop offset="0" stop-color="#17e8f7"/>
      <stop offset="0.219" stop-color="#5ab0d7"/>
      <stop offset="0.671" stop-color="#e24098"/>
    </linearGradient>
  </defs>
  <g id="Grupo_432" data-name="Grupo 432" transform="translate(14954.818 -10880.477)">
    <g id="Grupo_431" data-name="Grupo 431" transform="translate(-10449.818 1630)">
      <g id="Grupo_429" data-name="Grupo 429" transform="translate(-216.052 11360.193) rotate(-120)">
        <g id="Grupo_428" data-name="Grupo 428" transform="translate(0 0)">
          <g id="Grupo_426" data-name="Grupo 426">
            <path id="Trazado_940" data-name="Trazado 940" d="M65.314,37.705c-14.939,8.631-39.163,8.631-54.1,0S-3.736,15.093,11.2,6.468s39.17-8.624,54.11,0S80.255,29.081,65.314,37.705Z" transform="translate(435.595 895.536)" fill="#fff"/>
            <g id="Grupo_425" data-name="Grupo 425">
              <g id="Grupo_424" data-name="Grupo 424" transform="translate(132.673 0)">
                <path id="Trazado_941" data-name="Trazado 941" d="M661.264,112.429C599.547,76.208,534.632,49.687,478.317,9.232V5.4a32.311,32.311,0,0,0-6.276-.815C470,3.06,467.938,1.565,465.921,0c.007,1.631.02,3.105.027,4.462-5.233-.032-10.471-.3-15.71-3.432V141.076c0,203.172-123.546,439.793-275.406,527.476L132.7,692.874C85.393,720.19,39.614,730.041,0,722.069v28.556a167.66,167.66,0,0,0,27.434,2.3,192.22,192.22,0,0,0,35.373-3.387l6.727,19.814s66.193,67.478,71.542,64.856,68.862,18.052,72.2,16.715,70.205-10.027,78.9-12.037,58.168-31.426,58.168-31.426l73.141-50.809L493.421,704.5l84.91-123.024,65.521-165.136,19.389-87.794S661.513,140.985,661.264,112.429Z" transform="translate(156.753 304.812)" fill="#161616"/>
                <path id="Trazado_942" data-name="Trazado 942" d="M7.34,730.511c39.614,7.965,85.393-1.886,132.7-29.2l42.133-24.328c151.86-87.677,275.406-324.3,275.406-527.476V9.466c5.239,3.138,10.477,3.4,15.71,3.438-.007-1.357-.019-2.838-.027-4.463,2.017,1.566,4.072,3.06,6.113,4.58a35.152,35.152,0,0,1,5.559.685c-2.193-1.514-4.45-2.923-6.616-4.475V5.4a32.311,32.311,0,0,0-6.276-.815C470,3.06,467.938,1.565,465.921,0c.007,1.631.02,3.105.027,4.469-5.233-.039-10.471-.306-15.71-3.438V141.076c0,203.172-123.546,439.793-275.406,527.476L132.7,692.874c-47.306,27.31-93.085,37.168-132.7,29.2v28.549c2.42.4,4.893.626,7.34.926Z" transform="translate(156.753 304.812)" fill="#fff"/>
                <path id="Trazado_943" data-name="Trazado 943" d="M482.472,1.11,480.548,0C455.854,183.763,344.118,376.659,210.3,453.918L168.17,478.246C105.937,514.174,46.379,519.837,0,494.5q2.68,1.723,5.434,3.321c46.732,26.977,107.38,21.693,170.76-14.9L218.327,458.6C352.142,381.337,463.879,188.441,488.566,4.678l1.924,1.115c4.579,2.643,10.5,4.058,16.812,4.4.242-1.624.522-3.255.751-4.873C498.613,6.263,489.134,4.958,482.472,1.11Z" transform="translate(310.995 629.031)" fill="#fff"/>
                <path id="Trazado_944" data-name="Trazado 944" d="M283.281,316.286l-.02-196.361L222.4,94.162,0,0V195.624l.019.006c.072,4.241,2.662,8.279,7.907,11.306L226.268,333c11.743,6.778,32.248,5.924,45.8-1.9,7.353-4.247,11.117-9.669,11.182-14.829Z" transform="translate(575.219 301.824)" fill="#2d2d2d"/>
                <path id="Trazado_945" data-name="Trazado 945" d="M283.261,119.924,218.4,94.161,0,0Z" transform="translate(571.205 297.811)" fill="#2c2660"/>
                <path id="Trazado_946" data-name="Trazado 946" d="M0,0V234.227c9.682.424,20.186-1.7,28.249-6.355,7.352-4.247,11.117-9.669,11.183-14.829l.026.013L39.438,16.7Z" transform="translate(819.042 405.054)" fill="#2d2d2d"/>
                <path id="Trazado_947" data-name="Trazado 947" d="M226.269,158.979,7.922,32.915C-3.815,26.137-2.34,14.3,11.217,6.473h0c13.55-7.822,34.062-8.677,45.8-1.9L275.362,130.639c11.737,6.778,10.269,18.619-3.288,26.442h0C258.517,164.91,238.012,165.758,226.269,158.979Z" transform="translate(575.217 280.28)" fill="#2d2d2d"/>
                <path id="Trazado_948" data-name="Trazado 948" d="M531.273,21.3c-.287-.17-.561-.352-.848-.515-.2-.117-.4-.209-.594-.32L528,19.411l-.189-.013C472.433-11.18,402.9-5.5,331.585,35.675L289.453,60C129.848,152.149,0,399.678,0,611.795V796.334C0,910.825,38.146,998.508,104.646,1036.9c3.477,2.01,7.027,3.836,10.615,5.546l-.085.006,183.013,106.205-52.18-64.131L224.949,991.26l-4.012-107.307-1-66.193V670.335l13.041-74.211,14.04-60.178,29.083-76.86,27.578-58.527,25.574-36.606,34.6-58.162,23.571-28.582,35.6-27.583L449.1,226.562l66.18-49.641,60.015-28.752,52.147-14.039,47.469,1.338,48.441-3.086Z" transform="translate(0 0)" fill="#161616"/>
                <path id="Trazado_949" data-name="Trazado 949" d="M235.57,281.4l-2.257-3.967.665.039-5.937-43.437c-.574-17.471-1.082-32.784-1.082-32.784S204.9,95.61,203.563,93.607s-31.426-53.491-31.426-53.491L73.187,0S11.006,4.012,11.006,6.022a14.117,14.117,0,0,0,.359,1.657C7.542,8.507,3.738,9.427,0,10.5,12.154,44.872,18.64,85.889,18.64,131.9v42.347c-.613,2.766.854,5.656,4.534,7.783L217.127,294.443c6.3,3.641,11.972-.717,18.274-4.358S241.872,285.029,235.57,281.4Z" transform="translate(588.352 129.446)" fill="#161616"/>
                <g id="Grupo_422" data-name="Grupo 422" transform="translate(222.659 1062.783)">
                  <path id="Trazado_950" data-name="Trazado 950" d="M4.234,0C2.818.267,1.415.463,0,.7l3.627,10.68s2.616,2.662,6.811,6.877Z" transform="translate(0)" fill="#2c2660"/>
                </g>
                <path id="Trazado_951" data-name="Trazado 951" d="M25.979,182.687V140.339c0-46.007-6.485-87.024-18.64-121.393,3.738-1.076,7.542-2,11.366-2.831a13.851,13.851,0,0,1-.359-1.657c0-2,62.18-6.015,62.18-6.015l95.8,38.837-4.188-7.163L73.187,0S11.006,4.012,11.006,6.022a14.117,14.117,0,0,0,.359,1.657C7.542,8.507,3.738,9.427,0,10.5,12.154,44.872,18.64,85.889,18.64,131.9v42.347c-.613,2.766.854,5.656,4.534,7.783l2.773,1.6A5.739,5.739,0,0,1,25.979,182.687Z" transform="translate(588.352 129.446)" fill="#fff"/>
                <path id="Trazado_952" data-name="Trazado 952" d="M635.122,302.592l-.051-41.2c0-114.484-38.146-202.167-104.652-240.561-55.787-32.215-126.41-26.925-198.84,14.895L289.445,60.048C129.841,152.2,0,399.735,0,611.845V796.384c0,114.49,38.139,202.174,104.645,240.568,24.1,13.916,50.953,20.831,79.535,20.831,37.585,0,78.158-11.971,119.305-35.725l42.132-24.328c140.13-80.9,257.2-281.591,283.706-472.922-9.434.946-18.913-.359-25.581-4.2l-1.925-1.115C577.13,703.254,465.392,896.15,331.578,973.408l-42.133,24.328c-63.381,36.594-124.028,41.878-170.76,14.9C61.1,979.391,28.079,900.574,28.079,796.384V611.845c0-203.172,123.546-439.8,275.406-527.476l42.132-24.328c36.711-21.2,72.509-31.89,105.22-31.89,23.754,0,45.878,5.643,65.541,17,57.581,33.24,90.606,112.064,90.606,216.246V309.24l.75.431c6.3,3.64,16.519,3.64,22.821,0,3.367-1.944,4.808-4.528,4.566-7.079Z" transform="translate(197.744 114.218)" fill="url(#linear-gradient)"/>
                <path id="Trazado_953" data-name="Trazado 953" d="M635.122,302.592l-.051-41.2c0-114.484-38.146-202.167-104.652-240.561-55.787-32.215-126.41-26.925-198.84,14.895L289.445,60.048C129.841,152.2,0,399.735,0,611.845V796.384c0,114.49,38.139,202.174,104.645,240.568,24.1,13.916,50.953,20.831,79.535,20.831,37.585,0,78.158-11.971,119.305-35.725l42.132-24.328c140.13-80.9,257.2-281.591,283.706-472.922-9.434.946-18.913-.359-25.581-4.2l-1.925-1.115C577.13,703.254,465.392,896.15,331.578,973.408l-42.133,24.328c-63.381,36.594-124.028,41.878-170.76,14.9C61.1,979.391,28.079,900.574,28.079,796.384V611.845c0-203.172,123.546-439.8,275.406-527.476l42.132-24.328c36.711-21.2,72.509-31.89,105.22-31.89,23.754,0,45.878,5.643,65.541,17,57.581,33.24,90.606,112.064,90.606,216.246V309.24l.75.431c6.3,3.64,16.519,3.64,22.821,0,3.367-1.944,4.808-4.528,4.566-7.079Z" transform="translate(197.744 114.218)" fill="#adadad"/>
                <path id="Trazado_954" data-name="Trazado 954" d="M516.6,20.829C460.807-11.38,390.191-6.1,317.754,35.723L275.622,60.052C146.811,134.426,37.422,310.014,0,486.509a40.7,40.7,0,0,1,8.123,4.234C45.636,314.4,154.939,139.038,283.646,64.729l42.132-24.321C397.159-.8,466.744-6.461,522.153,24.208,520.319,23.047,518.474,21.912,516.6,20.829Z" transform="translate(203.544 109.537)" fill="#fff"/>
                <path id="Trazado_955" data-name="Trazado 955" d="M5.428,0C3.621.815,1.814,1.468,0,2.081,17.863,46.471,45.042,80.454,80.129,100.7c.887.516,1.8.946,2.695,1.442C48.6,80.52,22.332,45.362,5.428,0Z" transform="translate(214.237 1045.781)" fill="#17e8f7"/>
                <g id="Grupo_423" data-name="Grupo 423" transform="translate(711.343 157.884)">
                  <path id="Trazado_956" data-name="Trazado 956" d="M2.779,1.481C1.866.952.926.5,0,0c54.338,34.917,85.367,112.07,85.367,213.05V260.9l.744.431a1.847,1.847,0,0,1,.19.143l7.084,4.1V217.727C93.385,113.544,60.36,34.721,2.779,1.481Z" transform="translate(0 0)" fill="#fff"/>
                </g>
              </g>
              <path id="Trazado_957" data-name="Trazado 957" d="M425.55,208.508,71.868,4.305C63.009-.816,54.906-1.2,48.636,2.263V2.224L0,30.382,35.882,44.226v413.3c0,26.5,16.114,57.281,35.986,68.757l338.24,195.284-8.423,38.237,47.163-27.284-.046-.013c7.783-4.305,12.736-14.562,12.736-29.234V277.259C461.537,250.764,445.429,219.977,425.55,208.508Z" transform="translate(12.317 397.546)" fill="#161616"/>
              <path id="Trazado_958" data-name="Trazado 958" d="M409.208,490.615l-.047-.02c7.783-4.306,12.735-14.562,12.735-29.234V35.341c0-11.639-3.236-24.048-8.409-35.341L0,238.735c5.846,19.325,18.019,37.428,32.229,45.629l338.24,195.291-8.423,38.237Z" transform="translate(51.957 639.463)" fill="#161616"/>
              <path id="Trazado_959" data-name="Trazado 959" d="M389.674,730.5,35.986,526.3C16.114,514.83,0,484.043,0,457.549V31.521c0-26.5,16.114-38.674,35.986-27.2l353.688,204.2c19.872,11.476,35.981,42.257,35.981,68.757V703.3C425.655,729.8,409.546,741.977,389.674,730.5Z" transform="translate(0 425.438)" fill="#d4ecff"/>
              <path id="Trazado_960" data-name="Trazado 960" d="M380.619,208.428,26.938,4.232C16.153-1.992,6.589-1.066,0,5.145c5.076-.731,10.81.307,17,3.875l353.688,204.2c19.872,11.476,35.981,42.257,35.981,68.751V708c0,12.122-3.478,21.053-9.042,26.292,11.253-1.618,18.984-12.832,18.984-31.08V277.185C416.606,250.685,400.5,219.9,380.619,208.428Z" transform="translate(18.991 420.734)" fill="#fff"/>
              <path id="Trazado_961" data-name="Trazado 961" d="M368.975,691.7,34.075,498.349C15.254,487.48,0,458.337,0,433.246V29.851C0,4.759,15.254-6.775,34.075,4.087l334.9,193.36c18.815,10.863,34.075,40.012,34.075,65.1V665.939C403.05,691.031,387.79,702.565,368.975,691.7Z" transform="translate(11.306 444.952)" fill="#2d2d2d"/>
              <path id="Trazado_962" data-name="Trazado 962" d="M29.906,10.674c0,9.532-6.694,21.125-14.953,25.894S0,37.476,0,27.937,6.694,6.806,14.953,2.043,29.906,1.137,29.906,10.674Z" transform="translate(435.565 879.012)" fill="#adadad"/>
            </g>
          </g>
          <g id="Grupo_427" data-name="Grupo 427" transform="translate(126.573 654.895)">
            <path id="Trazado_963" data-name="Trazado 963" d="M62.8,114.827,8.67,83.577C3.882,80.81,0,73.386,0,67V7.6C0,1.211,3.882-1.725,8.67,1.041L62.8,32.291c4.8,2.767,8.677,10.184,8.677,16.578v59.4C71.477,114.658,67.6,117.593,62.8,114.827Z" transform="translate(0 0)" fill="#adadad"/>
            <path id="Trazado_964" data-name="Trazado 964" d="M62.808,114.827,8.677,83.577C3.882,80.811,0,73.393,0,67.006V7.6C0,1.211,3.882-1.725,8.677,1.041L62.808,32.3c4.788,2.766,8.67,10.185,8.67,16.571v59.4C71.477,114.658,67.6,117.594,62.808,114.827Z" transform="translate(94.416 54.509)" fill="#161616"/>
            <path id="Trazado_965" data-name="Trazado 965" d="M62.8,114.827,8.67,83.577C3.882,80.811,0,73.386,0,67V7.6C0,1.211,3.882-1.725,8.67,1.041L62.8,32.292c4.8,2.766,8.677,10.184,8.677,16.577v59.4C71.477,114.658,67.6,117.593,62.8,114.827Z" transform="translate(0 105.527)" fill="#fff"/>
            <path id="Trazado_966" data-name="Trazado 966" d="M62.808,114.827,8.677,83.577C3.882,80.811,0,73.393,0,67.005V7.6C0,1.211,3.882-1.725,8.677,1.041L62.808,32.3c4.788,2.767,8.67,10.184,8.67,16.571v59.4C71.477,114.657,67.6,117.593,62.808,114.827Z" transform="translate(94.416 160.036)" fill="#606060"/>
          </g>
        </g>
      </g>
      <g id="Grupo_430" data-name="Grupo 430" transform="translate(-2092.799 9891.377) rotate(45)">
        <g id="Grupo_419" data-name="Grupo 419" transform="translate(0 0)">
          <g id="Grupo_415" data-name="Grupo 415">
            <path id="Trazado_914" data-name="Trazado 914" d="M773.692,965.559l324.05-286.271A44.631,44.631,0,0,0,1113,644.007l.07.035-.131-71.73-18.023,32.2c-1.168-1.178-2.341-2.351-3.62-3.475L428.382,19.053c-26.317-23.1-66.1-25.537-88.857-5.428L20.023,295.871C13.561,285.07,0,262.262,0,262.262l.152,70.164.01,0c-.479,15.817,6.9,32.667,21.76,45.715L684.836,960.126C711.152,983.23,750.935,985.662,773.692,965.559Z" transform="translate(0.006 72.122)" opacity="0.2"/>
            <path id="Trazado_915" data-name="Trazado 915" d="M23.15,19.078,4.487,35.515C2.01,37.7,0,35.384,0,30.343H0C0,25.3,2.01,19.44,4.487,17.26L23.15.823c2.483-2.186,4.492.131,4.492,5.172h0C27.641,11.041,25.632,16.9,23.15,19.078Z" transform="translate(925.775 842.98)" fill="#2d2d2d"/>
            <path id="Trazado_916" data-name="Trazado 916" d="M428.382,19.054c-26.317-23.1-66.1-25.537-88.857-5.434L20.023,295.872C13.561,285.07,0,262.263,0,262.263l.152,70.164.01,0c-.479,15.817,6.9,32.667,21.76,45.71L684.836,960.126a76.9,76.9,0,0,0,47.845,18.959l-.629-693.431Z" transform="translate(0.006 72.122)" fill="#161616"/>
            <path id="Trazado_917" data-name="Trazado 917" d="M15.346,299.894,339.395,13.624c22.757-20.108,62.54-17.676,88.857,5.433l662.909,581.989c26.322,23.1,29.208,58.139,6.451,78.241L773.562,965.559c-22.756,20.108-62.539,17.675-88.857-5.428L21.8,378.136C-4.526,355.032-7.411,320,15.346,299.894Z" fill="#fff"/>
            <path id="Trazado_918" data-name="Trazado 918" d="M773.517,633.989l324.05-286.271c11.739-10.368,16.6-24.71,15-39.334a44.517,44.517,0,0,1-15.243,31.68L773.271,626.329c-22.757,20.108-62.54,17.676-88.857-5.428L21.5,38.906C8.753,27.717,1.557,13.733.056,0c-.78,16.065,6.562,33.282,21.689,46.566L684.66,628.555C710.978,651.665,750.761,654.092,773.517,633.989Z" transform="translate(0.292 339.229)" fill="#fff"/>
            <path id="Trazado_919" data-name="Trazado 919" d="M11.4,285.2,322.784,10.124c16.915-14.941,46.48-13.138,66.044,4.039l653.492,573.725c19.564,17.172,21.709,43.212,4.8,58.153L735.741,921.113c-16.915,14.947-46.485,13.139-66.045-4.033L16.2,343.354C-3.36,326.177-5.511,300.142,11.4,285.2Z" transform="translate(28.898 25.979)" fill="#2d2d2d"/>
          </g>
          <g id="Grupo_417" data-name="Grupo 417" transform="translate(672.178 598.354)">
            <path id="Trazado_920" data-name="Trazado 920" d="M14.025,205.875,233.749,12.352,219.725,0,0,193.524Z" fill="#8e8e8e"/>
            <path id="Trazado_921" data-name="Trazado 921" d="M14.024,110.341,125.28,12.352,111.255,0,0,97.989Z" transform="translate(152.88 39.115)" fill="#8e8e8e"/>
            <path id="Trazado_922" data-name="Trazado 922" d="M14.025,44.132l36.084-31.78L36.084,0,0,31.78Z" transform="translate(98.889 152.876)" fill="#fff" opacity="0.85"/>
            <path id="Trazado_923" data-name="Trazado 923" d="M14.025,44.132l36.083-31.78L36.084,0,0,31.78Z" transform="translate(44.411 200.858)" fill="#fff"/>
            <path id="Trazado_924" data-name="Trazado 924" d="M14.025,91.879l90.294-79.527L90.294,0,0,79.527Z" transform="translate(151.636 19.557)" fill="#fff"/>
            <path id="Trazado_925" data-name="Trazado 925" d="M14.025,91.88l90.293-79.527L90.293,0,0,79.527Z" transform="translate(41.416 116.634)" fill="#8e8e8e"/>
            <g id="Grupo_416" data-name="Grupo 416" transform="translate(21.105 21.118)">
              <path id="Trazado_926" data-name="Trazado 926" d="M3.388,17.4a12.707,12.707,0,0,0,16.361,0,9.358,9.358,0,0,0,0-14.413,12.694,12.694,0,0,0-16.361,0A9.358,9.358,0,0,0,3.388,17.4Z" transform="translate(97.795)" fill="#fff" opacity="0.85"/>
              <path id="Trazado_927" data-name="Trazado 927" d="M3.388,17.4a12.707,12.707,0,0,0,16.362,0,9.358,9.358,0,0,0,0-14.412,12.694,12.694,0,0,0-16.362,0A9.358,9.358,0,0,0,3.388,17.4Z" transform="translate(73.347 21.533)" fill="#fff"/>
              <path id="Trazado_928" data-name="Trazado 928" d="M3.388,17.4A12.7,12.7,0,0,0,19.749,17.4a9.346,9.346,0,0,0,0-14.408,12.694,12.694,0,0,0-16.361,0A9.358,9.358,0,0,0,3.388,17.4Z" transform="translate(48.898 43.066)" fill="#d4ecff"/>
              <path id="Trazado_929" data-name="Trazado 929" d="M3.388,17.4A12.7,12.7,0,0,0,19.749,17.4a9.346,9.346,0,0,0,0-14.407,12.694,12.694,0,0,0-16.362,0A9.358,9.358,0,0,0,3.388,17.4Z" transform="translate(24.449 64.599)" fill="#fff" opacity="0.85"/>
              <path id="Trazado_930" data-name="Trazado 930" d="M3.388,17.4a12.7,12.7,0,0,0,16.361-.005,9.349,9.349,0,0,0,.005-14.407,12.713,12.713,0,0,0-16.366,0A9.358,9.358,0,0,0,3.388,17.4Z" transform="translate(0 86.137)" fill="#fff"/>
            </g>
          </g>
          <g id="Grupo_418" data-name="Grupo 418" transform="translate(139.357 121.144)">
            <path id="Trazado_931" data-name="Trazado 931" d="M14.379,45.248l37-32.584L37,0,0,32.583Z" transform="translate(51.515 146.906)" fill="#fff" opacity="0.85"/>
            <path id="Trazado_932" data-name="Trazado 932" d="M14.378,45.247l37-32.583L37,0,0,32.584Z" transform="translate(0 192.277)" fill="#fff"/>
            <path id="Trazado_933" data-name="Trazado 933" d="M14.378,45.248l37-32.584L36.995,0,0,32.584Z" transform="translate(216.76)" fill="#fff"/>
            <path id="Trazado_934" data-name="Trazado 934" d="M14.379,58.036,65.894,12.664,51.515,0,0,45.371Z" transform="translate(59.761 166.958)" fill="#fff"/>
            <path id="Trazado_935" data-name="Trazado 935" d="M14.38,32.573l22.6-19.909L22.6,0,0,19.909Z" transform="translate(22.766 225.004)" fill="#8e8e8e"/>
          </g>
        </g>
      </g>
      <g id="Grupo_413" data-name="Grupo 413" transform="translate(-4505 9250.477)">
        <g id="Server" transform="translate(223.836 937.392)">
          <g id="Grupo_364" data-name="Grupo 364" transform="translate(0 597.038)">
            <path id="Trazado_679" data-name="Trazado 679" d="M941.366,1295.1l-357.81,200.593L225.749,1295.1l357.81-200.592Z" transform="translate(-225.732 -1094.507)" fill="#515151"/>
            <path id="Trazado_680" data-name="Trazado 680" d="M583.592,1362.684l-.025-25.048-335.44-188.057-22.384,12.531Z" transform="translate(-225.744 -961.526)" opacity="0.1"/>
            <path id="Trazado_681" data-name="Trazado 681" d="M330.542,1353.822V1446.3c8.588,0,17.224-1.82,23.827-5.511l.01,0,155.029-86.92,164.61-92.322c7.929-4.436,14.314-15.182,14.314-24.056v-84.25Z" transform="translate(27.308 -952.666)" fill="#00dfbf"/>
            <path id="Trazado_682" data-name="Trazado 682" d="M330.542,1353.822V1446.3c8.588,0,17.224-1.82,23.827-5.511l.01,0,155.029-86.92,164.61-92.322c7.929-4.436,14.314-15.182,14.314-24.056v-84.25Z" transform="translate(27.308 -952.666)" fill="#adadad"/>
            <g id="Grupo_353" data-name="Grupo 353" transform="translate(491.998 243.345)">
              <path id="Trazado_683" data-name="Trazado 683" d="M559.174,1167.353l-177.426,99.469c-6.583,3.692-11.917,12.669-11.917,20.047l0,23.419c0,7.382,5.337,10.373,11.92,6.682L559.178,1217.5c6.583-3.688,11.921-12.665,11.917-20.044v-23.422C571.095,1166.653,565.758,1163.662,559.174,1167.353Z" transform="translate(-369.828 -1165.772)" fill="#2d2d2d"/>
              <g id="Grupo_352" data-name="Grupo 352" transform="translate(12.576 19.762)">
                <path id="Trazado_684" data-name="Trazado 684" d="M430.357,1173.211v11.36a5.1,5.1,0,0,1-2.383,4.012l-2.684,1.5c-1.315.737-2.383.141-2.383-1.338v-11.36a5.1,5.1,0,0,1,2.383-4.01l2.684-1.5C429.288,1171.138,430.357,1171.735,430.357,1173.211Z" transform="translate(-254.239 -1171.559)" fill="#fafafa"/>
                <path id="Trazado_685" data-name="Trazado 685" d="M426.829,1175.185v11.36a5.089,5.089,0,0,1-2.384,4.009l-2.684,1.506c-1.314.738-2.383.14-2.383-1.338v-11.361a5.1,5.1,0,0,1,2.383-4.009l2.684-1.5C425.76,1173.113,426.829,1173.711,426.829,1175.185Z" transform="translate(-262.758 -1166.791)" fill="#fafafa"/>
                <path id="Trazado_686" data-name="Trazado 686" d="M423.3,1177.161v11.36a5.079,5.079,0,0,1-2.384,4.008l-2.68,1.506c-1.318.737-2.384.14-2.384-1.339v-11.361a5.086,5.086,0,0,1,2.384-4.009l2.68-1.5C422.232,1175.088,423.3,1175.685,423.3,1177.161Z" transform="translate(-271.277 -1162.021)" fill="#fafafa"/>
                <path id="Trazado_687" data-name="Trazado 687" d="M419.772,1179.136V1190.5a5.078,5.078,0,0,1-2.384,4.008l-2.68,1.506c-1.318.737-2.387.14-2.387-1.339v-11.36a5.089,5.089,0,0,1,2.387-4.009l2.68-1.5C418.706,1177.063,419.772,1177.661,419.772,1179.136Z" transform="translate(-279.798 -1157.253)" fill="#adadad"/>
                <path id="Trazado_688" data-name="Trazado 688" d="M416.244,1181.11v11.362a5.092,5.092,0,0,1-2.383,4.008l-2.684,1.507c-1.315.737-2.383.14-2.383-1.339v-11.36a5.094,5.094,0,0,1,2.383-4.009l2.684-1.5C415.175,1179.038,416.244,1179.635,416.244,1181.11Z" transform="translate(-288.317 -1152.484)" fill="#adadad"/>
                <path id="Trazado_689" data-name="Trazado 689" d="M412.716,1183.085v11.361a5.089,5.089,0,0,1-2.387,4.009l-2.68,1.506c-1.318.738-2.383.14-2.383-1.339v-11.36a5.093,5.093,0,0,1,2.383-4.009l2.684-1.5C411.647,1181.013,412.716,1181.61,412.716,1183.085Z" transform="translate(-296.836 -1147.715)" fill="#fafafa"/>
                <path id="Trazado_690" data-name="Trazado 690" d="M409.184,1185.061v11.361a5.085,5.085,0,0,1-2.383,4.009l-2.681,1.505c-1.318.738-2.383.137-2.383-1.338v-11.361a5.086,5.086,0,0,1,2.383-4.009l2.681-1.5C408.119,1182.988,409.184,1183.586,409.184,1185.061Z" transform="translate(-305.355 -1142.946)" fill="#fafafa"/>
                <path id="Trazado_691" data-name="Trazado 691" d="M405.656,1187.036v11.36a5.087,5.087,0,0,1-2.384,4.009l-2.68,1.506c-1.318.737-2.383.14-2.383-1.338v-11.361a5.084,5.084,0,0,1,2.383-4.008l2.68-1.5C404.591,1184.963,405.656,1185.561,405.656,1187.036Z" transform="translate(-313.874 -1138.177)" fill="#fafafa"/>
                <path id="Trazado_692" data-name="Trazado 692" d="M402.131,1189.01v11.361a5.1,5.1,0,0,1-2.383,4.01l-2.684,1.5c-1.315.741-2.384.14-2.384-1.336v-11.36a5.091,5.091,0,0,1,2.384-4.008l2.684-1.5C401.062,1186.938,402.131,1187.535,402.131,1189.01Z" transform="translate(-322.395 -1133.408)" fill="#fafafa"/>
                <path id="Trazado_693" data-name="Trazado 693" d="M398.6,1190.986v11.361a5.093,5.093,0,0,1-2.383,4.009l-2.684,1.506c-1.315.738-2.384.137-2.384-1.338v-11.36a5.1,5.1,0,0,1,2.384-4.009l2.684-1.5C397.534,1188.911,398.6,1189.511,398.6,1190.986Z" transform="translate(-330.914 -1128.64)" fill="#fafafa"/>
                <path id="Trazado_694" data-name="Trazado 694" d="M395.075,1192.961l0,11.36a5.085,5.085,0,0,1-2.384,4.009l-2.68,1.5c-1.318.742-2.383.141-2.383-1.335v-11.36a5.085,5.085,0,0,1,2.383-4.009l2.68-1.5C394.006,1190.886,395.075,1191.487,395.075,1192.961Z" transform="translate(-339.433 -1123.871)" fill="#fafafa"/>
                <path id="Trazado_695" data-name="Trazado 695" d="M391.543,1194.936V1206.3a5.085,5.085,0,0,1-2.383,4.009l-2.681,1.5c-1.318.741-2.383.139-2.383-1.336v-11.361a5.083,5.083,0,0,1,2.383-4.008l2.681-1.5C390.478,1192.861,391.543,1193.461,391.543,1194.936Z" transform="translate(-347.952 -1119.102)" fill="#fafafa"/>
                <path id="Trazado_696" data-name="Trazado 696" d="M388.018,1196.911v11.361a5.093,5.093,0,0,1-2.383,4.009l-2.684,1.5c-1.315.738-2.383.14-2.383-1.335v-11.361a5.092,5.092,0,0,1,2.383-4.008l2.684-1.5C386.949,1194.835,388.018,1195.436,388.018,1196.911Z" transform="translate(-356.473 -1114.333)" fill="#adadad"/>
                <path id="Trazado_697" data-name="Trazado 697" d="M384.49,1198.886v11.361a5.093,5.093,0,0,1-2.383,4.008l-2.684,1.5c-1.315.74-2.384.139-2.384-1.336v-11.36a5.1,5.1,0,0,1,2.384-4.009l2.684-1.5C383.421,1196.811,384.49,1197.411,384.49,1198.886Z" transform="translate(-364.992 -1109.564)" fill="#fafafa"/>
                <path id="Trazado_698" data-name="Trazado 698" d="M380.962,1200.863v11.36a5.088,5.088,0,0,1-2.387,4.009l-2.68,1.5c-1.318.74-2.384.139-2.384-1.336v-11.36a5.086,5.086,0,0,1,2.384-4.009l2.68-1.505C379.893,1198.786,380.962,1199.387,380.962,1200.863Z" transform="translate(-373.511 -1104.796)" fill="#fafafa"/>
              </g>
            </g>
            <path id="Trazado_699" data-name="Trazado 699" d="M225.744,1153.249v84.25c0,8.875,6.44,19.62,14.314,24.056l142.258,79.759L559.752,1440.8c6.607,3.692,15.2,5.508,23.841,5.508v-92.482Z" transform="translate(-225.743 -952.666)" fill="#bfbfbf"/>
            <g id="Grupo_357" data-name="Grupo 357" transform="translate(44.706 255.976)">
              <path id="Trazado_700" data-name="Trazado 700" d="M250.757,1171.052l87.975,49.322c6.583,3.691,11.921,12.668,11.921,20.047v23.422c0,7.379-5.337,10.37-11.921,6.682L250.757,1221.2c-6.584-3.692-11.921-12.665-11.921-20.047v-23.418C238.836,1170.352,244.173,1167.361,250.757,1171.052Z" transform="translate(-238.836 -1169.471)" fill="#fff" opacity="0.75"/>
              <g id="Grupo_356" data-name="Grupo 356" transform="translate(20.433 24.26)">
                <g id="Grupo_354" data-name="Grupo 354">
                  <path id="Trazado_701" data-name="Trazado 701" d="M245.646,1180.3l5.467-3.063,0,0,.041-.021,0,.007c1.871-1.028,4.439-.871,7.28.721,5.723,3.209,10.36,11.009,10.36,17.425,0,3.2-1.158,5.453-3.025,6.5v0l-.007,0h0l-5.084,2.83-.915-1.489a10.689,10.689,0,0,1-2.974-1.124c-5.72-3.21-10.357-11.009-10.36-17.425a10.542,10.542,0,0,1,.324-2.567Z" transform="translate(-242.826 -1176.576)" fill="#00dfbf"/>
                  <path id="Trazado_702" data-name="Trazado 702" d="M245.646,1180.3l5.467-3.063,0,0,.041-.021,0,.007c1.871-1.028,4.439-.871,7.28.721,5.723,3.209,10.36,11.009,10.36,17.425,0,3.2-1.158,5.453-3.025,6.5v0l-.007,0h0l-5.084,2.83-.915-1.489a10.689,10.689,0,0,1-2.974-1.124c-5.72-3.21-10.357-11.009-10.36-17.425a10.542,10.542,0,0,1,.324-2.567Z" transform="translate(-242.826 -1176.576)" opacity="0.2"/>
                  <path id="Trazado_703" data-name="Trazado 703" d="M255.18,1178.809c5.723,3.206,10.36,11.009,10.36,17.425s-4.637,9.014-10.36,5.808-10.36-11.008-10.36-17.424S249.457,1175.6,255.18,1178.809Z" transform="translate(-244.82 -1174.505)" fill="#00dfbf"/>
                </g>
                <g id="Grupo_355" data-name="Grupo 355" transform="translate(44.974 25.204)">
                  <path id="Trazado_704" data-name="Trazado 704" d="M258.817,1187.687l5.467-3.064,0,0,.041-.02,0,.006c1.871-1.028,4.439-.87,7.28.72,5.723,3.206,10.36,11.009,10.36,17.425,0,3.2-1.157,5.453-3.025,6.505h0l-.007.007h0l-5.085,2.827-.915-1.489a10.8,10.8,0,0,1-2.974-1.119c-5.72-3.21-10.36-11.009-10.36-17.425a10.611,10.611,0,0,1,.324-2.572Z" transform="translate(-255.997 -1183.957)" fill="#00dfbf"/>
                  <path id="Trazado_705" data-name="Trazado 705" d="M258.817,1187.687l5.467-3.064,0,0,.041-.02,0,.006c1.871-1.028,4.439-.87,7.28.72,5.723,3.206,10.36,11.009,10.36,17.425,0,3.2-1.157,5.453-3.025,6.505h0l-.007.007h0l-5.085,2.827-.915-1.489a10.8,10.8,0,0,1-2.974-1.119c-5.72-3.21-10.36-11.009-10.36-17.425a10.611,10.611,0,0,1,.324-2.572Z" transform="translate(-255.997 -1183.957)" opacity="0.2"/>
                  <path id="Trazado_706" data-name="Trazado 706" d="M268.351,1186.189c5.723,3.206,10.36,11.009,10.36,17.425s-4.637,9.015-10.36,5.805-10.36-11.009-10.36-17.422S262.628,1182.98,268.351,1186.189Z" transform="translate(-257.991 -1181.886)" fill="#00dfbf"/>
                </g>
              </g>
            </g>
            <g id="Grupo_361" data-name="Grupo 361" transform="translate(44.706 255.976)">
              <path id="Trazado_707" data-name="Trazado 707" d="M250.757,1171.052l87.975,49.322c6.583,3.691,11.921,12.668,11.921,20.047v23.422c0,7.379-5.337,10.37-11.921,6.682L250.757,1221.2c-6.584-3.692-11.921-12.665-11.921-20.047v-23.418C238.836,1170.352,244.173,1167.361,250.757,1171.052Z" transform="translate(-238.836 -1169.471)" fill="#515151"/>
              <g id="Grupo_360" data-name="Grupo 360" transform="translate(20.433 24.26)">
                <g id="Grupo_358" data-name="Grupo 358">
                  <path id="Trazado_708" data-name="Trazado 708" d="M245.646,1180.3l5.467-3.063,0,0,.041-.021,0,.007c1.871-1.028,4.439-.871,7.28.721,5.723,3.209,10.36,11.009,10.36,17.425,0,3.2-1.158,5.453-3.025,6.5v0l-.007,0h0l-5.084,2.83-.915-1.489a10.689,10.689,0,0,1-2.974-1.124c-5.72-3.21-10.357-11.009-10.36-17.425a10.542,10.542,0,0,1,.324-2.567Z" transform="translate(-242.826 -1176.576)" fill="#686868"/>
                  <path id="Trazado_709" data-name="Trazado 709" d="M255.18,1178.809c5.723,3.206,10.36,11.009,10.36,17.425s-4.637,9.014-10.36,5.808-10.36-11.008-10.36-17.424S249.457,1175.6,255.18,1178.809Z" transform="translate(-244.82 -1174.505)" fill="#2d2d2d"/>
                </g>
                <g id="Grupo_359" data-name="Grupo 359" transform="translate(44.974 25.204)">
                  <path id="Trazado_710" data-name="Trazado 710" d="M258.817,1187.687l5.467-3.064,0,0,.041-.02,0,.006c1.871-1.028,4.439-.87,7.28.72,5.723,3.206,10.36,11.009,10.36,17.425,0,3.2-1.157,5.453-3.025,6.505h0l-.007.007h0l-5.085,2.827-.915-1.489a10.8,10.8,0,0,1-2.974-1.119c-5.72-3.21-10.36-11.009-10.36-17.425a10.611,10.611,0,0,1,.324-2.572Z" transform="translate(-255.997 -1183.957)" fill="#686868"/>
                  <path id="Trazado_711" data-name="Trazado 711" d="M268.351,1186.189c5.723,3.206,10.36,11.009,10.36,17.425s-4.637,9.015-10.36,5.805-10.36-11.009-10.36-17.422S262.628,1182.98,268.351,1186.189Z" transform="translate(-257.991 -1181.886)" fill="#2d2d2d"/>
                </g>
              </g>
            </g>
            <g id="Grupo_362" data-name="Grupo 362" transform="translate(437.114 383.52)">
              <path id="Trazado_712" data-name="Trazado 712" d="M376.91,1210.553l-5.467-3.063,0,0-.038-.021,0,.006c-1.875-1.027-4.442-.87-7.283.72-5.72,3.206-10.36,11.009-10.36,17.425,0,3.2,1.158,5.453,3.025,6.5v0l.01,0h0l5.084,2.827.919-1.489a10.606,10.606,0,0,0,2.971-1.12c5.72-3.209,10.36-11.009,10.36-17.425a10.436,10.436,0,0,0-.324-2.571Z" transform="translate(-353.755 -1206.823)" fill="#686868"/>
              <path id="Trazado_713" data-name="Trazado 713" d="M365.654,1209.055c-5.72,3.206-10.36,11.009-10.36,17.425s4.637,9.015,10.36,5.809,10.36-11.009,10.36-17.426S371.377,1205.845,365.654,1209.055Z" transform="translate(-350.039 -1204.752)" fill="#00dfbf"/>
              <path id="Trazado_714" data-name="Trazado 714" d="M365.654,1209.055c-5.72,3.206-10.36,11.009-10.36,17.425s4.637,9.015,10.36,5.809,10.36-11.009,10.36-17.426S371.377,1205.845,365.654,1209.055Z" transform="translate(-350.039 -1204.752)" fill="#2d2d2d"/>
            </g>
            <g id="Grupo_363" data-name="Grupo 363" transform="translate(392.14 408.723)">
              <path id="Trazado_715" data-name="Trazado 715" d="M363.739,1217.933l-5.467-3.063,0,0-.037-.021,0,.007c-1.875-1.028-4.443-.871-7.283.72-5.72,3.206-10.36,11.009-10.36,17.425,0,3.2,1.158,5.449,3.025,6.505h0l.01.007h0l5.084,2.827.918-1.489a10.792,10.792,0,0,0,2.971-1.12c5.72-3.21,10.36-11.008,10.36-17.424a10.45,10.45,0,0,0-.324-2.572Z" transform="translate(-340.584 -1214.204)" fill="#686868"/>
              <path id="Trazado_716" data-name="Trazado 716" d="M352.483,1216.437c-5.72,3.206-10.36,11.008-10.36,17.421s4.637,9.018,10.36,5.808,10.36-11.009,10.36-17.421S358.206,1213.226,352.483,1216.437Z" transform="translate(-336.868 -1212.133)" fill="#00dfbf"/>
              <path id="Trazado_717" data-name="Trazado 717" d="M352.483,1216.437c-5.72,3.206-10.36,11.008-10.36,17.421s4.637,9.018,10.36,5.808,10.36-11.009,10.36-17.421S358.206,1213.226,352.483,1216.437Z" transform="translate(-336.868 -1212.133)" fill="#2d2d2d"/>
            </g>
          </g>
          <g id="Grupo_374" data-name="Grupo 374" transform="translate(0.016 446.596)">
            <path id="Trazado_718" data-name="Trazado 718" d="M941.366,1251.04l-357.81,200.593L225.749,1251.042l357.81-200.593Z" transform="translate(-225.748 -1050.449)" fill="#515151"/>
            <path id="Trazado_719" data-name="Trazado 719" d="M583.556,1318.653v-25.076l-335.44-188.057-22.367,12.541Z" transform="translate(-225.748 -917.469)" opacity="0.1"/>
            <path id="Trazado_720" data-name="Trazado 720" d="M688.344,1209.49,330.534,1410.083v-100.3l357.81-200.593Z" transform="translate(27.273 -908.602)" fill="#00dfbf"/>
            <path id="Trazado_721" data-name="Trazado 721" d="M688.344,1209.49,330.534,1410.083v-100.3l357.81-200.593Z" transform="translate(27.273 -908.602)" fill="#adadad"/>
            <g id="Grupo_366" data-name="Grupo 366" transform="translate(491.982 243.375)">
              <path id="Trazado_722" data-name="Trazado 722" d="M559.174,1123.3l-177.426,99.469c-6.583,3.69-11.917,12.665-11.917,20.047l0,23.417c0,7.382,5.337,10.374,11.92,6.682l177.429-99.469c6.583-3.691,11.921-12.665,11.917-20.048v-23.421C571.095,1122.6,565.758,1119.613,559.174,1123.3Z" transform="translate(-369.828 -1121.723)" fill="#2d2d2d"/>
              <g id="Grupo_365" data-name="Grupo 365" transform="translate(12.576 19.763)">
                <path id="Trazado_723" data-name="Trazado 723" d="M430.357,1129.162v11.36a5.092,5.092,0,0,1-2.383,4.009l-2.684,1.5c-1.315.741-2.383.14-2.383-1.336v-11.36a5.092,5.092,0,0,1,2.383-4.008l2.684-1.5C429.288,1127.089,430.357,1127.687,430.357,1129.162Z" transform="translate(-254.239 -1127.51)" fill="#fafafa"/>
                <path id="Trazado_724" data-name="Trazado 724" d="M426.829,1131.137V1142.5a5.093,5.093,0,0,1-2.384,4.009l-2.684,1.5c-1.314.741-2.383.14-2.383-1.335v-11.361a5.1,5.1,0,0,1,2.383-4.009l2.684-1.5C425.76,1129.064,426.829,1129.661,426.829,1131.137Z" transform="translate(-262.758 -1122.741)" fill="#adadad"/>
                <path id="Trazado_725" data-name="Trazado 725" d="M423.3,1133.112v11.361a5.086,5.086,0,0,1-2.384,4.009l-2.68,1.5c-1.318.741-2.384.14-2.384-1.336v-11.36a5.086,5.086,0,0,1,2.384-4.009l2.68-1.5C422.232,1131.037,423.3,1131.638,423.3,1133.112Z" transform="translate(-271.277 -1117.973)" fill="#fafafa"/>
                <path id="Trazado_726" data-name="Trazado 726" d="M419.772,1135.087v11.36a5.086,5.086,0,0,1-2.384,4.01l-2.68,1.5c-1.318.741-2.387.14-2.387-1.335v-11.361a5.089,5.089,0,0,1,2.387-4.009l2.68-1.5C418.706,1133.012,419.772,1133.613,419.772,1135.087Z" transform="translate(-279.798 -1113.205)" fill="#adadad"/>
                <path id="Trazado_727" data-name="Trazado 727" d="M416.244,1137.063v11.361a5.094,5.094,0,0,1-2.383,4.009l-2.684,1.5c-1.315.741-2.383.14-2.383-1.335v-11.36a5.1,5.1,0,0,1,2.383-4.009l2.684-1.506C415.175,1134.988,416.244,1135.589,416.244,1137.063Z" transform="translate(-288.317 -1108.437)" fill="#adadad"/>
                <path id="Trazado_728" data-name="Trazado 728" d="M412.716,1139.037V1150.4a5.089,5.089,0,0,1-2.387,4.008l-2.68,1.5c-1.318.737-2.383.139-2.383-1.336v-11.36a5.093,5.093,0,0,1,2.383-4.009l2.684-1.5C411.647,1136.961,412.716,1137.563,412.716,1139.037Z" transform="translate(-296.836 -1103.667)" fill="#fafafa"/>
                <path id="Trazado_729" data-name="Trazado 729" d="M409.184,1141.014v11.36a5.083,5.083,0,0,1-2.383,4.008l-2.681,1.5c-1.318.737-2.383.14-2.383-1.335v-11.361a5.086,5.086,0,0,1,2.383-4.009l2.681-1.5C408.119,1138.938,409.184,1139.538,409.184,1141.014Z" transform="translate(-305.355 -1098.899)" fill="#fafafa"/>
                <path id="Trazado_730" data-name="Trazado 730" d="M405.656,1142.989v11.361a5.085,5.085,0,0,1-2.384,4.009l-2.68,1.5c-1.318.737-2.383.14-2.383-1.335v-11.36a5.085,5.085,0,0,1,2.383-4.009l2.68-1.506C404.591,1140.913,405.656,1141.513,405.656,1142.989Z" transform="translate(-313.874 -1094.13)" fill="#fafafa"/>
                <path id="Trazado_731" data-name="Trazado 731" d="M402.131,1144.963v11.361a5.094,5.094,0,0,1-2.383,4.009l-2.684,1.5c-1.315.738-2.384.14-2.384-1.335v-11.36a5.092,5.092,0,0,1,2.384-4.009l2.684-1.506C401.062,1142.888,402.131,1143.485,402.131,1144.963Z" transform="translate(-322.395 -1089.362)" fill="#adadad"/>
                <path id="Trazado_732" data-name="Trazado 732" d="M398.6,1146.939v11.36a5.094,5.094,0,0,1-2.383,4.009l-2.684,1.5c-1.315.738-2.384.14-2.384-1.335v-11.361a5.094,5.094,0,0,1,2.384-4.008l2.684-1.505C397.534,1144.863,398.6,1145.461,398.6,1146.939Z" transform="translate(-330.914 -1084.593)" fill="#fafafa"/>
                <path id="Trazado_733" data-name="Trazado 733" d="M395.075,1148.914l0,11.361a5.085,5.085,0,0,1-2.384,4.01l-2.68,1.5c-1.318.737-2.383.14-2.383-1.336v-11.36a5.081,5.081,0,0,1,2.383-4.009l2.68-1.506C394.006,1146.838,395.075,1147.436,395.075,1148.914Z" transform="translate(-339.433 -1079.823)" fill="#adadad"/>
                <path id="Trazado_734" data-name="Trazado 734" d="M391.543,1150.889v11.36a5.084,5.084,0,0,1-2.383,4.009l-2.681,1.5c-1.318.738-2.383.14-2.383-1.335v-11.361a5.087,5.087,0,0,1,2.383-4.009l2.681-1.505C390.478,1148.813,391.543,1149.411,391.543,1150.889Z" transform="translate(-347.952 -1075.054)" fill="#fafafa"/>
                <path id="Trazado_735" data-name="Trazado 735" d="M388.018,1152.864v11.361a5.094,5.094,0,0,1-2.383,4.009l-2.684,1.5c-1.315.738-2.383.14-2.383-1.335V1157.04a5.087,5.087,0,0,1,2.383-4.008l2.684-1.506C386.949,1150.788,388.018,1151.385,388.018,1152.864Z" transform="translate(-356.473 -1070.285)" fill="#adadad"/>
                <path id="Trazado_736" data-name="Trazado 736" d="M384.49,1154.838V1166.2a5.1,5.1,0,0,1-2.383,4.009l-2.684,1.5c-1.315.738-2.384.141-2.384-1.334v-11.36a5.089,5.089,0,0,1,2.384-4.009l2.684-1.507C383.421,1152.763,384.49,1153.361,384.49,1154.838Z" transform="translate(-364.992 -1065.516)" fill="#fafafa"/>
                <path id="Trazado_737" data-name="Trazado 737" d="M380.962,1156.814v11.356a5.089,5.089,0,0,1-2.387,4.012l-2.68,1.5c-1.318.738-2.384.14-2.384-1.335v-11.361a5.081,5.081,0,0,1,2.384-4.009l2.68-1.506C379.893,1154.738,380.962,1155.335,380.962,1156.814Z" transform="translate(-373.511 -1060.747)" fill="#fafafa"/>
              </g>
            </g>
            <path id="Trazado_738" data-name="Trazado 738" d="M583.556,1410.081,225.748,1209.49v-100.3l357.807,200.591Z" transform="translate(-225.748 -908.601)" fill="#bfbfbf"/>
            <g id="Grupo_370" data-name="Grupo 370" transform="translate(44.69 255.862)">
              <path id="Trazado_739" data-name="Trazado 739" d="M250.757,1126.961l87.975,49.322c6.583,3.691,11.921,12.668,11.921,20.047v23.421c0,7.379-5.337,10.37-11.921,6.683l-87.975-49.324c-6.584-3.692-11.921-12.665-11.921-20.048v-23.417C238.836,1126.261,244.173,1123.27,250.757,1126.961Z" transform="translate(-238.836 -1125.38)" fill="#515151"/>
              <g id="Grupo_369" data-name="Grupo 369" transform="translate(20.433 24.262)">
                <g id="Grupo_367" data-name="Grupo 367">
                  <path id="Trazado_740" data-name="Trazado 740" d="M245.646,1136.213l5.467-3.063h0l.041-.024,0,.007c1.871-1.025,4.439-.871,7.28.72,5.723,3.206,10.36,11.009,10.36,17.425,0,3.2-1.158,5.454-3.025,6.505v0l-.007,0h0l-5.084,2.828-.915-1.49a10.564,10.564,0,0,1-2.974-1.12c-5.72-3.206-10.357-11.008-10.36-17.424a10.552,10.552,0,0,1,.324-2.568Z" transform="translate(-242.826 -1132.485)" fill="#686868"/>
                  <path id="Trazado_741" data-name="Trazado 741" d="M255.18,1134.716c5.723,3.206,10.36,11.009,10.36,17.426s-4.637,9.014-10.36,5.808-10.36-11.008-10.36-17.425S249.457,1131.51,255.18,1134.716Z" transform="translate(-244.82 -1130.415)" fill="#2d2d2d"/>
                </g>
                <g id="Grupo_368" data-name="Grupo 368" transform="translate(44.974 25.201)">
                  <path id="Trazado_742" data-name="Trazado 742" d="M258.817,1143.6l5.467-3.063,0,0,.041-.021,0,.006c1.871-1.028,4.439-.874,7.28.72,5.723,3.206,10.36,11.008,10.36,17.424,0,3.2-1.157,5.453-3.025,6.505h0l-.007.008h0L273.852,1168l-.915-1.488a10.785,10.785,0,0,1-2.974-1.12c-5.72-3.21-10.36-11.009-10.36-17.425a10.612,10.612,0,0,1,.324-2.571Z" transform="translate(-255.997 -1139.865)" fill="#686868"/>
                  <path id="Trazado_743" data-name="Trazado 743" d="M268.351,1142.1c5.723,3.207,10.36,11.009,10.36,17.422s-4.637,9.018-10.36,5.808-10.36-11.008-10.36-17.42S262.628,1138.889,268.351,1142.1Z" transform="translate(-257.991 -1137.794)" fill="#2d2d2d"/>
                </g>
              </g>
            </g>
            <path id="Trazado_744" data-name="Trazado 744" d="M643.619,1170.983l0-25.075L330.534,1321.43V1346.5Z" transform="translate(27.273 -819.95)" fill="#2d2d2d"/>
            <g id="Grupo_371" data-name="Grupo 371" transform="translate(22.357 313.422)">
              <path id="Trazado_745" data-name="Trazado 745" d="M232.3,1142.237l.011,25.074,335.44,188.056v-25.072Z" transform="translate(-232.296 -1142.237)" fill="#00dfbf"/>
              <path id="Trazado_746" data-name="Trazado 746" d="M232.3,1142.237l.011,25.074,335.44,188.056v-25.072Z" transform="translate(-232.296 -1142.237)" fill="#2d2d2d"/>
            </g>
            <g id="Grupo_372" data-name="Grupo 372" transform="translate(437.098 383.524)">
              <path id="Trazado_747" data-name="Trazado 747" d="M376.91,1166.495l-5.467-3.063h0l-.038-.023,0,.007c-1.875-1.024-4.442-.871-7.283.72-5.72,3.21-10.36,11.009-10.36,17.425,0,3.2,1.158,5.453,3.025,6.5v0l.01,0v0l5.084,2.827.919-1.489a10.73,10.73,0,0,0,2.971-1.123c5.72-3.206,10.36-11.009,10.36-17.425a10.389,10.389,0,0,0-.324-2.568Z" transform="translate(-353.755 -1162.766)" fill="#686868"/>
              <path id="Trazado_748" data-name="Trazado 748" d="M365.654,1165c-5.72,3.21-10.36,11.009-10.36,17.424s4.637,9.015,10.36,5.809,10.36-11.009,10.36-17.425S371.377,1161.791,365.654,1165Z" transform="translate(-350.039 -1160.696)" fill="#00dfbf"/>
              <path id="Trazado_749" data-name="Trazado 749" d="M365.654,1165c-5.72,3.21-10.36,11.009-10.36,17.424s4.637,9.015,10.36,5.809,10.36-11.009,10.36-17.425S371.377,1161.791,365.654,1165Z" transform="translate(-350.039 -1160.696)" fill="#2d2d2d"/>
            </g>
            <g id="Grupo_373" data-name="Grupo 373" transform="translate(392.124 408.726)">
              <path id="Trazado_750" data-name="Trazado 750" d="M363.739,1173.877l-5.467-3.063,0,0-.037-.021,0,.007c-1.875-1.028-4.443-.871-7.283.72-5.72,3.207-10.36,11.009-10.36,17.425,0,3.2,1.158,5.454,3.025,6.505h0l.01.007h0l5.084,2.827.918-1.488a10.694,10.694,0,0,0,2.971-1.121c5.72-3.209,10.36-11.009,10.36-17.424a10.435,10.435,0,0,0-.324-2.571Z" transform="translate(-340.584 -1170.147)" fill="#686868"/>
              <path id="Trazado_751" data-name="Trazado 751" d="M352.483,1172.38c-5.72,3.206-10.36,11.008-10.36,17.424s4.637,9.015,10.36,5.808,10.36-11.009,10.36-17.425S358.206,1169.169,352.483,1172.38Z" transform="translate(-336.868 -1168.076)" fill="#00dfbf"/>
              <path id="Trazado_752" data-name="Trazado 752" d="M352.483,1172.38c-5.72,3.206-10.36,11.008-10.36,17.424s4.637,9.015,10.36,5.808,10.36-11.009,10.36-17.425S358.206,1169.169,352.483,1172.38Z" transform="translate(-336.868 -1168.076)" fill="#2d2d2d"/>
            </g>
          </g>
          <g id="Grupo_384" data-name="Grupo 384" transform="translate(0.016 296.152)">
            <path id="Trazado_753" data-name="Trazado 753" d="M941.366,1206.982l-357.81,200.593L225.749,1206.984l357.81-200.593Z" transform="translate(-225.748 -1006.391)" fill="#515151"/>
            <path id="Trazado_754" data-name="Trazado 754" d="M583.556,1274.595v-25.076l-335.44-188.056L225.749,1074Z" transform="translate(-225.748 -873.411)" opacity="0.1"/>
            <path id="Trazado_755" data-name="Trazado 755" d="M688.344,1165.431,330.534,1366.023v-100.3l357.81-200.592Z" transform="translate(27.273 -864.544)" fill="#00dfbf"/>
            <path id="Trazado_756" data-name="Trazado 756" d="M688.344,1165.431,330.534,1366.023v-100.3l357.81-200.592Z" transform="translate(27.273 -864.544)" fill="#adadad"/>
            <g id="Grupo_376" data-name="Grupo 376" transform="translate(491.982 243.233)">
              <path id="Trazado_757" data-name="Trazado 757" d="M559.174,1079.2l-177.426,99.468c-6.583,3.692-11.917,12.666-11.917,20.049l0,23.417c0,7.383,5.337,10.374,11.92,6.683l177.429-99.47c6.583-3.69,11.921-12.664,11.917-20.047v-23.422C571.095,1078.5,565.758,1075.513,559.174,1079.2Z" transform="translate(-369.828 -1077.623)" fill="#2d2d2d"/>
              <g id="Grupo_375" data-name="Grupo 375" transform="translate(12.576 19.761)">
                <path id="Trazado_758" data-name="Trazado 758" d="M430.357,1085.063v11.36a5.1,5.1,0,0,1-2.383,4.009l-2.684,1.5c-1.315.741-2.383.14-2.383-1.335v-11.36a5.093,5.093,0,0,1,2.383-4.008l2.684-1.5C429.288,1082.987,430.357,1083.588,430.357,1085.063Z" transform="translate(-254.239 -1083.41)" fill="#fafafa"/>
                <path id="Trazado_759" data-name="Trazado 759" d="M426.829,1087.037V1098.4a5.093,5.093,0,0,1-2.384,4.008l-2.684,1.5c-1.314.74-2.383.14-2.383-1.336v-11.361a5.1,5.1,0,0,1,2.383-4.009l2.684-1.5C425.76,1084.962,426.829,1085.562,426.829,1087.037Z" transform="translate(-262.758 -1078.641)" fill="#fafafa"/>
                <path id="Trazado_760" data-name="Trazado 760" d="M423.3,1089.014v11.36a5.084,5.084,0,0,1-2.384,4.009l-2.68,1.5c-1.318.741-2.384.14-2.384-1.335v-11.36a5.085,5.085,0,0,1,2.384-4.009l2.68-1.5C422.232,1086.937,423.3,1087.538,423.3,1089.014Z" transform="translate(-271.277 -1073.873)" fill="#fafafa"/>
                <path id="Trazado_761" data-name="Trazado 761" d="M419.772,1090.988v11.361a5.083,5.083,0,0,1-2.384,4.008l-2.68,1.5c-1.318.738-2.387.14-2.387-1.335v-11.361a5.088,5.088,0,0,1,2.387-4.008l2.68-1.5C418.706,1088.912,419.772,1089.512,419.772,1090.988Z" transform="translate(-279.798 -1069.103)" fill="#fafafa"/>
                <path id="Trazado_762" data-name="Trazado 762" d="M416.244,1092.964v11.36a5.1,5.1,0,0,1-2.383,4.009l-2.684,1.5c-1.315.738-2.383.14-2.383-1.335v-11.361a5.093,5.093,0,0,1,2.383-4.008l2.684-1.506C415.175,1090.888,416.244,1091.486,416.244,1092.964Z" transform="translate(-288.317 -1064.336)" fill="#adadad"/>
                <path id="Trazado_763" data-name="Trazado 763" d="M412.716,1094.939v11.36a5.088,5.088,0,0,1-2.387,4.009l-2.68,1.5c-1.318.738-2.383.141-2.383-1.335v-11.361a5.1,5.1,0,0,1,2.383-4.009l2.684-1.506C411.647,1092.863,412.716,1093.463,412.716,1094.939Z" transform="translate(-296.836 -1059.566)" fill="#adadad"/>
                <path id="Trazado_764" data-name="Trazado 764" d="M409.184,1096.914v11.361a5.084,5.084,0,0,1-2.383,4.008l-2.681,1.5c-1.318.737-2.383.139-2.383-1.336v-11.36a5.088,5.088,0,0,1,2.383-4.009l2.681-1.506C408.119,1094.838,409.184,1095.436,409.184,1096.914Z" transform="translate(-305.355 -1054.798)" fill="#fafafa"/>
                <path id="Trazado_765" data-name="Trazado 765" d="M405.656,1098.889v11.361a5.083,5.083,0,0,1-2.384,4.008l-2.68,1.5c-1.318.738-2.383.14-2.383-1.335v-11.36a5.085,5.085,0,0,1,2.383-4.009l2.68-1.505C404.591,1096.813,405.656,1097.411,405.656,1098.889Z" transform="translate(-313.874 -1050.029)" fill="#fafafa"/>
                <path id="Trazado_766" data-name="Trazado 766" d="M402.131,1100.864v11.361a5.094,5.094,0,0,1-2.383,4.009l-2.684,1.5c-1.315.738-2.384.14-2.384-1.335V1105.04a5.087,5.087,0,0,1,2.384-4.008l2.684-1.506C401.062,1098.788,402.131,1099.385,402.131,1100.864Z" transform="translate(-322.395 -1045.26)" fill="#fafafa"/>
                <path id="Trazado_767" data-name="Trazado 767" d="M398.6,1102.839V1114.2a5.1,5.1,0,0,1-2.383,4.009l-2.684,1.5c-1.315.738-2.384.14-2.384-1.335v-11.361a5.088,5.088,0,0,1,2.384-4.009l2.684-1.506C397.534,1100.763,398.6,1101.36,398.6,1102.839Z" transform="translate(-330.914 -1040.49)" fill="#adadad"/>
                <path id="Trazado_768" data-name="Trazado 768" d="M395.075,1104.814l0,11.36a5.084,5.084,0,0,1-2.384,4.009l-2.68,1.5c-1.318.738-2.383.14-2.383-1.335v-11.36a5.079,5.079,0,0,1,2.383-4.009l2.68-1.506C394.006,1102.738,395.075,1103.335,395.075,1104.814Z" transform="translate(-339.433 -1035.722)" fill="#fafafa"/>
                <path id="Trazado_769" data-name="Trazado 769" d="M391.543,1106.789v11.361a5.088,5.088,0,0,1-2.383,4.008l-2.681,1.5c-1.318.738-2.383.14-2.383-1.335v-11.36a5.091,5.091,0,0,1,2.383-4.012l2.681-1.5C390.478,1104.712,391.543,1105.311,391.543,1106.789Z" transform="translate(-347.952 -1030.953)" fill="#fafafa"/>
                <path id="Trazado_770" data-name="Trazado 770" d="M388.018,1108.764v11.357a5.094,5.094,0,0,1-2.383,4.012l-2.684,1.5c-1.315.737-2.383.14-2.383-1.335v-11.36a5.09,5.09,0,0,1,2.383-4.009l2.684-1.505C386.949,1106.688,388.018,1107.285,388.018,1108.764Z" transform="translate(-356.473 -1026.184)" fill="#adadad"/>
                <path id="Trazado_771" data-name="Trazado 771" d="M384.49,1110.736V1122.1a5.1,5.1,0,0,1-2.383,4.008l-2.684,1.5c-1.315.738-2.384.14-2.384-1.335v-11.361a5.1,5.1,0,0,1,2.384-4.013l2.684-1.5C383.421,1108.663,384.49,1109.26,384.49,1110.736Z" transform="translate(-364.992 -1021.415)" fill="#fafafa"/>
                <path id="Trazado_772" data-name="Trazado 772" d="M380.962,1112.714v11.357a5.093,5.093,0,0,1-2.387,4.012l-2.68,1.5c-1.318.737-2.384.14-2.384-1.338v-11.357a5.093,5.093,0,0,1,2.384-4.013l2.68-1.5C379.893,1110.638,380.962,1111.235,380.962,1112.714Z" transform="translate(-373.511 -1016.646)" fill="#adadad"/>
              </g>
            </g>
            <path id="Trazado_773" data-name="Trazado 773" d="M583.556,1366.023,225.748,1165.431v-100.3l357.807,200.591Z" transform="translate(-225.748 -864.543)" fill="#bfbfbf"/>
            <g id="Grupo_380" data-name="Grupo 380" transform="translate(44.69 255.84)">
              <path id="Trazado_774" data-name="Trazado 774" d="M250.757,1082.9l87.975,49.325c6.583,3.688,11.921,12.665,11.921,20.044v23.421c0,7.379-5.337,10.374-11.921,6.682l-87.975-49.325c-6.584-3.687-11.921-12.665-11.921-20.043v-23.422C238.836,1082.2,244.173,1079.2,250.757,1082.9Z" transform="translate(-238.836 -1081.315)" fill="#515151"/>
              <g id="Grupo_379" data-name="Grupo 379" transform="translate(20.433 24.261)">
                <g id="Grupo_377" data-name="Grupo 377">
                  <path id="Trazado_775" data-name="Trazado 775" d="M245.646,1092.149l5.467-3.06,0,0,.041-.024,0,.006c1.871-1.024,4.439-.871,7.28.721,5.723,3.209,10.36,11.008,10.36,17.424,0,3.2-1.158,5.454-3.025,6.505v0l-.007,0,0,0-5.084,2.828-.915-1.488a10.737,10.737,0,0,1-2.974-1.123c-5.72-3.207-10.357-11.009-10.36-17.426a10.568,10.568,0,0,1,.324-2.568Z" transform="translate(-242.826 -1088.42)" fill="#686868"/>
                  <path id="Trazado_776" data-name="Trazado 776" d="M255.18,1090.652c5.723,3.21,10.36,11.009,10.36,17.425s-4.637,9.015-10.36,5.808-10.36-11.009-10.36-17.425S249.457,1087.445,255.18,1090.652Z" transform="translate(-244.82 -1086.349)" fill="#2d2d2d"/>
                </g>
                <g id="Grupo_378" data-name="Grupo 378" transform="translate(44.974 25.202)">
                  <path id="Trazado_777" data-name="Trazado 777" d="M258.817,1099.531l5.467-3.063,0,0,.041-.02,0,.006c1.871-1.028,4.439-.871,7.28.72,5.723,3.207,10.36,11.009,10.36,17.425,0,3.2-1.157,5.454-3.025,6.505v0l-.007,0h0l-5.085,2.827-.915-1.485a10.664,10.664,0,0,1-2.974-1.123c-5.72-3.209-10.36-11.009-10.36-17.425a10.539,10.539,0,0,1,.324-2.567Z" transform="translate(-255.997 -1095.801)" fill="#686868"/>
                  <path id="Trazado_778" data-name="Trazado 778" d="M268.351,1098.033c5.723,3.206,10.36,11.009,10.36,17.425s-4.637,9.014-10.36,5.808-10.36-11.009-10.36-17.426S262.628,1094.823,268.351,1098.033Z" transform="translate(-257.991 -1093.73)" fill="#2d2d2d"/>
                </g>
              </g>
            </g>
            <path id="Trazado_779" data-name="Trazado 779" d="M643.619,1126.925l0-25.076L330.534,1277.371v25.072Z" transform="translate(27.273 -775.891)" fill="#2d2d2d"/>
            <g id="Grupo_381" data-name="Grupo 381" transform="translate(22.357 313.422)">
              <path id="Trazado_780" data-name="Trazado 780" d="M232.3,1098.178l.011,25.074,335.44,188.057v-25.072Z" transform="translate(-232.296 -1098.178)" fill="#2d2d2d"/>
            </g>
            <g id="Grupo_382" data-name="Grupo 382" transform="translate(437.098 383.523)">
              <path id="Trazado_781" data-name="Trazado 781" d="M376.91,1122.437l-5.467-3.063,0,0-.038-.021,0,.007c-1.875-1.028-4.442-.871-7.283.721-5.72,3.206-10.36,11.008-10.36,17.424,0,3.2,1.158,5.453,3.025,6.505v0l.01,0h0l5.084,2.827.919-1.489a10.82,10.82,0,0,0,2.971-1.12c5.72-3.21,10.36-11.009,10.36-17.426a10.435,10.435,0,0,0-.324-2.571Z" transform="translate(-353.755 -1118.708)" fill="#686868"/>
              <path id="Trazado_782" data-name="Trazado 782" d="M365.654,1120.941c-5.72,3.206-10.36,11.008-10.36,17.424s4.637,9.015,10.36,5.8,10.36-11.009,10.36-17.422S371.377,1117.73,365.654,1120.941Z" transform="translate(-350.039 -1116.638)" fill="#00dfbf"/>
              <path id="Trazado_783" data-name="Trazado 783" d="M365.654,1120.941c-5.72,3.206-10.36,11.008-10.36,17.424s4.637,9.015,10.36,5.8,10.36-11.009,10.36-17.422S371.377,1117.73,365.654,1120.941Z" transform="translate(-350.039 -1116.638)" fill="#2d2d2d"/>
            </g>
            <g id="Grupo_383" data-name="Grupo 383" transform="translate(392.124 408.726)">
              <path id="Trazado_784" data-name="Trazado 784" d="M363.739,1129.819l-5.467-3.063,0,0-.037-.02,0,.007c-1.875-1.028-4.443-.875-7.283.72-5.72,3.206-10.36,11.009-10.36,17.425,0,3.2,1.158,5.45,3.025,6.505h0l.01.006h0l5.084,2.827.918-1.489a10.742,10.742,0,0,0,2.971-1.123c5.72-3.207,10.36-11.006,10.36-17.422a10.45,10.45,0,0,0-.324-2.572Z" transform="translate(-340.584 -1126.089)" fill="#686868"/>
              <path id="Trazado_785" data-name="Trazado 785" d="M352.483,1128.321c-5.72,3.206-10.36,11.006-10.36,17.422s4.637,9.018,10.36,5.808,10.36-11.009,10.36-17.425S358.206,1125.112,352.483,1128.321Z" transform="translate(-336.868 -1124.017)" fill="#00dfbf"/>
              <path id="Trazado_786" data-name="Trazado 786" d="M352.483,1128.321c-5.72,3.206-10.36,11.006-10.36,17.422s4.637,9.018,10.36,5.808,10.36-11.009,10.36-17.425S358.206,1125.112,352.483,1128.321Z" transform="translate(-336.868 -1124.017)" fill="#2d2d2d"/>
            </g>
          </g>
          <g id="Grupo_395" data-name="Grupo 395" transform="translate(0.016 145.708)">
            <path id="Trazado_787" data-name="Trazado 787" d="M941.366,1162.924l-357.81,200.593L225.749,1162.925l357.81-200.592Z" transform="translate(-225.748 -962.333)" fill="#00dfbf"/>
            <path id="Trazado_788" data-name="Trazado 788" d="M941.366,1162.924l-357.81,200.593L225.749,1162.925l357.81-200.592Z" transform="translate(-225.748 -962.333)" fill="#515151"/>
            <path id="Trazado_789" data-name="Trazado 789" d="M583.556,1205.473v25.033L225.749,1029.915l22.367-12.5Z" transform="translate(-225.748 -829.322)" opacity="0.1"/>
            <path id="Trazado_790" data-name="Trazado 790" d="M688.344,1121.372,330.534,1321.965v-100.3l357.81-200.592Z" transform="translate(27.273 -820.486)" fill="#00dfbf"/>
            <path id="Trazado_791" data-name="Trazado 791" d="M688.344,1121.372,330.534,1321.965v-100.3l357.81-200.592Z" transform="translate(27.273 -820.486)" fill="#adadad"/>
            <g id="Grupo_386" data-name="Grupo 386" transform="translate(491.982 243.349)">
              <path id="Trazado_792" data-name="Trazado 792" d="M559.174,1035.178,381.749,1134.65c-6.583,3.691-11.917,12.665-11.917,20.047l0,23.418c0,7.379,5.337,10.373,11.92,6.682l177.429-99.469c6.583-3.691,11.921-12.665,11.917-20.048V1041.86C571.095,1034.481,565.758,1031.49,559.174,1035.178Z" transform="translate(-369.828 -1033.599)" fill="#2d2d2d"/>
              <g id="Grupo_385" data-name="Grupo 385" transform="translate(12.576 19.762)">
                <path id="Trazado_793" data-name="Trazado 793" d="M430.357,1041.039v11.36a5.093,5.093,0,0,1-2.383,4.009l-2.684,1.5c-1.315.737-2.383.139-2.383-1.335v-11.36a5.1,5.1,0,0,1,2.383-4.01l2.684-1.5C429.288,1038.963,430.357,1039.563,430.357,1041.039Z" transform="translate(-254.239 -1039.386)" fill="#fafafa"/>
                <path id="Trazado_794" data-name="Trazado 794" d="M426.829,1043.014v11.361a5.091,5.091,0,0,1-2.384,4.008l-2.684,1.5c-1.314.738-2.383.141-2.383-1.335v-11.36a5.094,5.094,0,0,1,2.383-4.009l2.684-1.506C425.76,1040.939,426.829,1041.54,426.829,1043.014Z" transform="translate(-262.758 -1034.618)" fill="#adadad"/>
                <path id="Trazado_795" data-name="Trazado 795" d="M423.3,1044.989v11.361a5.087,5.087,0,0,1-2.384,4.01l-2.68,1.5c-1.318.737-2.384.14-2.384-1.335v-11.36a5.082,5.082,0,0,1,2.384-4.009l2.68-1.507C422.232,1042.913,423.3,1043.515,423.3,1044.989Z" transform="translate(-271.277 -1029.849)" fill="#fafafa"/>
                <path id="Trazado_796" data-name="Trazado 796" d="M419.772,1046.965v11.36a5.084,5.084,0,0,1-2.384,4.009l-2.68,1.5c-1.318.738-2.387.14-2.387-1.336v-11.361a5.09,5.09,0,0,1,2.387-4.009l2.68-1.506C418.706,1044.889,419.772,1045.486,419.772,1046.965Z" transform="translate(-279.798 -1025.08)" fill="#fafafa"/>
                <path id="Trazado_797" data-name="Trazado 797" d="M416.244,1048.939V1060.3a5.091,5.091,0,0,1-2.383,4.008l-2.684,1.5c-1.315.738-2.383.141-2.383-1.336v-11.359a5.094,5.094,0,0,1,2.383-4.009l2.684-1.506C415.175,1046.863,416.244,1047.464,416.244,1048.939Z" transform="translate(-288.317 -1020.311)" fill="#fafafa"/>
                <path id="Trazado_798" data-name="Trazado 798" d="M412.716,1050.915v11.361a5.088,5.088,0,0,1-2.387,4.009l-2.68,1.5c-1.318.737-2.383.139-2.383-1.335v-11.36a5.09,5.09,0,0,1,2.383-4.01l2.684-1.506C411.647,1048.839,412.716,1049.437,412.716,1050.915Z" transform="translate(-296.836 -1015.543)" fill="#adadad"/>
                <path id="Trazado_799" data-name="Trazado 799" d="M409.184,1052.89v11.36a5.084,5.084,0,0,1-2.383,4.008l-2.681,1.5c-1.318.737-2.383.14-2.383-1.335v-11.36a5.084,5.084,0,0,1,2.383-4.009l2.681-1.505C408.119,1050.814,409.184,1051.411,409.184,1052.89Z" transform="translate(-305.355 -1010.774)" fill="#adadad"/>
                <path id="Trazado_800" data-name="Trazado 800" d="M405.656,1054.865v11.361a5.086,5.086,0,0,1-2.384,4.009l-2.68,1.5c-1.318.737-2.383.14-2.383-1.335v-11.36a5.078,5.078,0,0,1,2.383-4.009l2.68-1.507C404.591,1052.789,405.656,1053.386,405.656,1054.865Z" transform="translate(-313.874 -1006.005)" fill="#fafafa"/>
                <path id="Trazado_801" data-name="Trazado 801" d="M402.131,1056.84V1068.2a5.092,5.092,0,0,1-2.383,4.009l-2.684,1.5c-1.315.738-2.384.14-2.384-1.335v-11.361a5.087,5.087,0,0,1,2.384-4.009l2.684-1.506C401.062,1054.764,402.131,1055.362,402.131,1056.84Z" transform="translate(-322.395 -1001.235)" fill="#adadad"/>
                <path id="Trazado_802" data-name="Trazado 802" d="M398.6,1058.815v11.357a5.094,5.094,0,0,1-2.383,4.013l-2.684,1.5c-1.315.737-2.384.14-2.384-1.336v-11.36a5.09,5.09,0,0,1,2.384-4.009l2.684-1.505C397.534,1056.739,398.6,1057.337,398.6,1058.815Z" transform="translate(-330.914 -996.467)" fill="#fafafa"/>
                <path id="Trazado_803" data-name="Trazado 803" d="M395.075,1060.79l0,11.361a5.088,5.088,0,0,1-2.384,4.009l-2.68,1.5c-1.318.737-2.383.14-2.383-1.335v-11.361a5.093,5.093,0,0,1,2.383-4.013l2.68-1.5C394.006,1058.714,395.075,1059.312,395.075,1060.79Z" transform="translate(-339.433 -991.698)" fill="#fafafa"/>
                <path id="Trazado_804" data-name="Trazado 804" d="M391.543,1062.765v11.357a5.089,5.089,0,0,1-2.383,4.012l-2.681,1.5c-1.318.738-2.383.141-2.383-1.335v-11.361a5.078,5.078,0,0,1,2.383-4.009l2.681-1.506C390.478,1060.689,391.543,1061.286,391.543,1062.765Z" transform="translate(-347.952 -986.929)" fill="#fafafa"/>
                <path id="Trazado_805" data-name="Trazado 805" d="M388.018,1064.736V1076.1a5.1,5.1,0,0,1-2.383,4.012l-2.684,1.5c-1.315.737-2.383.14-2.383-1.335v-11.361a5.1,5.1,0,0,1,2.383-4.012l2.684-1.5C386.949,1062.664,388.018,1063.261,388.018,1064.736Z" transform="translate(-356.473 -982.16)" fill="#adadad"/>
                <path id="Trazado_806" data-name="Trazado 806" d="M384.49,1066.712v11.36a5.1,5.1,0,0,1-2.383,4.012l-2.684,1.5c-1.315.738-2.384.14-2.384-1.339v-11.357a5.1,5.1,0,0,1,2.384-4.012l2.684-1.5C383.421,1064.638,384.49,1065.236,384.49,1066.712Z" transform="translate(-364.992 -977.391)" fill="#fafafa"/>
                <path id="Trazado_807" data-name="Trazado 807" d="M380.962,1068.687v11.36a5.093,5.093,0,0,1-2.387,4.012l-2.68,1.5c-1.318.737-2.384.139-2.384-1.339v-11.36a5.087,5.087,0,0,1,2.384-4.009l2.68-1.5C379.893,1066.614,380.962,1067.212,380.962,1068.687Z" transform="translate(-373.511 -972.622)" fill="#fafafa"/>
              </g>
            </g>
            <path id="Trazado_808" data-name="Trazado 808" d="M583.556,1321.965,225.748,1121.373v-100.3l357.807,200.591Z" transform="translate(-225.748 -820.484)" fill="#bfbfbf"/>
            <g id="Grupo_390" data-name="Grupo 390" transform="translate(44.69 256.01)">
              <path id="Trazado_809" data-name="Trazado 809" d="M250.757,1038.886l87.975,49.325c6.583,3.691,11.921,12.665,11.921,20.047v23.419c0,7.382-5.337,10.373-11.921,6.682l-87.975-49.321c-6.584-3.691-11.921-12.669-11.921-20.047v-23.422C238.836,1038.189,244.173,1035.2,250.757,1038.886Z" transform="translate(-238.836 -1037.307)" fill="#515151"/>
              <g id="Grupo_389" data-name="Grupo 389" transform="translate(20.433 24.26)">
                <g id="Grupo_387" data-name="Grupo 387">
                  <path id="Trazado_810" data-name="Trazado 810" d="M245.646,1048.143l5.467-3.063,0,0,.041-.02,0,0c1.871-1.024,4.439-.871,7.28.721,5.723,3.209,10.36,11.012,10.36,17.425,0,3.2-1.158,5.453-3.025,6.509h0l-.007,0,0,0-5.084,2.827-.915-1.489a10.677,10.677,0,0,1-2.974-1.123c-5.72-3.206-10.357-11.009-10.36-17.425a10.572,10.572,0,0,1,.324-2.567Z" transform="translate(-242.826 -1044.411)" fill="#686868"/>
                  <path id="Trazado_811" data-name="Trazado 811" d="M255.18,1046.642c5.723,3.209,10.36,11.009,10.36,17.425s-4.637,9.014-10.36,5.807-10.36-11.008-10.36-17.424S249.457,1043.436,255.18,1046.642Z" transform="translate(-244.82 -1042.34)" fill="#2d2d2d"/>
                </g>
                <g id="Grupo_388" data-name="Grupo 388" transform="translate(44.974 25.204)">
                  <path id="Trazado_812" data-name="Trazado 812" d="M258.817,1055.521l5.467-3.063h0l.041-.024,0,.006c1.871-1.024,4.439-.87,7.28.72,5.723,3.21,10.36,11.009,10.36,17.425,0,3.2-1.157,5.453-3.025,6.5v0l-.007,0h0l-5.085,2.827-.915-1.486a10.7,10.7,0,0,1-2.974-1.123c-5.72-3.207-10.36-11.008-10.36-17.425a10.563,10.563,0,0,1,.324-2.568Z" transform="translate(-255.997 -1051.792)" fill="#686868"/>
                  <path id="Trazado_813" data-name="Trazado 813" d="M268.351,1054.024c5.723,3.206,10.36,11.008,10.36,17.425s-4.637,9.014-10.36,5.808-10.36-11.009-10.36-17.424S262.628,1050.817,268.351,1054.024Z" transform="translate(-257.991 -1049.722)" fill="#2d2d2d"/>
                </g>
              </g>
            </g>
            <path id="Trazado_814" data-name="Trazado 814" d="M643.619,1082.867l0-25.076L330.534,1233.313v25.072Z" transform="translate(27.273 -731.833)" fill="#2d2d2d"/>
            <g id="Grupo_392" data-name="Grupo 392" transform="translate(22.357 313.422)">
              <g id="Grupo_391" data-name="Grupo 391">
                <path id="Trazado_815" data-name="Trazado 815" d="M232.3,1054.12l.011,25.073,335.44,188.057v-25.072Z" transform="translate(-232.296 -1054.12)" fill="#2d2d2d"/>
              </g>
            </g>
            <g id="Grupo_393" data-name="Grupo 393" transform="translate(437.098 383.523)">
              <path id="Trazado_816" data-name="Trazado 816" d="M376.91,1078.38l-5.467-3.063,0,0-.038-.021,0,.007c-1.875-1.028-4.442-.874-7.283.72-5.72,3.207-10.36,11.009-10.36,17.422,0,3.2,1.158,5.453,3.025,6.508h0l.01.007h0l5.084,2.828.919-1.489a10.7,10.7,0,0,0,2.971-1.123c5.72-3.207,10.36-11.009,10.36-17.422a10.427,10.427,0,0,0-.324-2.572Z" transform="translate(-353.755 -1074.649)" fill="#686868"/>
              <path id="Trazado_817" data-name="Trazado 817" d="M365.654,1076.88c-5.72,3.21-10.36,11.012-10.36,17.425s4.637,9.018,10.36,5.809,10.36-11.009,10.36-17.426S371.377,1073.673,365.654,1076.88Z" transform="translate(-350.039 -1072.579)" fill="#00dfbf"/>
              <path id="Trazado_818" data-name="Trazado 818" d="M365.654,1076.88c-5.72,3.21-10.36,11.012-10.36,17.425s4.637,9.018,10.36,5.809,10.36-11.009,10.36-17.426S371.377,1073.673,365.654,1076.88Z" transform="translate(-350.039 -1072.579)" fill="#2d2d2d"/>
            </g>
            <g id="Grupo_394" data-name="Grupo 394" transform="translate(392.124 408.726)">
              <path id="Trazado_819" data-name="Trazado 819" d="M363.739,1085.762l-5.467-3.067h0l-.037-.024,0,.007c-1.875-1.024-4.443-.87-7.283.721-5.72,3.209-10.36,11.008-10.36,17.425,0,3.2,1.158,5.453,3.025,6.508h0l.01,0v0l5.084,2.828.918-1.489a10.728,10.728,0,0,0,2.971-1.123c5.72-3.206,10.36-11.008,10.36-17.425a10.415,10.415,0,0,0-.324-2.568Z" transform="translate(-340.584 -1082.03)" fill="#686868"/>
              <path id="Trazado_820" data-name="Trazado 820" d="M352.483,1084.262c-5.72,3.209-10.36,11.008-10.36,17.424s4.637,9.015,10.36,5.809,10.36-11.009,10.36-17.426S358.206,1081.055,352.483,1084.262Z" transform="translate(-336.868 -1079.959)" fill="#00dfbf"/>
              <path id="Trazado_821" data-name="Trazado 821" d="M352.483,1084.262c-5.72,3.209-10.36,11.008-10.36,17.424s4.637,9.015,10.36,5.809,10.36-11.009,10.36-17.426S358.206,1081.055,352.483,1084.262Z" transform="translate(-336.868 -1079.959)" fill="#2d2d2d"/>
            </g>
          </g>
          <g id="Grupo_406" data-name="Grupo 406" transform="translate(0.001 0)">
            <path id="Trazado_822" data-name="Trazado 822" d="M240.048,1107.53,569.47,922.974c7.867-4.412,20.741-4.412,28.6,0L927.08,1107.53c7.867,4.408,14.3,15.236,14.3,24.056v84.26L583.351,1416.439h0L225.744,1215.846v-84.26C225.744,1122.766,232.181,1111.941,240.048,1107.53Z" transform="translate(-225.744 -919.652)" fill="#00dfbf"/>
            <path id="Trazado_823" data-name="Trazado 823" d="M240.048,1107.53,569.47,922.974c7.867-4.412,20.741-4.412,28.6,0L927.08,1107.53c7.867,4.408,14.3,15.236,14.3,24.056v84.26L583.351,1416.439h0L225.744,1215.846v-84.26C225.744,1122.766,232.181,1111.941,240.048,1107.53Z" transform="translate(-225.744 -919.652)" fill="#adadad"/>
            <g id="Grupo_399" data-name="Grupo 399" transform="translate(44.705 251.144)">
              <path id="Trazado_824" data-name="Trazado 824" d="M250.757,994.791l87.975,49.325c6.583,3.688,11.921,12.665,11.921,20.045v23.421c0,7.379-5.337,10.374-11.921,6.683l-87.975-49.325c-6.584-3.688-11.921-12.665-11.921-20.044v-23.421C238.836,994.094,244.173,991.1,250.757,994.791Z" transform="translate(-238.836 -993.21)" fill="#515151"/>
              <g id="Grupo_398" data-name="Grupo 398" transform="translate(20.433 24.261)">
                <g id="Grupo_396" data-name="Grupo 396">
                  <path id="Trazado_825" data-name="Trazado 825" d="M245.646,1004.043l5.467-3.062h0l.041-.024,0,.007c1.871-1.024,4.439-.87,7.28.72,5.723,3.21,10.36,11.009,10.36,17.425,0,3.2-1.158,5.453-3.025,6.5v0l-.007,0,0,0-5.084,2.827-.915-1.489a10.7,10.7,0,0,1-2.974-1.124c-5.72-3.206-10.357-11.009-10.36-17.425a10.572,10.572,0,0,1,.324-2.568Z" transform="translate(-242.826 -1000.315)" fill="#686868"/>
                  <path id="Trazado_826" data-name="Trazado 826" d="M255.18,1002.547c5.723,3.209,10.36,11.008,10.36,17.425s-4.637,9.015-10.36,5.809-10.36-11.009-10.36-17.426S249.457,999.34,255.18,1002.547Z" transform="translate(-244.82 -998.244)" fill="#2d2d2d"/>
                </g>
                <g id="Grupo_397" data-name="Grupo 397" transform="translate(44.974 25.202)">
                  <path id="Trazado_827" data-name="Trazado 827" d="M258.817,1011.425l5.467-3.063,0,0,.041-.021,0,.007c1.871-1.028,4.439-.87,7.28.721,5.723,3.21,10.36,11.009,10.36,17.425,0,3.2-1.157,5.454-3.025,6.505v0l-.007,0h0l-5.085,2.827-.915-1.485a10.709,10.709,0,0,1-2.974-1.123c-5.72-3.21-10.36-11.009-10.36-17.425a10.547,10.547,0,0,1,.324-2.568Z" transform="translate(-255.997 -1007.696)" fill="#686868"/>
                  <path id="Trazado_828" data-name="Trazado 828" d="M268.351,1009.928c5.723,3.207,10.36,11.009,10.36,17.425s-4.637,9.015-10.36,5.809-10.36-11.009-10.36-17.426S262.628,1006.718,268.351,1009.928Z" transform="translate(-257.991 -1005.625)" fill="#2d2d2d"/>
                </g>
              </g>
            </g>
            <path id="Trazado_829" data-name="Trazado 829" d="M330.479,1177.338v105l357.993-200.587V997.491c0-7.8-5.064-17.264-11.726-22.291,5.231,4.439,4.35,10.37-2.589,14.273L344.739,1174.022A29.928,29.928,0,0,1,330.479,1177.338Z" transform="translate(27.155 -785.555)" fill="#00dfbf"/>
            <path id="Trazado_830" data-name="Trazado 830" d="M330.479,1177.338v105l357.993-200.587V997.491c0-7.8-5.064-17.264-11.726-22.291,5.231,4.439,4.35,10.37-2.589,14.273L344.739,1174.022A29.928,29.928,0,0,1,330.479,1177.338Z" transform="translate(27.155 -785.555)" fill="#adadad"/>
            <g id="Grupo_401" data-name="Grupo 401" transform="translate(491.997 238.601)">
              <path id="Trazado_831" data-name="Trazado 831" d="M559.174,991.118l-177.426,99.469c-6.583,3.691-11.917,12.665-11.917,20.047l0,23.418c0,7.382,5.337,10.374,11.92,6.682l177.429-99.469c6.583-3.691,11.921-12.665,11.917-20.047V997.8C571.095,990.418,565.758,987.427,559.174,991.118Z" transform="translate(-369.828 -989.537)" fill="#2d2d2d"/>
              <g id="Grupo_400" data-name="Grupo 400" transform="translate(12.576 19.762)">
                <path id="Trazado_832" data-name="Trazado 832" d="M430.357,996.976v11.361a5.093,5.093,0,0,1-2.383,4.009l-2.684,1.505c-1.315.738-2.383.137-2.383-1.339v-11.36a5.094,5.094,0,0,1,2.383-4.009l2.684-1.5C429.288,994.9,430.357,995.5,430.357,996.976Z" transform="translate(-254.239 -995.324)" fill="#adadad"/>
                <path id="Trazado_833" data-name="Trazado 833" d="M426.829,998.951v11.36a5.094,5.094,0,0,1-2.384,4.009l-2.684,1.5c-1.314.741-2.383.14-2.383-1.335v-11.361a5.094,5.094,0,0,1,2.383-4.008l2.684-1.5C425.76,996.878,426.829,997.475,426.829,998.951Z" transform="translate(-262.758 -990.556)" fill="#adadad"/>
                <path id="Trazado_834" data-name="Trazado 834" d="M423.3,1000.926v11.361a5.084,5.084,0,0,1-2.384,4.009l-2.68,1.5c-1.318.742-2.384.141-2.384-1.334V1005.1a5.083,5.083,0,0,1,2.384-4.008l2.68-1.5C422.232,998.853,423.3,999.451,423.3,1000.926Z" transform="translate(-271.277 -985.787)" fill="#adadad"/>
                <path id="Trazado_835" data-name="Trazado 835" d="M419.772,1002.9v11.361a5.084,5.084,0,0,1-2.384,4.009l-2.68,1.5c-1.318.741-2.387.14-2.387-1.336v-11.36a5.089,5.089,0,0,1,2.387-4.009l2.68-1.5C418.706,1000.826,419.772,1001.427,419.772,1002.9Z" transform="translate(-279.798 -981.019)" fill="#adadad"/>
                <path id="Trazado_836" data-name="Trazado 836" d="M416.244,1004.877v11.361a5.1,5.1,0,0,1-2.383,4.009l-2.684,1.5c-1.315.741-2.383.14-2.383-1.335v-11.361a5.094,5.094,0,0,1,2.383-4.009l2.684-1.5C415.175,1002.8,416.244,1003.4,416.244,1004.877Z" transform="translate(-288.317 -976.25)" fill="#adadad"/>
                <path id="Trazado_837" data-name="Trazado 837" d="M412.716,1006.852v11.36a5.091,5.091,0,0,1-2.387,4.01l-2.68,1.5c-1.318.74-2.383.14-2.383-1.335v-11.361a5.094,5.094,0,0,1,2.383-4.009l2.684-1.506C411.647,1004.777,412.716,1005.377,412.716,1006.852Z" transform="translate(-296.836 -971.482)" fill="#fafafa"/>
                <path id="Trazado_838" data-name="Trazado 838" d="M409.184,1008.827v11.361a5.085,5.085,0,0,1-2.383,4.008l-2.681,1.5c-1.318.737-2.383.14-2.383-1.335V1013a5.085,5.085,0,0,1,2.383-4.009l2.681-1.5C408.119,1006.75,409.184,1007.352,409.184,1008.827Z" transform="translate(-305.355 -966.712)" fill="#fafafa"/>
                <path id="Trazado_839" data-name="Trazado 839" d="M405.656,1010.8v11.361a5.085,5.085,0,0,1-2.384,4.008l-2.68,1.5c-1.318.738-2.383.14-2.383-1.335v-11.36a5.083,5.083,0,0,1,2.383-4.009l2.68-1.506C404.591,1008.726,405.656,1009.328,405.656,1010.8Z" transform="translate(-313.874 -961.944)" fill="#adadad"/>
                <path id="Trazado_840" data-name="Trazado 840" d="M402.131,1012.778v11.36a5.093,5.093,0,0,1-2.383,4.009l-2.684,1.5c-1.315.738-2.384.14-2.384-1.335v-11.361a5.093,5.093,0,0,1,2.384-4.009l2.684-1.506C401.062,1010.7,402.131,1011.3,402.131,1012.778Z" transform="translate(-322.395 -957.175)" fill="#fafafa"/>
                <path id="Trazado_841" data-name="Trazado 841" d="M398.6,1014.753v11.36a5.1,5.1,0,0,1-2.383,4.009l-2.684,1.5c-1.315.738-2.384.141-2.384-1.335v-11.361a5.094,5.094,0,0,1,2.384-4.009l2.684-1.506C397.534,1012.677,398.6,1013.274,398.6,1014.753Z" transform="translate(-330.914 -952.406)" fill="#adadad"/>
                <path id="Trazado_842" data-name="Trazado 842" d="M395.075,1016.728l0,11.361a5.086,5.086,0,0,1-2.384,4.009l-2.68,1.5c-1.318.738-2.383.14-2.383-1.335V1020.9a5.085,5.085,0,0,1,2.383-4.009l2.68-1.506C394.006,1014.652,395.075,1015.249,395.075,1016.728Z" transform="translate(-339.433 -947.637)" fill="#adadad"/>
                <path id="Trazado_843" data-name="Trazado 843" d="M391.543,1018.7v11.36a5.086,5.086,0,0,1-2.383,4.009l-2.681,1.5c-1.318.737-2.383.14-2.383-1.335v-11.361a5.081,5.081,0,0,1,2.383-4.009l2.681-1.505C390.478,1016.627,391.543,1017.224,391.543,1018.7Z" transform="translate(-347.952 -942.869)" fill="#adadad"/>
                <path id="Trazado_844" data-name="Trazado 844" d="M388.018,1020.678v11.36a5.1,5.1,0,0,1-2.383,4.009l-2.684,1.5c-1.315.738-2.383.14-2.383-1.335v-11.36a5.093,5.093,0,0,1,2.383-4.008l2.684-1.506C386.949,1018.6,388.018,1019.2,388.018,1020.678Z" transform="translate(-356.473 -938.099)" fill="#fafafa"/>
                <path id="Trazado_845" data-name="Trazado 845" d="M384.49,1022.653v11.36a5.1,5.1,0,0,1-2.383,4.009l-2.684,1.5c-1.315.737-2.384.14-2.384-1.335v-11.361a5.088,5.088,0,0,1,2.384-4.008l2.684-1.506C383.421,1020.577,384.49,1021.174,384.49,1022.653Z" transform="translate(-364.992 -933.33)" fill="#adadad"/>
                <path id="Trazado_846" data-name="Trazado 846" d="M380.962,1024.628v11.361a5.088,5.088,0,0,1-2.387,4.009l-2.68,1.5c-1.318.738-2.384.14-2.384-1.335V1028.8a5.081,5.081,0,0,1,2.384-4.009l2.68-1.506C379.893,1022.552,380.962,1023.149,380.962,1024.628Z" transform="translate(-373.511 -928.562)" fill="#adadad"/>
              </g>
            </g>
            <path id="Trazado_847" data-name="Trazado 847" d="M921.156,1123.574,591.727,1308.135c-7.9,4.429-20.707,4.429-28.6,0l-329-184.559c-7.9-4.429-7.9-11.61,0-16.039L563.546,922.983c7.9-4.429,20.706-4.429,28.6,0l329.006,184.555C929.054,1111.967,929.054,1119.148,921.156,1123.574Z" transform="translate(-219.82 -919.661)" fill="#00dfbf"/>
            <path id="Trazado_848" data-name="Trazado 848" d="M921.156,1123.574,591.727,1308.135c-7.9,4.429-20.707,4.429-28.6,0l-329-184.559c-7.9-4.429-7.9-11.61,0-16.039L563.546,922.983c7.9-4.429,20.706-4.429,28.6,0l329.006,184.555C929.054,1111.967,929.054,1119.148,921.156,1123.574Z" transform="translate(-219.82 -919.661)" fill="#2d2d2d"/>
            <path id="Trazado_849" data-name="Trazado 849" d="M643.619,1038.821l0-25.075L330.534,1189.267v25.072Z" transform="translate(27.288 -692.48)" fill="#2d2d2d"/>
            <g id="Grupo_403" data-name="Grupo 403" transform="translate(22.372 308.729)">
              <g id="Grupo_402" data-name="Grupo 402">
                <path id="Trazado_850" data-name="Trazado 850" d="M232.3,1010.074l.011,25.074L567.747,1223.2v-25.073Z" transform="translate(-232.296 -1010.074)" fill="#2d2d2d"/>
              </g>
            </g>
            <g id="Grupo_404" data-name="Grupo 404" transform="translate(437.113 378.83)">
              <path id="Trazado_851" data-name="Trazado 851" d="M376.91,1034.334l-5.467-3.063,0,0-.038-.021,0,.007c-1.875-1.028-4.442-.871-7.283.72-5.72,3.207-10.36,11.01-10.36,17.425,0,3.2,1.158,5.453,3.025,6.505v0l.01,0h0l5.084,2.828.919-1.489a10.678,10.678,0,0,0,2.971-1.12c5.72-3.21,10.36-11.009,10.36-17.425a10.426,10.426,0,0,0-.324-2.571Z" transform="translate(-353.755 -1030.604)" fill="#686868"/>
              <path id="Trazado_852" data-name="Trazado 852" d="M365.654,1032.837c-5.72,3.206-10.36,11.008-10.36,17.42s4.637,9.019,10.36,5.809,10.36-11.005,10.36-17.422S371.377,1029.626,365.654,1032.837Z" transform="translate(-350.039 -1028.533)" fill="#00dfbf"/>
              <path id="Trazado_853" data-name="Trazado 853" d="M365.654,1032.837c-5.72,3.206-10.36,11.008-10.36,17.42s4.637,9.019,10.36,5.809,10.36-11.005,10.36-17.422S371.377,1029.626,365.654,1032.837Z" transform="translate(-350.039 -1028.533)" fill="#2d2d2d"/>
            </g>
            <g id="Grupo_405" data-name="Grupo 405" transform="translate(392.139 404.033)">
              <path id="Trazado_854" data-name="Trazado 854" d="M363.739,1041.715l-5.467-3.063,0,0-.037-.02,0,.007c-1.875-1.028-4.443-.875-7.283.72-5.72,3.207-10.36,11.009-10.36,17.421,0,3.2,1.158,5.454,3.025,6.509h0l.01.006h0l5.084,2.827.918-1.489a10.811,10.811,0,0,0,2.971-1.12c5.72-3.21,10.36-11.012,10.36-17.425a10.442,10.442,0,0,0-.324-2.571Z" transform="translate(-340.584 -1037.984)" fill="#686868"/>
              <path id="Trazado_855" data-name="Trazado 855" d="M352.483,1040.215c-5.72,3.209-10.36,11.012-10.36,17.426s4.637,9.017,10.36,5.808,10.36-11.01,10.36-17.425S358.206,1037.009,352.483,1040.215Z" transform="translate(-336.868 -1035.914)" fill="#00dfbf"/>
              <path id="Trazado_856" data-name="Trazado 856" d="M352.483,1040.215c-5.72,3.209-10.36,11.012-10.36,17.426s4.637,9.017,10.36,5.808,10.36-11.01,10.36-17.425S358.206,1037.009,352.483,1040.215Z" transform="translate(-336.868 -1035.914)" fill="#2d2d2d"/>
            </g>
          </g>
        </g>
        <g id="Grupo_412" data-name="Grupo 412" transform="translate(438.185 596.025)">
          <g id="Grupo_407" data-name="Grupo 407" transform="translate(111.844 63.123)">
            <path id="Trazado_857" data-name="Trazado 857" d="M335.8,870.545a1.488,1.488,0,0,0-.9-1.222,4.941,4.941,0,0,0-4.361,0,1.486,1.486,0,0,0-.9,1.222h0v35.882h0a1.485,1.485,0,0,0,.9,1.223,4.941,4.941,0,0,0,4.361,0,1.487,1.487,0,0,0,.9-1.223h0V870.545Z" transform="translate(-301.087 -764.192)" fill="#adadad"/>
            <path id="Trazado_858" data-name="Trazado 858" d="M335.8,884.343a1.489,1.489,0,0,0-.9-1.219,4.943,4.943,0,0,0-4.361,0,1.487,1.487,0,0,0-.9,1.219h0v17.08h0a1.491,1.491,0,0,0,.9,1.223,4.962,4.962,0,0,0,4.361,0,1.493,1.493,0,0,0,.9-1.223h0v-17.08Z" transform="translate(-301.087 -730.867)" fill="#adadad"/>
            <path id="Trazado_859" data-name="Trazado 859" d="M335.8,892.64a1.488,1.488,0,0,0-.9-1.223,4.941,4.941,0,0,0-4.361,0,1.486,1.486,0,0,0-.9,1.223h0v17.076h0a1.486,1.486,0,0,0,.9,1.223,4.942,4.942,0,0,0,4.361,0,1.488,1.488,0,0,0,.9-1.223h0V892.64Z" transform="translate(-301.087 -710.842)" fill="#adadad"/>
            <path id="Trazado_860" data-name="Trazado 860" d="M335.8,900.93a1.492,1.492,0,0,0-.9-1.222,4.962,4.962,0,0,0-4.361,0,1.49,1.49,0,0,0-.9,1.222h0v17.077h0a1.482,1.482,0,0,0,.9,1.223,4.941,4.941,0,0,0,4.361,0,1.484,1.484,0,0,0,.9-1.223h0V900.93Z" transform="translate(-301.087 -690.816)" fill="#adadad"/>
            <path id="Trazado_861" data-name="Trazado 861" d="M335.8,909.226a1.488,1.488,0,0,0-.9-1.222,4.942,4.942,0,0,0-4.361,0,1.486,1.486,0,0,0-.9,1.222h0V926.3h0a1.49,1.49,0,0,0,.9,1.222,4.963,4.963,0,0,0,4.361,0,1.492,1.492,0,0,0,.9-1.222h0V909.226Z" transform="translate(-301.087 -670.79)" fill="#adadad"/>
            <path id="Trazado_862" data-name="Trazado 862" d="M335.8,917.519a1.493,1.493,0,0,0-.9-1.223,4.941,4.941,0,0,0-4.361,0,1.491,1.491,0,0,0-.9,1.223h0V934.6h0a1.486,1.486,0,0,0,.9,1.223,4.942,4.942,0,0,0,4.361,0,1.489,1.489,0,0,0,.9-1.223h0V917.519Z" transform="translate(-301.087 -650.766)" fill="#adadad"/>
            <path id="Trazado_863" data-name="Trazado 863" d="M335.8,925.81a1.484,1.484,0,0,0-.9-1.219,4.942,4.942,0,0,0-4.361,0,1.482,1.482,0,0,0-.9,1.219h0v17.08h0a1.482,1.482,0,0,0,.9,1.219,4.939,4.939,0,0,0,4.361,0,1.484,1.484,0,0,0,.9-1.219h0V925.81Z" transform="translate(-301.087 -630.738)" fill="#adadad"/>
            <path id="Trazado_864" data-name="Trazado 864" d="M335.8,934.107a1.487,1.487,0,0,0-.9-1.223,4.935,4.935,0,0,0-4.361,0,1.485,1.485,0,0,0-.9,1.223h0v17.076h0a1.491,1.491,0,0,0,.9,1.222,4.939,4.939,0,0,0,4.361,0,1.493,1.493,0,0,0,.9-1.222h0V934.107Z" transform="translate(-301.087 -610.713)" fill="#adadad"/>
            <path id="Trazado_865" data-name="Trazado 865" d="M335.8,942.4a1.492,1.492,0,0,0-.9-1.222,4.94,4.94,0,0,0-4.361,0,1.49,1.49,0,0,0-.9,1.222h0v17.077h0a1.486,1.486,0,0,0,.9,1.222,4.941,4.941,0,0,0,4.361,0,1.488,1.488,0,0,0,.9-1.222h0V942.4Z" transform="translate(-301.087 -590.689)" fill="#adadad"/>
            <path id="Trazado_866" data-name="Trazado 866" d="M335.8,950.693a1.484,1.484,0,0,0-.9-1.222,4.937,4.937,0,0,0-4.361,0,1.481,1.481,0,0,0-.9,1.222h0V967.77h0a1.491,1.491,0,0,0,.9,1.222,4.962,4.962,0,0,0,4.361,0,1.493,1.493,0,0,0,.9-1.222h0V950.693Z" transform="translate(-301.087 -570.662)" fill="#adadad"/>
            <path id="Trazado_867" data-name="Trazado 867" d="M335.8,958.986a1.487,1.487,0,0,0-.9-1.222,4.94,4.94,0,0,0-4.361,0,1.485,1.485,0,0,0-.9,1.222h0v17.077h0a1.486,1.486,0,0,0,.9,1.223,4.94,4.94,0,0,0,4.361,0,1.489,1.489,0,0,0,.9-1.223h0V958.986Z" transform="translate(-301.087 -550.637)" fill="#adadad"/>
            <path id="Trazado_868" data-name="Trazado 868" d="M335.8,967.278a1.493,1.493,0,0,0-.9-1.223,4.961,4.961,0,0,0-4.361,0,1.491,1.491,0,0,0-.9,1.223h0v17.076h0a1.482,1.482,0,0,0,.9,1.223,4.942,4.942,0,0,0,4.361,0,1.484,1.484,0,0,0,.9-1.223h0V967.278Z" transform="translate(-301.087 -530.61)" fill="#adadad"/>
            <path id="Trazado_869" data-name="Trazado 869" d="M335.8,975.573a1.487,1.487,0,0,0-.9-1.222,4.939,4.939,0,0,0-4.361,0,1.485,1.485,0,0,0-.9,1.222h0V992.65h0a1.491,1.491,0,0,0,.9,1.223,4.965,4.965,0,0,0,4.361,0,1.493,1.493,0,0,0,.9-1.223h0V975.573Z" transform="translate(-301.087 -510.585)" fill="#adadad"/>
            <path id="Trazado_870" data-name="Trazado 870" d="M364.04,865.835c0-2.818-1.916-5.631-5.747-7.779-7.666-4.3-20.1-4.3-27.758,0-3.835,2.148-5.75,4.961-5.75,7.779h0v50.147h0c0,2.817,1.916,5.631,5.75,7.779,7.663,4.3,20.092,4.3,27.758,0,3.831-2.148,5.747-4.962,5.747-7.779h0V865.835Z" transform="translate(-312.786 -797.958)" fill="#2d2d2d"/>
            <path id="Trazado_871" data-name="Trazado 871" d="M384.524,855.906c0-4.538-3.087-9.076-9.264-12.539-12.351-6.922-32.374-6.922-44.725,0-6.174,3.463-9.264,8-9.264,12.539h0V905.2h.147c-.417,4.818,2.551,9.715,9.117,13.4,12.351,6.925,32.374,6.925,44.725,0,6.57-3.681,9.534-8.578,9.117-13.4h.147v-49.29Z" transform="translate(-321.271 -838.176)" fill="#515151"/>
          </g>
          <g id="Grupo_410" data-name="Grupo 410" transform="translate(223.629)">
            <g id="Grupo_409" data-name="Grupo 409" transform="translate(28.543 104.626)">
              <g id="Grupo_408" data-name="Grupo 408">
                <path id="Trazado_872" data-name="Trazado 872" d="M368.534,852.057a1.492,1.492,0,0,0-.9-1.223,4.965,4.965,0,0,0-4.36,0,1.493,1.493,0,0,0-.9,1.223h0v35.885h0a1.492,1.492,0,0,0,.9,1.222,4.961,4.961,0,0,0,4.36,0,1.49,1.49,0,0,0,.9-1.222h0V852.057Z" transform="translate(-362.367 -850.33)" fill="#adadad"/>
                <path id="Trazado_873" data-name="Trazado 873" d="M368.534,865.86a1.485,1.485,0,0,0-.9-1.222,4.941,4.941,0,0,0-4.36,0,1.487,1.487,0,0,0-.9,1.222h0v17.077h0a1.488,1.488,0,0,0,.9,1.223,4.943,4.943,0,0,0,4.36,0,1.486,1.486,0,0,0,.9-1.223h0V865.86Z" transform="translate(-362.367 -817.008)" fill="#adadad"/>
                <path id="Trazado_874" data-name="Trazado 874" d="M368.534,874.151a1.49,1.49,0,0,0-.9-1.222,4.962,4.962,0,0,0-4.36,0,1.492,1.492,0,0,0-.9,1.222h0v17.077h0a1.488,1.488,0,0,0,.9,1.222,4.939,4.939,0,0,0,4.36,0,1.486,1.486,0,0,0,.9-1.222h0V874.151Z" transform="translate(-362.367 -796.981)" fill="#adadad"/>
                <path id="Trazado_875" data-name="Trazado 875" d="M368.534,882.443a1.482,1.482,0,0,0-.9-1.219,4.939,4.939,0,0,0-4.36,0,1.483,1.483,0,0,0-.9,1.219h0v17.081h0a1.492,1.492,0,0,0,.9,1.222,4.962,4.962,0,0,0,4.36,0,1.49,1.49,0,0,0,.9-1.222h0V882.443Z" transform="translate(-362.367 -776.955)" fill="#adadad"/>
                <path id="Trazado_876" data-name="Trazado 876" d="M368.534,890.74a1.486,1.486,0,0,0-.9-1.223,4.941,4.941,0,0,0-4.36,0,1.488,1.488,0,0,0-.9,1.223h0v17.077h0a1.487,1.487,0,0,0,.9,1.222,4.941,4.941,0,0,0,4.36,0,1.485,1.485,0,0,0,.9-1.222h0V890.74Z" transform="translate(-362.367 -756.931)" fill="#adadad"/>
                <path id="Trazado_877" data-name="Trazado 877" d="M368.534,899.031a1.491,1.491,0,0,0-.9-1.223,4.963,4.963,0,0,0-4.36,0,1.493,1.493,0,0,0-.9,1.223h0v17.077h0a1.484,1.484,0,0,0,.9,1.223,4.942,4.942,0,0,0,4.36,0,1.482,1.482,0,0,0,.9-1.223h0V899.031Z" transform="translate(-362.367 -736.904)" fill="#adadad"/>
                <path id="Trazado_878" data-name="Trazado 878" d="M368.534,907.327a1.481,1.481,0,0,0-.9-1.223,4.94,4.94,0,0,0-4.36,0,1.483,1.483,0,0,0-.9,1.223h0V924.4h0a1.492,1.492,0,0,0,.9,1.223,4.965,4.965,0,0,0,4.36,0,1.49,1.49,0,0,0,.9-1.223h0V907.327Z" transform="translate(-362.367 -716.879)" fill="#adadad"/>
                <path id="Trazado_879" data-name="Trazado 879" d="M368.534,915.62a1.485,1.485,0,0,0-.9-1.222,4.94,4.94,0,0,0-4.36,0,1.487,1.487,0,0,0-.9,1.222h0V932.7h0a1.487,1.487,0,0,0,.9,1.222,4.939,4.939,0,0,0,4.36,0,1.486,1.486,0,0,0,.9-1.222h0V915.62Z" transform="translate(-362.367 -696.854)" fill="#adadad"/>
                <path id="Trazado_880" data-name="Trazado 880" d="M368.534,923.911a1.481,1.481,0,0,0-.9-1.219,4.943,4.943,0,0,0-4.36,0,1.483,1.483,0,0,0-.9,1.219h0v17.08h0a1.483,1.483,0,0,0,.9,1.219,4.939,4.939,0,0,0,4.36,0,1.481,1.481,0,0,0,.9-1.219h0v-17.08Z" transform="translate(-362.367 -676.827)" fill="#adadad"/>
                <path id="Trazado_881" data-name="Trazado 881" d="M368.534,932.207a1.486,1.486,0,0,0-.9-1.223,4.94,4.94,0,0,0-4.36,0,1.488,1.488,0,0,0-.9,1.223h0v17.077h0a1.491,1.491,0,0,0,.9,1.222,4.937,4.937,0,0,0,4.36,0,1.49,1.49,0,0,0,.9-1.222h0V932.207Z" transform="translate(-362.367 -656.802)" fill="#adadad"/>
                <path id="Trazado_882" data-name="Trazado 882" d="M368.534,940.5a1.489,1.489,0,0,0-.9-1.222,4.96,4.96,0,0,0-4.36,0,1.491,1.491,0,0,0-.9,1.222h0v17.077h0a1.486,1.486,0,0,0,.9,1.222,4.939,4.939,0,0,0,4.36,0,1.485,1.485,0,0,0,.9-1.222h0V940.5Z" transform="translate(-362.367 -636.776)" fill="#adadad"/>
                <path id="Trazado_883" data-name="Trazado 883" d="M368.534,948.794a1.482,1.482,0,0,0-.9-1.222,4.941,4.941,0,0,0-4.36,0,1.484,1.484,0,0,0-.9,1.222h0v17.077h0a1.492,1.492,0,0,0,.9,1.222,4.962,4.962,0,0,0,4.36,0,1.49,1.49,0,0,0,.9-1.222h0V948.794Z" transform="translate(-362.367 -616.75)" fill="#adadad"/>
                <path id="Trazado_884" data-name="Trazado 884" d="M368.534,957.087a1.486,1.486,0,0,0-.9-1.223,4.939,4.939,0,0,0-4.36,0,1.488,1.488,0,0,0-.9,1.223h0v17.077h0a1.486,1.486,0,0,0,.9,1.222,4.938,4.938,0,0,0,4.36,0,1.484,1.484,0,0,0,.9-1.222h0V957.087Z" transform="translate(-362.367 -596.726)" fill="#adadad"/>
              </g>
            </g>
            <path id="Trazado_885" data-name="Trazado 885" d="M396.777,847.349c0-2.817-1.919-5.631-5.75-7.779-7.663-4.3-20.092-4.3-27.758,0-3.831,2.148-5.747,4.961-5.747,7.779h0V897.5h0c0,2.818,1.916,5.634,5.747,7.782,7.666,4.3,20.1,4.3,27.758,0,3.831-2.148,5.75-4.965,5.75-7.782h0V847.349Z" transform="translate(-345.523 -779.472)" fill="#2d2d2d"/>
            <path id="Trazado_886" data-name="Trazado 886" d="M417.261,837.419c0-4.538-3.09-9.076-9.264-12.536-12.351-6.925-32.374-6.925-44.725,0-6.177,3.459-9.264,8-9.264,12.536h0v49.29h.147c-.417,4.822,2.547,9.714,9.117,13.4,12.351,6.925,32.374,6.925,44.725,0,6.566-3.681,9.534-8.574,9.117-13.4h.147v-49.29Z" transform="translate(-354.008 -819.69)" fill="#515151"/>
          </g>
          <g id="Grupo_411" data-name="Grupo 411" transform="translate(0 124.836)">
            <path id="Trazado_887" data-name="Trazado 887" d="M303.043,888.619a1.493,1.493,0,0,0-.9-1.222,4.94,4.94,0,0,0-4.36,0,1.487,1.487,0,0,0-.9,1.222h0V924.5h0a1.488,1.488,0,0,0,.9,1.223,4.942,4.942,0,0,0,4.36,0,1.493,1.493,0,0,0,.9-1.223h0V888.619Z" transform="translate(-268.333 -782.263)" fill="#adadad"/>
            <path id="Trazado_888" data-name="Trazado 888" d="M296.876,919.494h0a1.488,1.488,0,0,0,.9,1.223,4.941,4.941,0,0,0,4.36,0,1.493,1.493,0,0,0,.9-1.223h0V902.417h0a1.5,1.5,0,0,0-.9-1.223,4.967,4.967,0,0,0-4.36,0,1.493,1.493,0,0,0-.9,1.223h0" transform="translate(-268.333 -748.939)" fill="#adadad"/>
            <path id="Trazado_889" data-name="Trazado 889" d="M303.043,910.713a1.493,1.493,0,0,0-.9-1.223,4.944,4.944,0,0,0-4.36,0,1.488,1.488,0,0,0-.9,1.223h0v17.077h0a1.492,1.492,0,0,0,.9,1.223,4.963,4.963,0,0,0,4.36,0,1.5,1.5,0,0,0,.9-1.223h0V910.713Z" transform="translate(-268.333 -728.913)" fill="#adadad"/>
            <path id="Trazado_890" data-name="Trazado 890" d="M303.043,919.006h0a1.492,1.492,0,0,0-.9-1.222,4.941,4.941,0,0,0-4.36,0,1.487,1.487,0,0,0-.9,1.222h0v17.077h0a1.486,1.486,0,0,0,.9,1.222,4.941,4.941,0,0,0,4.36,0,1.492,1.492,0,0,0,.9-1.222h0" transform="translate(-268.333 -708.889)" fill="#adadad"/>
            <path id="Trazado_891" data-name="Trazado 891" d="M303.043,927.3a1.5,1.5,0,0,0-.9-1.222,4.964,4.964,0,0,0-4.36,0,1.491,1.491,0,0,0-.9,1.222h0v17.077h0a1.491,1.491,0,0,0,.9,1.226,4.963,4.963,0,0,0,4.36,0,1.5,1.5,0,0,0,.9-1.226h0V927.3Z" transform="translate(-268.333 -688.862)" fill="#adadad"/>
            <path id="Trazado_892" data-name="Trazado 892" d="M303.043,935.593h0a1.491,1.491,0,0,0-.9-1.222,4.94,4.94,0,0,0-4.36,0,1.486,1.486,0,0,0-.9,1.222h0V952.67h0a1.487,1.487,0,0,0,.9,1.223,4.963,4.963,0,0,0,4.36,0,1.492,1.492,0,0,0,.9-1.223h0" transform="translate(-268.333 -668.837)" fill="#adadad"/>
            <path id="Trazado_893" data-name="Trazado 893" d="M303.043,943.885a1.5,1.5,0,0,0-.9-1.223,4.963,4.963,0,0,0-4.36,0,1.492,1.492,0,0,0-.9,1.223h0v17.076h0a1.486,1.486,0,0,0,.9,1.222,4.939,4.939,0,0,0,4.36,0,1.491,1.491,0,0,0,.9-1.222h0V943.885Z" transform="translate(-268.333 -648.811)" fill="#adadad"/>
            <path id="Trazado_894" data-name="Trazado 894" d="M303.043,952.176h0a1.488,1.488,0,0,0-.9-1.219,4.941,4.941,0,0,0-4.36,0,1.483,1.483,0,0,0-.9,1.219h0v17.08h0a1.492,1.492,0,0,0,.9,1.223,4.96,4.96,0,0,0,4.36,0,1.5,1.5,0,0,0,.9-1.223h0" transform="translate(-268.333 -628.785)" fill="#adadad"/>
            <path id="Trazado_895" data-name="Trazado 895" d="M303.043,960.473a1.492,1.492,0,0,0-.9-1.222,4.936,4.936,0,0,0-4.36,0,1.487,1.487,0,0,0-.9,1.222h0V977.55h0a1.489,1.489,0,0,0,.9,1.223,4.942,4.942,0,0,0,4.36,0,1.494,1.494,0,0,0,.9-1.223h0V960.473Z" transform="translate(-268.333 -608.76)" fill="#adadad"/>
            <path id="Trazado_896" data-name="Trazado 896" d="M303.043,968.765h0a1.5,1.5,0,0,0-.9-1.223,4.962,4.962,0,0,0-4.36,0,1.492,1.492,0,0,0-.9,1.223h0v17.076h0a1.482,1.482,0,0,0,.9,1.222,4.94,4.94,0,0,0,4.36,0,1.488,1.488,0,0,0,.9-1.222h0" transform="translate(-268.333 -588.734)" fill="#adadad"/>
            <path id="Trazado_897" data-name="Trazado 897" d="M303.043,977.06a1.488,1.488,0,0,0-.9-1.222,4.94,4.94,0,0,0-4.36,0,1.483,1.483,0,0,0-.9,1.222h0v17.077h0a1.491,1.491,0,0,0,.9,1.223,4.963,4.963,0,0,0,4.36,0,1.5,1.5,0,0,0,.9-1.223h0V977.06Z" transform="translate(-268.333 -568.708)" fill="#adadad"/>
            <path id="Trazado_898" data-name="Trazado 898" d="M303.043,985.353h0a1.494,1.494,0,0,0-.9-1.222,4.942,4.942,0,0,0-4.36,0,1.488,1.488,0,0,0-.9,1.222h0v17.077h0a1.487,1.487,0,0,0,.9,1.223,4.94,4.94,0,0,0,4.36,0,1.492,1.492,0,0,0,.9-1.223h0" transform="translate(-268.333 -548.684)" fill="#adadad"/>
            <path id="Trazado_899" data-name="Trazado 899" d="M303.043,993.644a1.5,1.5,0,0,0-.9-1.222,4.96,4.96,0,0,0-4.36,0,1.492,1.492,0,0,0-.9,1.222h0v17.081h0a1.483,1.483,0,0,0,.9,1.219,4.942,4.942,0,0,0,4.36,0,1.488,1.488,0,0,0,.9-1.219h0V993.644Z" transform="translate(-268.333 -528.657)" fill="#adadad"/>
            <path id="Trazado_900" data-name="Trazado 900" d="M331.286,883.909c0-2.817-1.919-5.633-5.75-7.782-7.666-4.3-20.092-4.3-27.758,0-3.831,2.148-5.747,4.965-5.747,7.782h0v50.148h0c0,2.817,1.916,5.631,5.747,7.778,7.666,4.3,20.092,4.3,27.758,0,3.831-2.147,5.747-4.961,5.75-7.778h0V883.909Z" transform="translate(-280.032 -816.029)" fill="#2d2d2d"/>
            <path id="Trazado_901" data-name="Trazado 901" d="M351.77,873.978c0-4.535-3.09-9.073-9.264-12.535-12.351-6.925-32.378-6.925-44.729,0-6.174,3.462-9.261,8-9.261,12.535h0v49.294h.147c-.416,4.818,2.547,9.711,9.114,13.392,12.351,6.925,32.378,6.925,44.729,0,6.566-3.681,9.53-8.574,9.117-13.392h.147V873.978Z" transform="translate(-288.517 -856.249)" fill="#515151"/>
          </g>
        </g>
        <g id="Cloud">
          <path id="Trazado_902" data-name="Trazado 902" d="M1172.89,917.18l.055-.106-2.513-1.41c-.512-.28-1-.6-1.527-.857l-55.423-31.077c.017-1.257.072-2.524.072-3.777,0-66.1-22.916-112.4-58.995-131.867l.089-.021L948.065,688.288l.051.11c-29.3-16.377-67.467-14.868-109.248,8.553-18.425,10.333-36.148,24.152-52.722,40.58a111.986,111.986,0,0,0-23.032-17.75l.014-.007-103.02-57.544.031.109c-37.691-24.264-88.173-23.776-143.716,7.362-116.641,65.391-211.2,240.819-211.2,391.835a310.818,310.818,0,0,0,3.889,50l-14.553,8.157c-74.211,41.6-134.367,153.212-134.367,249.284v0c0,53.05,18.367,90.868,47.29,107.132l-.065.02,107.845,60.467.007-.038c23.418,13.034,53.706,12,86.807-6.56L597.5,1420.452l520.53-291.817c44.524-24.958,80.617-91.926,80.617-149.568h0C1198.647,948.9,1188.7,927.373,1172.89,917.18Z" transform="translate(-160.192 -645.141)" fill="#2d2d2d"/>
          <path id="Trazado_903" data-name="Trazado 903" d="M613.683,725.158h-.113c-29.12-15.769-66.945-13.952-108.18,9.2-19.378,10.9-37.988,25.606-55.273,43.141L352.4,722.378l-9.582-5.4c.772-.8,1.6-1.6,2.37-2.353,16.571-16.411,34.3-30.2,52.685-40.573,41.788-23.418,79.995-24.913,109.282-8.553l-.054-.109Z" transform="translate(280.782 -622.25)" fill="#353535"/>
          <path id="Trazado_904" data-name="Trazado 904" d="M345.186,672.194c2.534,2.459,4.9,5.026,7.212,7.752l-9.582-5.4C343.588,673.745,344.414,672.942,345.186,672.194Z" transform="translate(280.782 -579.817)" fill="#fff" opacity="0.8"/>
          <path id="Trazado_905" data-name="Trazado 905" d="M606.412,718.323l-.058.051c-36.772-19.883-84.451-17.585-136.532,11.6-52.907,29.667-101.3,82-138.348,144.44L224.008,814.173C261.06,751.732,309.395,699.4,362.3,669.675c55.55-31.111,106.035-31.592,143.747-7.321l-.055-.109Z" transform="translate(-6.098 -645.137)" fill="#353535"/>
          <path id="Trazado_906" data-name="Trazado 906" d="M404.448,842.037l-14.591,8.123c-50.264,28.174-94.139,88.579-117.1,154.493l-107.521-60.3c18.333-52.548,49.933-101.518,87.48-133.537l44.206-29.083Z" transform="translate(-148 -315.316)" fill="#353535"/>
          <path id="Trazado_907" data-name="Trazado 907" d="M1042,877.28l-7.71,4.323a316.929,316.929,0,0,0,3.234-44.257c0-119.527-74.842-174.465-167.164-122.709-42.827,24.009-81.873,66.774-111.451,117.642-4.173-143.914-97.01-208.792-211-144.89-116.641,65.39-211.2,240.822-211.2,391.835a310.8,310.8,0,0,0,3.886,50l-14.553,8.161c-74.207,41.6-134.363,153.209-134.363,249.28v0c0,96.071,60.156,142.333,134.363,100.729l195.424-109.555h0L1042,1086.028c44.524-24.958,80.617-91.922,80.617-149.568h0C1122.614,878.814,1086.521,852.319,1042,877.28Z" transform="translate(-84.159 -602.534)" fill="#00dfbf"/>
          <path id="Trazado_908" data-name="Trazado 908" d="M1042,877.28l-7.71,4.323a316.929,316.929,0,0,0,3.234-44.257c0-119.527-74.842-174.465-167.164-122.709-42.827,24.009-81.873,66.774-111.451,117.642-4.173-143.914-97.01-208.792-211-144.89-116.641,65.39-211.2,240.822-211.2,391.835a310.8,310.8,0,0,0,3.886,50l-14.553,8.161c-74.207,41.6-134.363,153.209-134.363,249.28v0c0,96.071,60.156,142.333,134.363,100.729l195.424-109.555h0L1042,1086.028c44.524-24.958,80.617-91.922,80.617-149.568h0C1122.614,878.814,1086.521,852.319,1042,877.28Z" transform="translate(-84.159 -602.534)" fill="#161616"/>
          <path id="Trazado_909" data-name="Trazado 909" d="M254.219,1457.095c-33.091-.007-54.477-35.065-54.477-89.328,0-85.929,55.229-189.486,120.6-226.135l14.557-8.161a26.473,26.473,0,0,0,13.419-27.327h0a285.947,285.947,0,0,1-3.548-45.822c0-142.262,88.566-307.657,197.428-368.687,24.883-13.953,48.454-21.02,70.055-21.02,58.909,0,97.1,54.993,99.667,143.517h0c.782,27.072,37.77,35.974,51.483,12.388h0c28.311-48.676,64.267-86.906,101.248-107.636,18.815-10.545,36.51-15.9,52.6-15.9,44.51,0,73.268,45.319,73.268,115.46a291.791,291.791,0,0,1-2.974,40.621h0c-3.114,22.021,21.209,37.9,41.034,26.781l7.707-4.323c6.785-3.8,13.092-5.811,18.245-5.811,14.563,0,21.085,21.014,21.085,41.843,0,48.212-30.619,106.107-66.855,126.424L292.815,1445.355c-13.9,7.789-26.88,11.74-38.592,11.74Z" transform="translate(-64.692 -583.633)" fill="#fff" opacity="0.7"/>
        </g>
      </g>
      <g id="wifi" transform="translate(-2836.176 10689.83) rotate(90)">
        <path id="Trazado_970" data-name="Trazado 970" d="M194.295,39.873a10.418,10.418,0,0,1,1.792,12.312c-7.6,13.822-26.648,19.947-41.029,9.293a94.929,94.929,0,0,0-112.77,0C27.925,72.117,8.868,66.018,1.258,52.186A10.418,10.418,0,0,1,3.049,39.873,134.6,134.6,0,0,1,194.295,39.873Z" transform="translate(80.65 121.57)"/>
        <path id="Trazado_971" data-name="Trazado 971" d="M248.986,85.068a155.4,155.4,0,0,0-218.522,0,10.538,10.538,0,0,1-9.972,2.741A27.233,27.233,0,0,1,.044,64.06,10.492,10.492,0,0,1,3.179,55.6a195.473,195.473,0,0,1,273.091,0,10.491,10.491,0,0,1,3.135,8.461,27.237,27.237,0,0,1-20.444,23.749,10.536,10.536,0,0,1-9.975-2.739Z" transform="translate(39.598 60.585)"/>
        <path id="Trazado_972" data-name="Trazado 972" d="M350.579,102.2a31.645,31.645,0,0,1-2.822,2.479,10.435,10.435,0,0,1-13.8-.974c-85.066-86.22-224.124-86.259-309.31.043a10.483,10.483,0,0,1-14.076.755q-1.02-.833-1.974-1.776C-3.918,90.373-2.02,72.267,9.453,62.474c97.571-83.282,242.126-83.317,339.739,0a26.964,26.964,0,0,1,1.387,39.721Z" transform="translate(0 0)"/>
        <circle id="Elipse_146" data-name="Elipse 146" cx="28.017" cy="28.017" r="28.017" transform="translate(151.305 212.955)"/>
      </g>
      <g id="wifi-2" data-name="wifi" transform="translate(-1037.176 10689.83) rotate(90)">
        <path id="Trazado_970-2" data-name="Trazado 970" d="M194.295,39.873a10.418,10.418,0,0,1,1.792,12.312c-7.6,13.822-26.648,19.947-41.029,9.293a94.929,94.929,0,0,0-112.77,0C27.925,72.117,8.868,66.018,1.258,52.186A10.418,10.418,0,0,1,3.049,39.873,134.6,134.6,0,0,1,194.295,39.873Z" transform="translate(80.65 121.57)"/>
        <path id="Trazado_971-2" data-name="Trazado 971" d="M248.986,85.068a155.4,155.4,0,0,0-218.522,0,10.538,10.538,0,0,1-9.972,2.741A27.233,27.233,0,0,1,.044,64.06,10.492,10.492,0,0,1,3.179,55.6a195.473,195.473,0,0,1,273.091,0,10.491,10.491,0,0,1,3.135,8.461,27.237,27.237,0,0,1-20.444,23.749,10.536,10.536,0,0,1-9.975-2.739Z" transform="translate(39.598 60.585)"/>
        <path id="Trazado_972-2" data-name="Trazado 972" d="M350.579,102.2a31.645,31.645,0,0,1-2.822,2.479,10.435,10.435,0,0,1-13.8-.974c-85.066-86.22-224.124-86.259-309.31.043a10.483,10.483,0,0,1-14.076.755q-1.02-.833-1.974-1.776C-3.918,90.373-2.02,72.267,9.453,62.474c97.571-83.282,242.126-83.317,339.739,0a26.964,26.964,0,0,1,1.387,39.721Z" transform="translate(0 0)"/>
        <circle id="Elipse_146-2" data-name="Elipse 146" cx="28.017" cy="28.017" r="28.017" transform="translate(151.305 212.955)"/>
      </g>
    </g>
  </g>
</svg>
